<?xml version="1.0" encoding="utf-8" standalone="no"?>
<!DOCTYPE svg PUBLIC "-//W3C//DTD SVG 1.1//EN"
  "http://www.w3.org/Graphics/SVG/1.1/DTD/svg11.dtd">
<svg xmlns:xlink="http://www.w3.org/1999/xlink" width="460.8pt" height="345.6pt" viewBox="0 0 460.8 345.6" xmlns="http://www.w3.org/2000/svg" version="1.1">
 <metadata>
  <rdf:RDF xmlns:dc="http://purl.org/dc/elements/1.1/" xmlns:cc="http://creativecommons.org/ns#" xmlns:rdf="http://www.w3.org/1999/02/22-rdf-syntax-ns#">
   <cc:Work>
    <dc:type rdf:resource="http://purl.org/dc/dcmitype/StillImage"/>
    <dc:date>2022-02-20T23:06:16.446185</dc:date>
    <dc:format>image/svg+xml</dc:format>
    <dc:creator>
     <cc:Agent>
      <dc:title>Matplotlib v3.5.1, https://matplotlib.org/</dc:title>
     </cc:Agent>
    </dc:creator>
   </cc:Work>
  </rdf:RDF>
 </metadata>
 <defs>
  <style type="text/css">*{stroke-linejoin: round; stroke-linecap: butt}</style>
 </defs>
 <g id="figure_1">
  <g id="patch_1">
   <path d="M 0 345.6 
L 460.8 345.6 
L 460.8 0 
L 0 0 
z
" style="fill: #ffffff"/>
  </g>
  <g id="axes_1">
   <g id="patch_2">
    <path d="M 57.6 307.584 
L 414.72 307.584 
L 414.72 41.472 
L 57.6 41.472 
z
" style="fill: #e5e5e5"/>
   </g>
   <g id="matplotlib.axis_1">
    <g id="xtick_1">
     <g id="line2d_1">
      <path d="M 73.832727 307.584 
L 73.832727 41.472 
" clip-path="url(#p718a7f8109)" style="fill: none; stroke: #ffffff; stroke-width: 0.8; stroke-linecap: square"/>
     </g>
     <g id="line2d_2">
      <defs>
       <path id="mc78c2715f4" d="M 0 0 
L 0 3.5 
" style="stroke: #555555; stroke-width: 0.8"/>
      </defs>
      <g>
       <use xlink:href="#mc78c2715f4" x="73.832727" y="307.584" style="fill: #555555; stroke: #555555; stroke-width: 0.8"/>
      </g>
     </g>
     <g id="text_1">
      <!-- 0 -->
      <g style="fill: #555555" transform="translate(70.651477 322.182437)scale(0.1 -0.1)">
       <defs>
        <path id="DejaVuSans-30" d="M 2034 4250 
Q 1547 4250 1301 3770 
Q 1056 3291 1056 2328 
Q 1056 1369 1301 889 
Q 1547 409 2034 409 
Q 2525 409 2770 889 
Q 3016 1369 3016 2328 
Q 3016 3291 2770 3770 
Q 2525 4250 2034 4250 
z
M 2034 4750 
Q 2819 4750 3233 4129 
Q 3647 3509 3647 2328 
Q 3647 1150 3233 529 
Q 2819 -91 2034 -91 
Q 1250 -91 836 529 
Q 422 1150 422 2328 
Q 422 3509 836 4129 
Q 1250 4750 2034 4750 
z
" transform="scale(0.015625)"/>
       </defs>
       <use xlink:href="#DejaVuSans-30"/>
      </g>
     </g>
    </g>
    <g id="xtick_2">
     <g id="line2d_3">
      <path d="M 138.893758 307.584 
L 138.893758 41.472 
" clip-path="url(#p718a7f8109)" style="fill: none; stroke: #ffffff; stroke-width: 0.8; stroke-linecap: square"/>
     </g>
     <g id="line2d_4">
      <g>
       <use xlink:href="#mc78c2715f4" x="138.893758" y="307.584" style="fill: #555555; stroke: #555555; stroke-width: 0.8"/>
      </g>
     </g>
     <g id="text_2">
      <!-- 100 -->
      <g style="fill: #555555" transform="translate(129.350008 322.182437)scale(0.1 -0.1)">
       <defs>
        <path id="DejaVuSans-31" d="M 794 531 
L 1825 531 
L 1825 4091 
L 703 3866 
L 703 4441 
L 1819 4666 
L 2450 4666 
L 2450 531 
L 3481 531 
L 3481 0 
L 794 0 
L 794 531 
z
" transform="scale(0.015625)"/>
       </defs>
       <use xlink:href="#DejaVuSans-31"/>
       <use xlink:href="#DejaVuSans-30" x="63.623047"/>
       <use xlink:href="#DejaVuSans-30" x="127.246094"/>
      </g>
     </g>
    </g>
    <g id="xtick_3">
     <g id="line2d_5">
      <path d="M 203.95479 307.584 
L 203.95479 41.472 
" clip-path="url(#p718a7f8109)" style="fill: none; stroke: #ffffff; stroke-width: 0.8; stroke-linecap: square"/>
     </g>
     <g id="line2d_6">
      <g>
       <use xlink:href="#mc78c2715f4" x="203.95479" y="307.584" style="fill: #555555; stroke: #555555; stroke-width: 0.8"/>
      </g>
     </g>
     <g id="text_3">
      <!-- 200 -->
      <g style="fill: #555555" transform="translate(194.41104 322.182437)scale(0.1 -0.1)">
       <defs>
        <path id="DejaVuSans-32" d="M 1228 531 
L 3431 531 
L 3431 0 
L 469 0 
L 469 531 
Q 828 903 1448 1529 
Q 2069 2156 2228 2338 
Q 2531 2678 2651 2914 
Q 2772 3150 2772 3378 
Q 2772 3750 2511 3984 
Q 2250 4219 1831 4219 
Q 1534 4219 1204 4116 
Q 875 4013 500 3803 
L 500 4441 
Q 881 4594 1212 4672 
Q 1544 4750 1819 4750 
Q 2544 4750 2975 4387 
Q 3406 4025 3406 3419 
Q 3406 3131 3298 2873 
Q 3191 2616 2906 2266 
Q 2828 2175 2409 1742 
Q 1991 1309 1228 531 
z
" transform="scale(0.015625)"/>
       </defs>
       <use xlink:href="#DejaVuSans-32"/>
       <use xlink:href="#DejaVuSans-30" x="63.623047"/>
       <use xlink:href="#DejaVuSans-30" x="127.246094"/>
      </g>
     </g>
    </g>
    <g id="xtick_4">
     <g id="line2d_7">
      <path d="M 269.015821 307.584 
L 269.015821 41.472 
" clip-path="url(#p718a7f8109)" style="fill: none; stroke: #ffffff; stroke-width: 0.8; stroke-linecap: square"/>
     </g>
     <g id="line2d_8">
      <g>
       <use xlink:href="#mc78c2715f4" x="269.015821" y="307.584" style="fill: #555555; stroke: #555555; stroke-width: 0.8"/>
      </g>
     </g>
     <g id="text_4">
      <!-- 300 -->
      <g style="fill: #555555" transform="translate(259.472071 322.182437)scale(0.1 -0.1)">
       <defs>
        <path id="DejaVuSans-33" d="M 2597 2516 
Q 3050 2419 3304 2112 
Q 3559 1806 3559 1356 
Q 3559 666 3084 287 
Q 2609 -91 1734 -91 
Q 1441 -91 1130 -33 
Q 819 25 488 141 
L 488 750 
Q 750 597 1062 519 
Q 1375 441 1716 441 
Q 2309 441 2620 675 
Q 2931 909 2931 1356 
Q 2931 1769 2642 2001 
Q 2353 2234 1838 2234 
L 1294 2234 
L 1294 2753 
L 1863 2753 
Q 2328 2753 2575 2939 
Q 2822 3125 2822 3475 
Q 2822 3834 2567 4026 
Q 2313 4219 1838 4219 
Q 1578 4219 1281 4162 
Q 984 4106 628 3988 
L 628 4550 
Q 988 4650 1302 4700 
Q 1616 4750 1894 4750 
Q 2613 4750 3031 4423 
Q 3450 4097 3450 3541 
Q 3450 3153 3228 2886 
Q 3006 2619 2597 2516 
z
" transform="scale(0.015625)"/>
       </defs>
       <use xlink:href="#DejaVuSans-33"/>
       <use xlink:href="#DejaVuSans-30" x="63.623047"/>
       <use xlink:href="#DejaVuSans-30" x="127.246094"/>
      </g>
     </g>
    </g>
    <g id="xtick_5">
     <g id="line2d_9">
      <path d="M 334.076852 307.584 
L 334.076852 41.472 
" clip-path="url(#p718a7f8109)" style="fill: none; stroke: #ffffff; stroke-width: 0.8; stroke-linecap: square"/>
     </g>
     <g id="line2d_10">
      <g>
       <use xlink:href="#mc78c2715f4" x="334.076852" y="307.584" style="fill: #555555; stroke: #555555; stroke-width: 0.8"/>
      </g>
     </g>
     <g id="text_5">
      <!-- 400 -->
      <g style="fill: #555555" transform="translate(324.533102 322.182437)scale(0.1 -0.1)">
       <defs>
        <path id="DejaVuSans-34" d="M 2419 4116 
L 825 1625 
L 2419 1625 
L 2419 4116 
z
M 2253 4666 
L 3047 4666 
L 3047 1625 
L 3713 1625 
L 3713 1100 
L 3047 1100 
L 3047 0 
L 2419 0 
L 2419 1100 
L 313 1100 
L 313 1709 
L 2253 4666 
z
" transform="scale(0.015625)"/>
       </defs>
       <use xlink:href="#DejaVuSans-34"/>
       <use xlink:href="#DejaVuSans-30" x="63.623047"/>
       <use xlink:href="#DejaVuSans-30" x="127.246094"/>
      </g>
     </g>
    </g>
    <g id="xtick_6">
     <g id="line2d_11">
      <path d="M 399.137883 307.584 
L 399.137883 41.472 
" clip-path="url(#p718a7f8109)" style="fill: none; stroke: #ffffff; stroke-width: 0.8; stroke-linecap: square"/>
     </g>
     <g id="line2d_12">
      <g>
       <use xlink:href="#mc78c2715f4" x="399.137883" y="307.584" style="fill: #555555; stroke: #555555; stroke-width: 0.8"/>
      </g>
     </g>
     <g id="text_6">
      <!-- 500 -->
      <g style="fill: #555555" transform="translate(389.594133 322.182437)scale(0.1 -0.1)">
       <defs>
        <path id="DejaVuSans-35" d="M 691 4666 
L 3169 4666 
L 3169 4134 
L 1269 4134 
L 1269 2991 
Q 1406 3038 1543 3061 
Q 1681 3084 1819 3084 
Q 2600 3084 3056 2656 
Q 3513 2228 3513 1497 
Q 3513 744 3044 326 
Q 2575 -91 1722 -91 
Q 1428 -91 1123 -41 
Q 819 9 494 109 
L 494 744 
Q 775 591 1075 516 
Q 1375 441 1709 441 
Q 2250 441 2565 725 
Q 2881 1009 2881 1497 
Q 2881 1984 2565 2268 
Q 2250 2553 1709 2553 
Q 1456 2553 1204 2497 
Q 953 2441 691 2322 
L 691 4666 
z
" transform="scale(0.015625)"/>
       </defs>
       <use xlink:href="#DejaVuSans-35"/>
       <use xlink:href="#DejaVuSans-30" x="63.623047"/>
       <use xlink:href="#DejaVuSans-30" x="127.246094"/>
      </g>
     </g>
    </g>
    <g id="text_7">
     <!-- Epoch -->
     <g style="fill: #555555" transform="translate(205.538125 343.459)scale(0.2 -0.2)">
      <defs>
       <path id="DejaVuSans-45" d="M 628 4666 
L 3578 4666 
L 3578 4134 
L 1259 4134 
L 1259 2753 
L 3481 2753 
L 3481 2222 
L 1259 2222 
L 1259 531 
L 3634 531 
L 3634 0 
L 628 0 
L 628 4666 
z
" transform="scale(0.015625)"/>
       <path id="DejaVuSans-70" d="M 1159 525 
L 1159 -1331 
L 581 -1331 
L 581 3500 
L 1159 3500 
L 1159 2969 
Q 1341 3281 1617 3432 
Q 1894 3584 2278 3584 
Q 2916 3584 3314 3078 
Q 3713 2572 3713 1747 
Q 3713 922 3314 415 
Q 2916 -91 2278 -91 
Q 1894 -91 1617 61 
Q 1341 213 1159 525 
z
M 3116 1747 
Q 3116 2381 2855 2742 
Q 2594 3103 2138 3103 
Q 1681 3103 1420 2742 
Q 1159 2381 1159 1747 
Q 1159 1113 1420 752 
Q 1681 391 2138 391 
Q 2594 391 2855 752 
Q 3116 1113 3116 1747 
z
" transform="scale(0.015625)"/>
       <path id="DejaVuSans-6f" d="M 1959 3097 
Q 1497 3097 1228 2736 
Q 959 2375 959 1747 
Q 959 1119 1226 758 
Q 1494 397 1959 397 
Q 2419 397 2687 759 
Q 2956 1122 2956 1747 
Q 2956 2369 2687 2733 
Q 2419 3097 1959 3097 
z
M 1959 3584 
Q 2709 3584 3137 3096 
Q 3566 2609 3566 1747 
Q 3566 888 3137 398 
Q 2709 -91 1959 -91 
Q 1206 -91 779 398 
Q 353 888 353 1747 
Q 353 2609 779 3096 
Q 1206 3584 1959 3584 
z
" transform="scale(0.015625)"/>
       <path id="DejaVuSans-63" d="M 3122 3366 
L 3122 2828 
Q 2878 2963 2633 3030 
Q 2388 3097 2138 3097 
Q 1578 3097 1268 2742 
Q 959 2388 959 1747 
Q 959 1106 1268 751 
Q 1578 397 2138 397 
Q 2388 397 2633 464 
Q 2878 531 3122 666 
L 3122 134 
Q 2881 22 2623 -34 
Q 2366 -91 2075 -91 
Q 1284 -91 818 406 
Q 353 903 353 1747 
Q 353 2603 823 3093 
Q 1294 3584 2113 3584 
Q 2378 3584 2631 3529 
Q 2884 3475 3122 3366 
z
" transform="scale(0.015625)"/>
       <path id="DejaVuSans-68" d="M 3513 2113 
L 3513 0 
L 2938 0 
L 2938 2094 
Q 2938 2591 2744 2837 
Q 2550 3084 2163 3084 
Q 1697 3084 1428 2787 
Q 1159 2491 1159 1978 
L 1159 0 
L 581 0 
L 581 4863 
L 1159 4863 
L 1159 2956 
Q 1366 3272 1645 3428 
Q 1925 3584 2291 3584 
Q 2894 3584 3203 3211 
Q 3513 2838 3513 2113 
z
" transform="scale(0.015625)"/>
      </defs>
      <use xlink:href="#DejaVuSans-45"/>
      <use xlink:href="#DejaVuSans-70" x="63.183594"/>
      <use xlink:href="#DejaVuSans-6f" x="126.660156"/>
      <use xlink:href="#DejaVuSans-63" x="187.841797"/>
      <use xlink:href="#DejaVuSans-68" x="242.822266"/>
     </g>
    </g>
   </g>
   <g id="matplotlib.axis_2">
    <g id="ytick_1">
     <g id="line2d_13">
      <path d="M 57.6 299.890964 
L 414.72 299.890964 
" clip-path="url(#p718a7f8109)" style="fill: none; stroke: #ffffff; stroke-width: 0.8; stroke-linecap: square"/>
     </g>
     <g id="line2d_14">
      <defs>
       <path id="mb6e67f5176" d="M 0 0 
L -3.5 0 
" style="stroke: #555555; stroke-width: 0.8"/>
      </defs>
      <g>
       <use xlink:href="#mb6e67f5176" x="57.6" y="299.890964" style="fill: #555555; stroke: #555555; stroke-width: 0.8"/>
      </g>
     </g>
     <g id="text_8">
      <!-- 0.6 -->
      <g style="fill: #555555" transform="translate(34.696875 303.690182)scale(0.1 -0.1)">
       <defs>
        <path id="DejaVuSans-2e" d="M 684 794 
L 1344 794 
L 1344 0 
L 684 0 
L 684 794 
z
" transform="scale(0.015625)"/>
        <path id="DejaVuSans-36" d="M 2113 2584 
Q 1688 2584 1439 2293 
Q 1191 2003 1191 1497 
Q 1191 994 1439 701 
Q 1688 409 2113 409 
Q 2538 409 2786 701 
Q 3034 994 3034 1497 
Q 3034 2003 2786 2293 
Q 2538 2584 2113 2584 
z
M 3366 4563 
L 3366 3988 
Q 3128 4100 2886 4159 
Q 2644 4219 2406 4219 
Q 1781 4219 1451 3797 
Q 1122 3375 1075 2522 
Q 1259 2794 1537 2939 
Q 1816 3084 2150 3084 
Q 2853 3084 3261 2657 
Q 3669 2231 3669 1497 
Q 3669 778 3244 343 
Q 2819 -91 2113 -91 
Q 1303 -91 875 529 
Q 447 1150 447 2328 
Q 447 3434 972 4092 
Q 1497 4750 2381 4750 
Q 2619 4750 2861 4703 
Q 3103 4656 3366 4563 
z
" transform="scale(0.015625)"/>
       </defs>
       <use xlink:href="#DejaVuSans-30"/>
       <use xlink:href="#DejaVuSans-2e" x="63.623047"/>
       <use xlink:href="#DejaVuSans-36" x="95.410156"/>
      </g>
     </g>
    </g>
    <g id="ytick_2">
     <g id="line2d_15">
      <path d="M 57.6 268.153411 
L 414.72 268.153411 
" clip-path="url(#p718a7f8109)" style="fill: none; stroke: #ffffff; stroke-width: 0.8; stroke-linecap: square"/>
     </g>
     <g id="line2d_16">
      <g>
       <use xlink:href="#mb6e67f5176" x="57.6" y="268.153411" style="fill: #555555; stroke: #555555; stroke-width: 0.8"/>
      </g>
     </g>
     <g id="text_9">
      <!-- 0.7 -->
      <g style="fill: #555555" transform="translate(34.696875 271.95263)scale(0.1 -0.1)">
       <defs>
        <path id="DejaVuSans-37" d="M 525 4666 
L 3525 4666 
L 3525 4397 
L 1831 0 
L 1172 0 
L 2766 4134 
L 525 4134 
L 525 4666 
z
" transform="scale(0.015625)"/>
       </defs>
       <use xlink:href="#DejaVuSans-30"/>
       <use xlink:href="#DejaVuSans-2e" x="63.623047"/>
       <use xlink:href="#DejaVuSans-37" x="95.410156"/>
      </g>
     </g>
    </g>
    <g id="ytick_3">
     <g id="line2d_17">
      <path d="M 57.6 236.415859 
L 414.72 236.415859 
" clip-path="url(#p718a7f8109)" style="fill: none; stroke: #ffffff; stroke-width: 0.8; stroke-linecap: square"/>
     </g>
     <g id="line2d_18">
      <g>
       <use xlink:href="#mb6e67f5176" x="57.6" y="236.415859" style="fill: #555555; stroke: #555555; stroke-width: 0.8"/>
      </g>
     </g>
     <g id="text_10">
      <!-- 0.8 -->
      <g style="fill: #555555" transform="translate(34.696875 240.215078)scale(0.1 -0.1)">
       <defs>
        <path id="DejaVuSans-38" d="M 2034 2216 
Q 1584 2216 1326 1975 
Q 1069 1734 1069 1313 
Q 1069 891 1326 650 
Q 1584 409 2034 409 
Q 2484 409 2743 651 
Q 3003 894 3003 1313 
Q 3003 1734 2745 1975 
Q 2488 2216 2034 2216 
z
M 1403 2484 
Q 997 2584 770 2862 
Q 544 3141 544 3541 
Q 544 4100 942 4425 
Q 1341 4750 2034 4750 
Q 2731 4750 3128 4425 
Q 3525 4100 3525 3541 
Q 3525 3141 3298 2862 
Q 3072 2584 2669 2484 
Q 3125 2378 3379 2068 
Q 3634 1759 3634 1313 
Q 3634 634 3220 271 
Q 2806 -91 2034 -91 
Q 1263 -91 848 271 
Q 434 634 434 1313 
Q 434 1759 690 2068 
Q 947 2378 1403 2484 
z
M 1172 3481 
Q 1172 3119 1398 2916 
Q 1625 2713 2034 2713 
Q 2441 2713 2670 2916 
Q 2900 3119 2900 3481 
Q 2900 3844 2670 4047 
Q 2441 4250 2034 4250 
Q 1625 4250 1398 4047 
Q 1172 3844 1172 3481 
z
" transform="scale(0.015625)"/>
       </defs>
       <use xlink:href="#DejaVuSans-30"/>
       <use xlink:href="#DejaVuSans-2e" x="63.623047"/>
       <use xlink:href="#DejaVuSans-38" x="95.410156"/>
      </g>
     </g>
    </g>
    <g id="ytick_4">
     <g id="line2d_19">
      <path d="M 57.6 204.678307 
L 414.72 204.678307 
" clip-path="url(#p718a7f8109)" style="fill: none; stroke: #ffffff; stroke-width: 0.8; stroke-linecap: square"/>
     </g>
     <g id="line2d_20">
      <g>
       <use xlink:href="#mb6e67f5176" x="57.6" y="204.678307" style="fill: #555555; stroke: #555555; stroke-width: 0.8"/>
      </g>
     </g>
     <g id="text_11">
      <!-- 0.9 -->
      <g style="fill: #555555" transform="translate(34.696875 208.477526)scale(0.1 -0.1)">
       <defs>
        <path id="DejaVuSans-39" d="M 703 97 
L 703 672 
Q 941 559 1184 500 
Q 1428 441 1663 441 
Q 2288 441 2617 861 
Q 2947 1281 2994 2138 
Q 2813 1869 2534 1725 
Q 2256 1581 1919 1581 
Q 1219 1581 811 2004 
Q 403 2428 403 3163 
Q 403 3881 828 4315 
Q 1253 4750 1959 4750 
Q 2769 4750 3195 4129 
Q 3622 3509 3622 2328 
Q 3622 1225 3098 567 
Q 2575 -91 1691 -91 
Q 1453 -91 1209 -44 
Q 966 3 703 97 
z
M 1959 2075 
Q 2384 2075 2632 2365 
Q 2881 2656 2881 3163 
Q 2881 3666 2632 3958 
Q 2384 4250 1959 4250 
Q 1534 4250 1286 3958 
Q 1038 3666 1038 3163 
Q 1038 2656 1286 2365 
Q 1534 2075 1959 2075 
z
" transform="scale(0.015625)"/>
       </defs>
       <use xlink:href="#DejaVuSans-30"/>
       <use xlink:href="#DejaVuSans-2e" x="63.623047"/>
       <use xlink:href="#DejaVuSans-39" x="95.410156"/>
      </g>
     </g>
    </g>
    <g id="ytick_5">
     <g id="line2d_21">
      <path d="M 57.6 172.940755 
L 414.72 172.940755 
" clip-path="url(#p718a7f8109)" style="fill: none; stroke: #ffffff; stroke-width: 0.8; stroke-linecap: square"/>
     </g>
     <g id="line2d_22">
      <g>
       <use xlink:href="#mb6e67f5176" x="57.6" y="172.940755" style="fill: #555555; stroke: #555555; stroke-width: 0.8"/>
      </g>
     </g>
     <g id="text_12">
      <!-- 1.0 -->
      <g style="fill: #555555" transform="translate(34.696875 176.739974)scale(0.1 -0.1)">
       <use xlink:href="#DejaVuSans-31"/>
       <use xlink:href="#DejaVuSans-2e" x="63.623047"/>
       <use xlink:href="#DejaVuSans-30" x="95.410156"/>
      </g>
     </g>
    </g>
    <g id="ytick_6">
     <g id="line2d_23">
      <path d="M 57.6 141.203203 
L 414.72 141.203203 
" clip-path="url(#p718a7f8109)" style="fill: none; stroke: #ffffff; stroke-width: 0.8; stroke-linecap: square"/>
     </g>
     <g id="line2d_24">
      <g>
       <use xlink:href="#mb6e67f5176" x="57.6" y="141.203203" style="fill: #555555; stroke: #555555; stroke-width: 0.8"/>
      </g>
     </g>
     <g id="text_13">
      <!-- 1.1 -->
      <g style="fill: #555555" transform="translate(34.696875 145.002422)scale(0.1 -0.1)">
       <use xlink:href="#DejaVuSans-31"/>
       <use xlink:href="#DejaVuSans-2e" x="63.623047"/>
       <use xlink:href="#DejaVuSans-31" x="95.410156"/>
      </g>
     </g>
    </g>
    <g id="ytick_7">
     <g id="line2d_25">
      <path d="M 57.6 109.465651 
L 414.72 109.465651 
" clip-path="url(#p718a7f8109)" style="fill: none; stroke: #ffffff; stroke-width: 0.8; stroke-linecap: square"/>
     </g>
     <g id="line2d_26">
      <g>
       <use xlink:href="#mb6e67f5176" x="57.6" y="109.465651" style="fill: #555555; stroke: #555555; stroke-width: 0.8"/>
      </g>
     </g>
     <g id="text_14">
      <!-- 1.2 -->
      <g style="fill: #555555" transform="translate(34.696875 113.26487)scale(0.1 -0.1)">
       <use xlink:href="#DejaVuSans-31"/>
       <use xlink:href="#DejaVuSans-2e" x="63.623047"/>
       <use xlink:href="#DejaVuSans-32" x="95.410156"/>
      </g>
     </g>
    </g>
    <g id="ytick_8">
     <g id="line2d_27">
      <path d="M 57.6 77.728099 
L 414.72 77.728099 
" clip-path="url(#p718a7f8109)" style="fill: none; stroke: #ffffff; stroke-width: 0.8; stroke-linecap: square"/>
     </g>
     <g id="line2d_28">
      <g>
       <use xlink:href="#mb6e67f5176" x="57.6" y="77.728099" style="fill: #555555; stroke: #555555; stroke-width: 0.8"/>
      </g>
     </g>
     <g id="text_15">
      <!-- 1.3 -->
      <g style="fill: #555555" transform="translate(34.696875 81.527317)scale(0.1 -0.1)">
       <use xlink:href="#DejaVuSans-31"/>
       <use xlink:href="#DejaVuSans-2e" x="63.623047"/>
       <use xlink:href="#DejaVuSans-33" x="95.410156"/>
      </g>
     </g>
    </g>
    <g id="ytick_9">
     <g id="line2d_29">
      <path d="M 57.6 45.990547 
L 414.72 45.990547 
" clip-path="url(#p718a7f8109)" style="fill: none; stroke: #ffffff; stroke-width: 0.8; stroke-linecap: square"/>
     </g>
     <g id="line2d_30">
      <g>
       <use xlink:href="#mb6e67f5176" x="57.6" y="45.990547" style="fill: #555555; stroke: #555555; stroke-width: 0.8"/>
      </g>
     </g>
     <g id="text_16">
      <!-- 1.4 -->
      <g style="fill: #555555" transform="translate(34.696875 49.789765)scale(0.1 -0.1)">
       <use xlink:href="#DejaVuSans-31"/>
       <use xlink:href="#DejaVuSans-2e" x="63.623047"/>
       <use xlink:href="#DejaVuSans-34" x="95.410156"/>
      </g>
     </g>
    </g>
    <g id="text_17">
     <!-- Loss -->
     <g style="fill: #555555" transform="translate(26.5375 196.462375)rotate(-90)scale(0.2 -0.2)">
      <defs>
       <path id="DejaVuSans-4c" d="M 628 4666 
L 1259 4666 
L 1259 531 
L 3531 531 
L 3531 0 
L 628 0 
L 628 4666 
z
" transform="scale(0.015625)"/>
       <path id="DejaVuSans-73" d="M 2834 3397 
L 2834 2853 
Q 2591 2978 2328 3040 
Q 2066 3103 1784 3103 
Q 1356 3103 1142 2972 
Q 928 2841 928 2578 
Q 928 2378 1081 2264 
Q 1234 2150 1697 2047 
L 1894 2003 
Q 2506 1872 2764 1633 
Q 3022 1394 3022 966 
Q 3022 478 2636 193 
Q 2250 -91 1575 -91 
Q 1294 -91 989 -36 
Q 684 19 347 128 
L 347 722 
Q 666 556 975 473 
Q 1284 391 1588 391 
Q 1994 391 2212 530 
Q 2431 669 2431 922 
Q 2431 1156 2273 1281 
Q 2116 1406 1581 1522 
L 1381 1569 
Q 847 1681 609 1914 
Q 372 2147 372 2553 
Q 372 3047 722 3315 
Q 1072 3584 1716 3584 
Q 2034 3584 2315 3537 
Q 2597 3491 2834 3397 
z
" transform="scale(0.015625)"/>
      </defs>
      <use xlink:href="#DejaVuSans-4c"/>
      <use xlink:href="#DejaVuSans-6f" x="53.962891"/>
      <use xlink:href="#DejaVuSans-73" x="115.144531"/>
      <use xlink:href="#DejaVuSans-73" x="167.244141"/>
     </g>
    </g>
   </g>
   <g id="line2d_31">
    <path d="M 73.832727 53.568 
L 74.483338 122.193651 
L 75.133948 153.965469 
L 75.784558 174.305167 
L 76.435169 189.177188 
L 77.736389 211.087856 
L 79.03761 226.008732 
L 80.33883 237.604543 
L 81.640051 246.609174 
L 82.941272 253.835915 
L 83.591882 256.121514 
L 84.893103 261.836278 
L 86.194323 266.469445 
L 86.844934 267.951086 
L 87.495544 269.891794 
L 88.796764 272.566743 
L 89.447375 274.160929 
L 90.097985 275.102105 
L 90.748595 276.640304 
L 91.399206 277.657991 
L 92.049816 278.954904 
L 92.700426 279.926897 
L 94.001647 281.326161 
L 94.652257 282.775525 
L 95.302868 282.95949 
L 95.953478 283.572412 
L 96.604088 284.604371 
L 100.50775 287.799954 
L 101.15836 287.932445 
L 102.459581 288.869378 
L 103.110191 289.013339 
L 104.411412 290.215329 
L 105.062022 290.345694 
L 106.363243 291.239861 
L 107.013853 291.277544 
L 107.664463 291.188136 
L 108.315074 291.794104 
L 108.965684 291.8586 
L 109.616294 292.671224 
L 110.266905 292.42126 
L 110.917515 292.651698 
L 111.568125 292.675465 
L 112.869346 293.380281 
L 113.519956 293.152533 
L 114.170567 293.667029 
L 114.821177 293.446797 
L 115.471787 293.627354 
L 116.122398 293.491874 
L 116.773008 294.114747 
L 117.423618 294.395302 
L 118.074228 294.308308 
L 118.724839 294.365377 
L 119.375449 294.306182 
L 120.026059 294.614653 
L 121.32728 294.808668 
L 121.97789 295.164178 
L 122.628501 294.697356 
L 123.279111 294.465802 
L 123.929721 295.032417 
L 125.230942 294.704936 
L 125.881552 295.289072 
L 126.532163 294.719771 
L 127.182773 295.339533 
L 127.833383 294.785205 
L 128.483993 294.751741 
L 129.134604 294.5175 
L 129.785214 294.71157 
L 130.435824 295.488 
L 131.737045 294.558702 
L 132.387655 295.401795 
L 133.038266 294.883069 
L 133.688876 295.487406 
L 134.339486 295.150185 
L 134.990097 295.148127 
L 135.640707 294.850151 
L 136.291317 294.777233 
L 137.592538 295.458429 
L 138.893758 294.811838 
L 139.544369 295.40394 
L 140.194979 294.632234 
L 140.845589 294.674349 
L 141.4962 294.968445 
L 142.79742 294.298639 
L 143.448031 295.334412 
L 144.098641 294.930859 
L 144.749251 294.845028 
L 145.399862 294.93537 
L 146.050472 295.250148 
L 148.652913 294.606808 
L 149.303523 294.106204 
L 149.954134 294.145216 
L 150.604744 294.90747 
L 151.255354 294.259854 
L 151.905965 294.486885 
L 152.556575 294.256778 
L 153.207185 293.894851 
L 154.508406 294.625772 
L 155.159016 293.775074 
L 155.809627 294.657252 
L 156.460237 293.813687 
L 157.110847 293.4997 
L 157.761457 293.918859 
L 158.412068 294.487539 
L 159.713288 293.104926 
L 160.363899 293.709768 
L 161.014509 293.799912 
L 161.665119 293.477755 
L 162.31573 293.461136 
L 162.96634 293.568611 
L 163.61695 293.543525 
L 164.267561 292.938094 
L 164.918171 293.476716 
L 165.568781 293.682216 
L 166.219392 292.930897 
L 166.870002 293.546378 
L 167.520612 292.658603 
L 168.171222 293.128896 
L 168.821833 292.483504 
L 169.472443 292.995778 
L 170.773664 292.717425 
L 171.424274 292.907216 
L 172.074884 292.144346 
L 173.376105 292.660277 
L 174.677326 292.497157 
L 175.327936 292.599736 
L 175.978546 291.696943 
L 176.629156 292.212041 
L 177.279767 291.556292 
L 178.580987 292.103154 
L 179.231598 291.525902 
L 180.532818 290.866811 
L 181.183429 291.295387 
L 181.834039 291.104483 
L 182.484649 291.479557 
L 183.13526 291.285156 
L 184.43648 291.179147 
L 185.087091 291.525051 
L 185.737701 291.452241 
L 186.388311 291.062168 
L 187.038921 291.295563 
L 187.689532 291.324789 
L 188.990752 290.903359 
L 189.641363 290.417588 
L 190.291973 290.326748 
L 190.942583 290.54273 
L 191.593194 290.492149 
L 192.894414 290.096272 
L 194.195635 290.219386 
L 194.846245 290.851449 
L 195.496856 290.310699 
L 196.147466 289.933245 
L 196.798076 290.409094 
L 197.448686 290.496555 
L 198.099297 289.924861 
L 198.749907 289.870005 
L 199.400517 290.222685 
L 200.051128 290.012578 
L 200.701738 290.611283 
L 201.352348 289.62767 
L 202.002959 290.48892 
L 202.653569 289.517038 
L 203.304179 289.288512 
L 203.95479 288.86649 
L 204.6054 289.767764 
L 205.25601 289.161227 
L 205.906621 289.977729 
L 206.557231 289.667812 
L 207.207841 289.583807 
L 207.858451 289.386578 
L 208.509062 289.84568 
L 209.159672 289.513633 
L 209.810282 288.82295 
L 210.460893 289.23416 
L 211.111503 288.895217 
L 211.762113 289.367273 
L 212.412724 289.601934 
L 213.063334 288.910988 
L 213.713944 288.846984 
L 214.364555 288.575001 
L 215.015165 288.944547 
L 215.665775 288.958565 
L 216.316385 288.83731 
L 216.966996 288.554237 
L 217.617606 289.40461 
L 218.268216 289.158747 
L 218.918827 288.62682 
L 219.569437 288.991987 
L 220.220047 288.575071 
L 220.870658 288.334211 
L 222.171878 288.087415 
L 223.473099 288.705768 
L 224.123709 287.976877 
L 224.77432 287.899009 
L 225.42493 288.168844 
L 226.07554 288.651244 
L 226.72615 288.293343 
L 227.376761 288.79206 
L 228.027371 287.961222 
L 229.328592 287.801066 
L 230.629812 288.220777 
L 231.280423 288.459535 
L 231.931033 287.019735 
L 232.581643 287.978553 
L 233.232254 287.63914 
L 233.882864 287.644715 
L 234.533474 288.355701 
L 235.184085 287.504935 
L 235.834695 288.135928 
L 236.485305 287.283388 
L 237.135915 287.872782 
L 237.786526 287.15296 
L 238.437136 287.531176 
L 239.087746 287.460635 
L 239.738357 287.183182 
L 240.388967 286.732529 
L 241.039577 287.71708 
L 241.690188 287.173273 
L 242.340798 286.878192 
L 242.991408 287.140628 
L 243.642019 287.71862 
L 244.292629 286.858915 
L 244.943239 286.833807 
L 245.59385 286.22024 
L 246.24446 286.185988 
L 246.89507 286.757399 
L 248.196291 286.774114 
L 248.846901 286.030855 
L 249.497511 286.605092 
L 250.148122 285.866417 
L 251.449342 286.389873 
L 252.099953 285.646281 
L 252.750563 286.176989 
L 253.401173 286.0766 
L 254.051784 285.487064 
L 254.702394 285.816633 
L 255.353004 285.747726 
L 256.003615 285.253652 
L 256.654225 286.373507 
L 257.304835 285.821218 
L 257.955445 285.870526 
L 259.256666 285.438715 
L 259.907276 285.455845 
L 260.557887 286.073808 
L 261.208497 286.093491 
L 261.859107 285.518523 
L 262.509718 284.222824 
L 263.160328 285.220674 
L 263.810938 285.687758 
L 264.461549 284.492944 
L 265.112159 285.081157 
L 265.762769 285.108121 
L 266.413379 285.3704 
L 267.06399 285.259247 
L 267.7146 284.830256 
L 268.36521 285.311807 
L 269.015821 284.907142 
L 269.666431 284.131271 
L 270.317041 285.720778 
L 270.967652 284.806262 
L 271.618262 284.466965 
L 272.268872 284.83657 
L 273.570093 284.7506 
L 274.220703 283.797513 
L 274.871314 284.032567 
L 275.521924 283.379942 
L 276.172534 283.674254 
L 276.823144 285.158983 
L 277.473755 283.638001 
L 278.124365 283.537145 
L 278.774975 283.318212 
L 279.425586 283.585122 
L 280.076196 282.117912 
L 280.726806 282.859551 
L 281.377417 282.83809 
L 282.028027 283.470547 
L 282.678637 283.183797 
L 283.329248 283.373559 
L 283.979858 283.682594 
L 284.630468 282.823285 
L 285.281079 282.69205 
L 285.931689 283.629982 
L 286.582299 282.98262 
L 287.232909 282.964119 
L 287.88352 282.309992 
L 288.53413 282.393979 
L 289.18474 283.101494 
L 289.835351 282.220325 
L 290.485961 281.787546 
L 291.136571 283.236282 
L 291.787182 282.61917 
L 292.437792 283.070614 
L 293.088402 282.108754 
L 293.739013 282.292552 
L 294.389623 282.634436 
L 295.040233 282.165624 
L 295.690844 282.786597 
L 296.341454 282.309973 
L 296.992064 282.959369 
L 297.642674 281.617879 
L 298.293285 282.04961 
L 298.943895 282.318152 
L 299.594505 281.637066 
L 300.245116 281.788079 
L 300.895726 281.780596 
L 301.546336 282.042081 
L 302.196947 281.058763 
L 302.847557 281.621153 
L 304.148778 281.490459 
L 304.799388 280.785527 
L 306.100608 281.5942 
L 306.751219 281.211637 
L 307.401829 281.1283 
L 308.052439 281.340789 
L 308.70305 280.740211 
L 309.35366 280.570907 
L 310.00427 281.237973 
L 310.654881 279.963637 
L 311.305491 280.465469 
L 311.956101 280.531766 
L 312.606712 280.36372 
L 313.257322 279.957665 
L 313.907932 281.10196 
L 314.558543 279.514832 
L 315.859763 280.288712 
L 316.510373 280.31627 
L 317.160984 280.192624 
L 317.811594 279.87035 
L 318.462204 280.220223 
L 319.112815 279.539825 
L 320.414035 279.712109 
L 321.064646 279.582334 
L 321.715256 280.829628 
L 322.365866 279.125341 
L 323.016477 279.398044 
L 323.667087 278.76985 
L 324.317697 279.536785 
L 324.968308 279.590852 
L 325.618918 279.380341 
L 326.269528 279.853521 
L 326.920138 278.553274 
L 327.570749 279.257553 
L 328.221359 279.45016 
L 328.871969 278.403325 
L 329.52258 277.742264 
L 330.17319 278.930431 
L 330.8238 278.266522 
L 331.474411 279.709487 
L 332.125021 278.419315 
L 332.775631 279.125568 
L 333.426242 277.475021 
L 334.076852 278.906098 
L 334.727462 278.703457 
L 335.378073 277.600632 
L 336.028683 278.403495 
L 336.679293 277.475795 
L 337.329903 277.88756 
L 337.980514 277.827841 
L 339.281734 279.032979 
L 339.932345 278.774852 
L 340.582955 278.194338 
L 341.233565 278.482818 
L 341.884176 277.356759 
L 342.534786 277.260997 
L 343.185396 277.433042 
L 343.836007 276.468269 
L 344.486617 277.581356 
L 345.137227 276.368173 
L 345.787837 277.861211 
L 346.438448 277.652981 
L 347.089058 277.245763 
L 347.739668 276.994605 
L 349.040889 278.628992 
L 349.691499 276.950016 
L 350.34211 276.795859 
L 350.99272 276.038025 
L 351.64333 276.874057 
L 352.293941 276.059195 
L 352.944551 275.768037 
L 353.595161 276.337575 
L 354.245772 276.724148 
L 354.896382 276.818945 
L 355.546992 276.379894 
L 356.197602 275.709494 
L 356.848213 276.60838 
L 357.498823 276.229227 
L 358.149433 275.546541 
L 358.800044 276.345096 
L 359.450654 275.137049 
L 360.751875 276.203509 
L 361.402485 276.338496 
L 362.053095 275.754575 
L 362.703706 276.315239 
L 363.354316 275.993785 
L 364.004926 274.798396 
L 364.655537 275.594373 
L 365.306147 275.790495 
L 365.956757 275.4094 
L 366.607367 275.623662 
L 368.559198 274.091295 
L 369.209809 275.319005 
L 369.860419 275.610325 
L 370.511029 273.852891 
L 371.16164 274.651446 
L 372.46286 273.938048 
L 373.113471 274.322384 
L 373.764081 274.91914 
L 374.414691 274.069321 
L 375.065302 274.024231 
L 375.715912 273.763103 
L 376.366522 274.29646 
L 377.017132 272.798729 
L 377.667743 273.696763 
L 378.318353 273.953371 
L 378.968963 272.803678 
L 379.619574 273.755448 
L 380.270184 272.757123 
L 380.920794 273.063547 
L 381.571405 272.916134 
L 382.222015 272.36095 
L 382.872625 273.002314 
L 383.523236 271.900958 
L 384.173846 273.736585 
L 384.824456 273.221175 
L 385.475066 272.981099 
L 386.125677 271.620194 
L 386.776287 272.759007 
L 387.426897 273.60592 
L 388.077508 272.722194 
L 388.728118 272.934461 
L 389.378728 272.725456 
L 390.029339 272.160882 
L 390.679949 272.189227 
L 391.330559 271.223097 
L 391.98117 272.150867 
L 392.63178 272.273699 
L 393.28239 271.477026 
L 393.933001 271.658017 
L 394.583611 271.632644 
L 395.234221 271.25717 
L 395.884831 271.354837 
L 396.535442 271.584233 
L 397.836662 270.664058 
L 398.487273 271.246303 
L 398.487273 271.246303 
" clip-path="url(#p718a7f8109)" style="fill: none; stroke: #e24a33; stroke-width: 3; stroke-linecap: square"/>
   </g>
   <g id="patch_3">
    <path d="M 57.6 307.584 
L 57.6 41.472 
" style="fill: none; stroke: #ffffff; stroke-linejoin: miter; stroke-linecap: square"/>
   </g>
   <g id="patch_4">
    <path d="M 414.72 307.584 
L 414.72 41.472 
" style="fill: none; stroke: #ffffff; stroke-linejoin: miter; stroke-linecap: square"/>
   </g>
   <g id="patch_5">
    <path d="M 57.6 307.584 
L 414.72 307.584 
" style="fill: none; stroke: #ffffff; stroke-linejoin: miter; stroke-linecap: square"/>
   </g>
   <g id="patch_6">
    <path d="M 57.6 41.472 
L 414.72 41.472 
" style="fill: none; stroke: #ffffff; stroke-linejoin: miter; stroke-linecap: square"/>
   </g>
   <g id="text_18">
    <!-- Min train loss: 0.61, index: 87 -->
    <g style="fill: #008000" transform="translate(106.363243 140.917655)scale(0.14 -0.14)">
     <defs>
      <path id="DejaVuSans-4d" d="M 628 4666 
L 1569 4666 
L 2759 1491 
L 3956 4666 
L 4897 4666 
L 4897 0 
L 4281 0 
L 4281 4097 
L 3078 897 
L 2444 897 
L 1241 4097 
L 1241 0 
L 628 0 
L 628 4666 
z
" transform="scale(0.015625)"/>
      <path id="DejaVuSans-69" d="M 603 3500 
L 1178 3500 
L 1178 0 
L 603 0 
L 603 3500 
z
M 603 4863 
L 1178 4863 
L 1178 4134 
L 603 4134 
L 603 4863 
z
" transform="scale(0.015625)"/>
      <path id="DejaVuSans-6e" d="M 3513 2113 
L 3513 0 
L 2938 0 
L 2938 2094 
Q 2938 2591 2744 2837 
Q 2550 3084 2163 3084 
Q 1697 3084 1428 2787 
Q 1159 2491 1159 1978 
L 1159 0 
L 581 0 
L 581 3500 
L 1159 3500 
L 1159 2956 
Q 1366 3272 1645 3428 
Q 1925 3584 2291 3584 
Q 2894 3584 3203 3211 
Q 3513 2838 3513 2113 
z
" transform="scale(0.015625)"/>
      <path id="DejaVuSans-20" transform="scale(0.015625)"/>
      <path id="DejaVuSans-74" d="M 1172 4494 
L 1172 3500 
L 2356 3500 
L 2356 3053 
L 1172 3053 
L 1172 1153 
Q 1172 725 1289 603 
Q 1406 481 1766 481 
L 2356 481 
L 2356 0 
L 1766 0 
Q 1100 0 847 248 
Q 594 497 594 1153 
L 594 3053 
L 172 3053 
L 172 3500 
L 594 3500 
L 594 4494 
L 1172 4494 
z
" transform="scale(0.015625)"/>
      <path id="DejaVuSans-72" d="M 2631 2963 
Q 2534 3019 2420 3045 
Q 2306 3072 2169 3072 
Q 1681 3072 1420 2755 
Q 1159 2438 1159 1844 
L 1159 0 
L 581 0 
L 581 3500 
L 1159 3500 
L 1159 2956 
Q 1341 3275 1631 3429 
Q 1922 3584 2338 3584 
Q 2397 3584 2469 3576 
Q 2541 3569 2628 3553 
L 2631 2963 
z
" transform="scale(0.015625)"/>
      <path id="DejaVuSans-61" d="M 2194 1759 
Q 1497 1759 1228 1600 
Q 959 1441 959 1056 
Q 959 750 1161 570 
Q 1363 391 1709 391 
Q 2188 391 2477 730 
Q 2766 1069 2766 1631 
L 2766 1759 
L 2194 1759 
z
M 3341 1997 
L 3341 0 
L 2766 0 
L 2766 531 
Q 2569 213 2275 61 
Q 1981 -91 1556 -91 
Q 1019 -91 701 211 
Q 384 513 384 1019 
Q 384 1609 779 1909 
Q 1175 2209 1959 2209 
L 2766 2209 
L 2766 2266 
Q 2766 2663 2505 2880 
Q 2244 3097 1772 3097 
Q 1472 3097 1187 3025 
Q 903 2953 641 2809 
L 641 3341 
Q 956 3463 1253 3523 
Q 1550 3584 1831 3584 
Q 2591 3584 2966 3190 
Q 3341 2797 3341 1997 
z
" transform="scale(0.015625)"/>
      <path id="DejaVuSans-6c" d="M 603 4863 
L 1178 4863 
L 1178 0 
L 603 0 
L 603 4863 
z
" transform="scale(0.015625)"/>
      <path id="DejaVuSans-3a" d="M 750 794 
L 1409 794 
L 1409 0 
L 750 0 
L 750 794 
z
M 750 3309 
L 1409 3309 
L 1409 2516 
L 750 2516 
L 750 3309 
z
" transform="scale(0.015625)"/>
      <path id="DejaVuSans-2c" d="M 750 794 
L 1409 794 
L 1409 256 
L 897 -744 
L 494 -744 
L 750 256 
L 750 794 
z
" transform="scale(0.015625)"/>
      <path id="DejaVuSans-64" d="M 2906 2969 
L 2906 4863 
L 3481 4863 
L 3481 0 
L 2906 0 
L 2906 525 
Q 2725 213 2448 61 
Q 2172 -91 1784 -91 
Q 1150 -91 751 415 
Q 353 922 353 1747 
Q 353 2572 751 3078 
Q 1150 3584 1784 3584 
Q 2172 3584 2448 3432 
Q 2725 3281 2906 2969 
z
M 947 1747 
Q 947 1113 1208 752 
Q 1469 391 1925 391 
Q 2381 391 2643 752 
Q 2906 1113 2906 1747 
Q 2906 2381 2643 2742 
Q 2381 3103 1925 3103 
Q 1469 3103 1208 2742 
Q 947 2381 947 1747 
z
" transform="scale(0.015625)"/>
      <path id="DejaVuSans-65" d="M 3597 1894 
L 3597 1613 
L 953 1613 
Q 991 1019 1311 708 
Q 1631 397 2203 397 
Q 2534 397 2845 478 
Q 3156 559 3463 722 
L 3463 178 
Q 3153 47 2828 -22 
Q 2503 -91 2169 -91 
Q 1331 -91 842 396 
Q 353 884 353 1716 
Q 353 2575 817 3079 
Q 1281 3584 2069 3584 
Q 2775 3584 3186 3129 
Q 3597 2675 3597 1894 
z
M 3022 2063 
Q 3016 2534 2758 2815 
Q 2500 3097 2075 3097 
Q 1594 3097 1305 2825 
Q 1016 2553 972 2059 
L 3022 2063 
z
" transform="scale(0.015625)"/>
      <path id="DejaVuSans-78" d="M 3513 3500 
L 2247 1797 
L 3578 0 
L 2900 0 
L 1881 1375 
L 863 0 
L 184 0 
L 1544 1831 
L 300 3500 
L 978 3500 
L 1906 2253 
L 2834 3500 
L 3513 3500 
z
" transform="scale(0.015625)"/>
     </defs>
     <use xlink:href="#DejaVuSans-4d"/>
     <use xlink:href="#DejaVuSans-69" x="86.279297"/>
     <use xlink:href="#DejaVuSans-6e" x="114.0625"/>
     <use xlink:href="#DejaVuSans-20" x="177.441406"/>
     <use xlink:href="#DejaVuSans-74" x="209.228516"/>
     <use xlink:href="#DejaVuSans-72" x="248.4375"/>
     <use xlink:href="#DejaVuSans-61" x="289.550781"/>
     <use xlink:href="#DejaVuSans-69" x="350.830078"/>
     <use xlink:href="#DejaVuSans-6e" x="378.613281"/>
     <use xlink:href="#DejaVuSans-20" x="441.992188"/>
     <use xlink:href="#DejaVuSans-6c" x="473.779297"/>
     <use xlink:href="#DejaVuSans-6f" x="501.5625"/>
     <use xlink:href="#DejaVuSans-73" x="562.744141"/>
     <use xlink:href="#DejaVuSans-73" x="614.84375"/>
     <use xlink:href="#DejaVuSans-3a" x="666.943359"/>
     <use xlink:href="#DejaVuSans-20" x="700.634766"/>
     <use xlink:href="#DejaVuSans-30" x="732.421875"/>
     <use xlink:href="#DejaVuSans-2e" x="796.044922"/>
     <use xlink:href="#DejaVuSans-36" x="827.832031"/>
     <use xlink:href="#DejaVuSans-31" x="891.455078"/>
     <use xlink:href="#DejaVuSans-2c" x="955.078125"/>
     <use xlink:href="#DejaVuSans-20" x="986.865234"/>
     <use xlink:href="#DejaVuSans-69" x="1018.652344"/>
     <use xlink:href="#DejaVuSans-6e" x="1046.435547"/>
     <use xlink:href="#DejaVuSans-64" x="1109.814453"/>
     <use xlink:href="#DejaVuSans-65" x="1173.291016"/>
     <use xlink:href="#DejaVuSans-78" x="1233.064453"/>
     <use xlink:href="#DejaVuSans-3a" x="1292.244141"/>
     <use xlink:href="#DejaVuSans-20" x="1325.935547"/>
     <use xlink:href="#DejaVuSans-38" x="1357.722656"/>
     <use xlink:href="#DejaVuSans-37" x="1421.345703"/>
    </g>
   </g>
   <g id="text_19">
    <!-- Train loss -->
    <g transform="translate(189.67875 35.472)scale(0.2 -0.2)">
     <defs>
      <path id="DejaVuSans-54" d="M -19 4666 
L 3928 4666 
L 3928 4134 
L 2272 4134 
L 2272 0 
L 1638 0 
L 1638 4134 
L -19 4134 
L -19 4666 
z
" transform="scale(0.015625)"/>
     </defs>
     <use xlink:href="#DejaVuSans-54"/>
     <use xlink:href="#DejaVuSans-72" x="46.333984"/>
     <use xlink:href="#DejaVuSans-61" x="87.447266"/>
     <use xlink:href="#DejaVuSans-69" x="148.726562"/>
     <use xlink:href="#DejaVuSans-6e" x="176.509766"/>
     <use xlink:href="#DejaVuSans-20" x="239.888672"/>
     <use xlink:href="#DejaVuSans-6c" x="271.675781"/>
     <use xlink:href="#DejaVuSans-6f" x="299.458984"/>
     <use xlink:href="#DejaVuSans-73" x="360.640625"/>
     <use xlink:href="#DejaVuSans-73" x="412.740234"/>
    </g>
   </g>
  </g>
 </g>
 <defs>
  <clipPath id="p718a7f8109">
   <rect x="57.6" y="41.472" width="357.12" height="266.112"/>
  </clipPath>
 </defs>
</svg>
