<?xml version="1.0" encoding="utf-8" standalone="no"?>
<!DOCTYPE svg PUBLIC "-//W3C//DTD SVG 1.1//EN"
  "http://www.w3.org/Graphics/SVG/1.1/DTD/svg11.dtd">
<svg xmlns:xlink="http://www.w3.org/1999/xlink" width="460.8pt" height="345.6pt" viewBox="0 0 460.8 345.6" xmlns="http://www.w3.org/2000/svg" version="1.1">
 <metadata>
  <rdf:RDF xmlns:dc="http://purl.org/dc/elements/1.1/" xmlns:cc="http://creativecommons.org/ns#" xmlns:rdf="http://www.w3.org/1999/02/22-rdf-syntax-ns#">
   <cc:Work>
    <dc:type rdf:resource="http://purl.org/dc/dcmitype/StillImage"/>
    <dc:date>2022-02-20T23:06:15.553492</dc:date>
    <dc:format>image/svg+xml</dc:format>
    <dc:creator>
     <cc:Agent>
      <dc:title>Matplotlib v3.5.1, https://matplotlib.org/</dc:title>
     </cc:Agent>
    </dc:creator>
   </cc:Work>
  </rdf:RDF>
 </metadata>
 <defs>
  <style type="text/css">*{stroke-linejoin: round; stroke-linecap: butt}</style>
 </defs>
 <g id="figure_1">
  <g id="patch_1">
   <path d="M 0 345.6 
L 460.8 345.6 
L 460.8 0 
L 0 0 
z
" style="fill: #ffffff"/>
  </g>
  <g id="axes_1">
   <g id="patch_2">
    <path d="M 57.6 307.584 
L 414.72 307.584 
L 414.72 41.472 
L 57.6 41.472 
z
" style="fill: #e5e5e5"/>
   </g>
   <g id="matplotlib.axis_1">
    <g id="xtick_1">
     <g id="line2d_1">
      <path d="M 73.832727 307.584 
L 73.832727 41.472 
" clip-path="url(#pce4f6ed73a)" style="fill: none; stroke: #ffffff; stroke-width: 0.8; stroke-linecap: square"/>
     </g>
     <g id="line2d_2">
      <defs>
       <path id="mae97d98f02" d="M 0 0 
L 0 3.5 
" style="stroke: #555555; stroke-width: 0.8"/>
      </defs>
      <g>
       <use xlink:href="#mae97d98f02" x="73.832727" y="307.584" style="fill: #555555; stroke: #555555; stroke-width: 0.8"/>
      </g>
     </g>
     <g id="text_1">
      <!-- 0 -->
      <g style="fill: #555555" transform="translate(70.651477 322.182437)scale(0.1 -0.1)">
       <defs>
        <path id="DejaVuSans-30" d="M 2034 4250 
Q 1547 4250 1301 3770 
Q 1056 3291 1056 2328 
Q 1056 1369 1301 889 
Q 1547 409 2034 409 
Q 2525 409 2770 889 
Q 3016 1369 3016 2328 
Q 3016 3291 2770 3770 
Q 2525 4250 2034 4250 
z
M 2034 4750 
Q 2819 4750 3233 4129 
Q 3647 3509 3647 2328 
Q 3647 1150 3233 529 
Q 2819 -91 2034 -91 
Q 1250 -91 836 529 
Q 422 1150 422 2328 
Q 422 3509 836 4129 
Q 1250 4750 2034 4750 
z
" transform="scale(0.015625)"/>
       </defs>
       <use xlink:href="#DejaVuSans-30"/>
      </g>
     </g>
    </g>
    <g id="xtick_2">
     <g id="line2d_3">
      <path d="M 138.893758 307.584 
L 138.893758 41.472 
" clip-path="url(#pce4f6ed73a)" style="fill: none; stroke: #ffffff; stroke-width: 0.8; stroke-linecap: square"/>
     </g>
     <g id="line2d_4">
      <g>
       <use xlink:href="#mae97d98f02" x="138.893758" y="307.584" style="fill: #555555; stroke: #555555; stroke-width: 0.8"/>
      </g>
     </g>
     <g id="text_2">
      <!-- 100 -->
      <g style="fill: #555555" transform="translate(129.350008 322.182437)scale(0.1 -0.1)">
       <defs>
        <path id="DejaVuSans-31" d="M 794 531 
L 1825 531 
L 1825 4091 
L 703 3866 
L 703 4441 
L 1819 4666 
L 2450 4666 
L 2450 531 
L 3481 531 
L 3481 0 
L 794 0 
L 794 531 
z
" transform="scale(0.015625)"/>
       </defs>
       <use xlink:href="#DejaVuSans-31"/>
       <use xlink:href="#DejaVuSans-30" x="63.623047"/>
       <use xlink:href="#DejaVuSans-30" x="127.246094"/>
      </g>
     </g>
    </g>
    <g id="xtick_3">
     <g id="line2d_5">
      <path d="M 203.95479 307.584 
L 203.95479 41.472 
" clip-path="url(#pce4f6ed73a)" style="fill: none; stroke: #ffffff; stroke-width: 0.8; stroke-linecap: square"/>
     </g>
     <g id="line2d_6">
      <g>
       <use xlink:href="#mae97d98f02" x="203.95479" y="307.584" style="fill: #555555; stroke: #555555; stroke-width: 0.8"/>
      </g>
     </g>
     <g id="text_3">
      <!-- 200 -->
      <g style="fill: #555555" transform="translate(194.41104 322.182437)scale(0.1 -0.1)">
       <defs>
        <path id="DejaVuSans-32" d="M 1228 531 
L 3431 531 
L 3431 0 
L 469 0 
L 469 531 
Q 828 903 1448 1529 
Q 2069 2156 2228 2338 
Q 2531 2678 2651 2914 
Q 2772 3150 2772 3378 
Q 2772 3750 2511 3984 
Q 2250 4219 1831 4219 
Q 1534 4219 1204 4116 
Q 875 4013 500 3803 
L 500 4441 
Q 881 4594 1212 4672 
Q 1544 4750 1819 4750 
Q 2544 4750 2975 4387 
Q 3406 4025 3406 3419 
Q 3406 3131 3298 2873 
Q 3191 2616 2906 2266 
Q 2828 2175 2409 1742 
Q 1991 1309 1228 531 
z
" transform="scale(0.015625)"/>
       </defs>
       <use xlink:href="#DejaVuSans-32"/>
       <use xlink:href="#DejaVuSans-30" x="63.623047"/>
       <use xlink:href="#DejaVuSans-30" x="127.246094"/>
      </g>
     </g>
    </g>
    <g id="xtick_4">
     <g id="line2d_7">
      <path d="M 269.015821 307.584 
L 269.015821 41.472 
" clip-path="url(#pce4f6ed73a)" style="fill: none; stroke: #ffffff; stroke-width: 0.8; stroke-linecap: square"/>
     </g>
     <g id="line2d_8">
      <g>
       <use xlink:href="#mae97d98f02" x="269.015821" y="307.584" style="fill: #555555; stroke: #555555; stroke-width: 0.8"/>
      </g>
     </g>
     <g id="text_4">
      <!-- 300 -->
      <g style="fill: #555555" transform="translate(259.472071 322.182437)scale(0.1 -0.1)">
       <defs>
        <path id="DejaVuSans-33" d="M 2597 2516 
Q 3050 2419 3304 2112 
Q 3559 1806 3559 1356 
Q 3559 666 3084 287 
Q 2609 -91 1734 -91 
Q 1441 -91 1130 -33 
Q 819 25 488 141 
L 488 750 
Q 750 597 1062 519 
Q 1375 441 1716 441 
Q 2309 441 2620 675 
Q 2931 909 2931 1356 
Q 2931 1769 2642 2001 
Q 2353 2234 1838 2234 
L 1294 2234 
L 1294 2753 
L 1863 2753 
Q 2328 2753 2575 2939 
Q 2822 3125 2822 3475 
Q 2822 3834 2567 4026 
Q 2313 4219 1838 4219 
Q 1578 4219 1281 4162 
Q 984 4106 628 3988 
L 628 4550 
Q 988 4650 1302 4700 
Q 1616 4750 1894 4750 
Q 2613 4750 3031 4423 
Q 3450 4097 3450 3541 
Q 3450 3153 3228 2886 
Q 3006 2619 2597 2516 
z
" transform="scale(0.015625)"/>
       </defs>
       <use xlink:href="#DejaVuSans-33"/>
       <use xlink:href="#DejaVuSans-30" x="63.623047"/>
       <use xlink:href="#DejaVuSans-30" x="127.246094"/>
      </g>
     </g>
    </g>
    <g id="xtick_5">
     <g id="line2d_9">
      <path d="M 334.076852 307.584 
L 334.076852 41.472 
" clip-path="url(#pce4f6ed73a)" style="fill: none; stroke: #ffffff; stroke-width: 0.8; stroke-linecap: square"/>
     </g>
     <g id="line2d_10">
      <g>
       <use xlink:href="#mae97d98f02" x="334.076852" y="307.584" style="fill: #555555; stroke: #555555; stroke-width: 0.8"/>
      </g>
     </g>
     <g id="text_5">
      <!-- 400 -->
      <g style="fill: #555555" transform="translate(324.533102 322.182437)scale(0.1 -0.1)">
       <defs>
        <path id="DejaVuSans-34" d="M 2419 4116 
L 825 1625 
L 2419 1625 
L 2419 4116 
z
M 2253 4666 
L 3047 4666 
L 3047 1625 
L 3713 1625 
L 3713 1100 
L 3047 1100 
L 3047 0 
L 2419 0 
L 2419 1100 
L 313 1100 
L 313 1709 
L 2253 4666 
z
" transform="scale(0.015625)"/>
       </defs>
       <use xlink:href="#DejaVuSans-34"/>
       <use xlink:href="#DejaVuSans-30" x="63.623047"/>
       <use xlink:href="#DejaVuSans-30" x="127.246094"/>
      </g>
     </g>
    </g>
    <g id="xtick_6">
     <g id="line2d_11">
      <path d="M 399.137883 307.584 
L 399.137883 41.472 
" clip-path="url(#pce4f6ed73a)" style="fill: none; stroke: #ffffff; stroke-width: 0.8; stroke-linecap: square"/>
     </g>
     <g id="line2d_12">
      <g>
       <use xlink:href="#mae97d98f02" x="399.137883" y="307.584" style="fill: #555555; stroke: #555555; stroke-width: 0.8"/>
      </g>
     </g>
     <g id="text_6">
      <!-- 500 -->
      <g style="fill: #555555" transform="translate(389.594133 322.182437)scale(0.1 -0.1)">
       <defs>
        <path id="DejaVuSans-35" d="M 691 4666 
L 3169 4666 
L 3169 4134 
L 1269 4134 
L 1269 2991 
Q 1406 3038 1543 3061 
Q 1681 3084 1819 3084 
Q 2600 3084 3056 2656 
Q 3513 2228 3513 1497 
Q 3513 744 3044 326 
Q 2575 -91 1722 -91 
Q 1428 -91 1123 -41 
Q 819 9 494 109 
L 494 744 
Q 775 591 1075 516 
Q 1375 441 1709 441 
Q 2250 441 2565 725 
Q 2881 1009 2881 1497 
Q 2881 1984 2565 2268 
Q 2250 2553 1709 2553 
Q 1456 2553 1204 2497 
Q 953 2441 691 2322 
L 691 4666 
z
" transform="scale(0.015625)"/>
       </defs>
       <use xlink:href="#DejaVuSans-35"/>
       <use xlink:href="#DejaVuSans-30" x="63.623047"/>
       <use xlink:href="#DejaVuSans-30" x="127.246094"/>
      </g>
     </g>
    </g>
    <g id="text_7">
     <!-- Epoch -->
     <g style="fill: #555555" transform="translate(205.538125 343.459)scale(0.2 -0.2)">
      <defs>
       <path id="DejaVuSans-45" d="M 628 4666 
L 3578 4666 
L 3578 4134 
L 1259 4134 
L 1259 2753 
L 3481 2753 
L 3481 2222 
L 1259 2222 
L 1259 531 
L 3634 531 
L 3634 0 
L 628 0 
L 628 4666 
z
" transform="scale(0.015625)"/>
       <path id="DejaVuSans-70" d="M 1159 525 
L 1159 -1331 
L 581 -1331 
L 581 3500 
L 1159 3500 
L 1159 2969 
Q 1341 3281 1617 3432 
Q 1894 3584 2278 3584 
Q 2916 3584 3314 3078 
Q 3713 2572 3713 1747 
Q 3713 922 3314 415 
Q 2916 -91 2278 -91 
Q 1894 -91 1617 61 
Q 1341 213 1159 525 
z
M 3116 1747 
Q 3116 2381 2855 2742 
Q 2594 3103 2138 3103 
Q 1681 3103 1420 2742 
Q 1159 2381 1159 1747 
Q 1159 1113 1420 752 
Q 1681 391 2138 391 
Q 2594 391 2855 752 
Q 3116 1113 3116 1747 
z
" transform="scale(0.015625)"/>
       <path id="DejaVuSans-6f" d="M 1959 3097 
Q 1497 3097 1228 2736 
Q 959 2375 959 1747 
Q 959 1119 1226 758 
Q 1494 397 1959 397 
Q 2419 397 2687 759 
Q 2956 1122 2956 1747 
Q 2956 2369 2687 2733 
Q 2419 3097 1959 3097 
z
M 1959 3584 
Q 2709 3584 3137 3096 
Q 3566 2609 3566 1747 
Q 3566 888 3137 398 
Q 2709 -91 1959 -91 
Q 1206 -91 779 398 
Q 353 888 353 1747 
Q 353 2609 779 3096 
Q 1206 3584 1959 3584 
z
" transform="scale(0.015625)"/>
       <path id="DejaVuSans-63" d="M 3122 3366 
L 3122 2828 
Q 2878 2963 2633 3030 
Q 2388 3097 2138 3097 
Q 1578 3097 1268 2742 
Q 959 2388 959 1747 
Q 959 1106 1268 751 
Q 1578 397 2138 397 
Q 2388 397 2633 464 
Q 2878 531 3122 666 
L 3122 134 
Q 2881 22 2623 -34 
Q 2366 -91 2075 -91 
Q 1284 -91 818 406 
Q 353 903 353 1747 
Q 353 2603 823 3093 
Q 1294 3584 2113 3584 
Q 2378 3584 2631 3529 
Q 2884 3475 3122 3366 
z
" transform="scale(0.015625)"/>
       <path id="DejaVuSans-68" d="M 3513 2113 
L 3513 0 
L 2938 0 
L 2938 2094 
Q 2938 2591 2744 2837 
Q 2550 3084 2163 3084 
Q 1697 3084 1428 2787 
Q 1159 2491 1159 1978 
L 1159 0 
L 581 0 
L 581 4863 
L 1159 4863 
L 1159 2956 
Q 1366 3272 1645 3428 
Q 1925 3584 2291 3584 
Q 2894 3584 3203 3211 
Q 3513 2838 3513 2113 
z
" transform="scale(0.015625)"/>
      </defs>
      <use xlink:href="#DejaVuSans-45"/>
      <use xlink:href="#DejaVuSans-70" x="63.183594"/>
      <use xlink:href="#DejaVuSans-6f" x="126.660156"/>
      <use xlink:href="#DejaVuSans-63" x="187.841797"/>
      <use xlink:href="#DejaVuSans-68" x="242.822266"/>
     </g>
    </g>
   </g>
   <g id="matplotlib.axis_2">
    <g id="ytick_1">
     <g id="line2d_13">
      <path d="M 57.6 283.766314 
L 414.72 283.766314 
" clip-path="url(#pce4f6ed73a)" style="fill: none; stroke: #ffffff; stroke-width: 0.8; stroke-linecap: square"/>
     </g>
     <g id="line2d_14">
      <defs>
       <path id="ma62288fd7e" d="M 0 0 
L -3.5 0 
" style="stroke: #555555; stroke-width: 0.8"/>
      </defs>
      <g>
       <use xlink:href="#ma62288fd7e" x="57.6" y="283.766314" style="fill: #555555; stroke: #555555; stroke-width: 0.8"/>
      </g>
     </g>
     <g id="text_8">
      <!-- 0.45 -->
      <g style="fill: #555555" transform="translate(28.334375 287.565533)scale(0.1 -0.1)">
       <defs>
        <path id="DejaVuSans-2e" d="M 684 794 
L 1344 794 
L 1344 0 
L 684 0 
L 684 794 
z
" transform="scale(0.015625)"/>
       </defs>
       <use xlink:href="#DejaVuSans-30"/>
       <use xlink:href="#DejaVuSans-2e" x="63.623047"/>
       <use xlink:href="#DejaVuSans-34" x="95.410156"/>
       <use xlink:href="#DejaVuSans-35" x="159.033203"/>
      </g>
     </g>
    </g>
    <g id="ytick_2">
     <g id="line2d_15">
      <path d="M 57.6 249.513322 
L 414.72 249.513322 
" clip-path="url(#pce4f6ed73a)" style="fill: none; stroke: #ffffff; stroke-width: 0.8; stroke-linecap: square"/>
     </g>
     <g id="line2d_16">
      <g>
       <use xlink:href="#ma62288fd7e" x="57.6" y="249.513322" style="fill: #555555; stroke: #555555; stroke-width: 0.8"/>
      </g>
     </g>
     <g id="text_9">
      <!-- 0.50 -->
      <g style="fill: #555555" transform="translate(28.334375 253.31254)scale(0.1 -0.1)">
       <use xlink:href="#DejaVuSans-30"/>
       <use xlink:href="#DejaVuSans-2e" x="63.623047"/>
       <use xlink:href="#DejaVuSans-35" x="95.410156"/>
       <use xlink:href="#DejaVuSans-30" x="159.033203"/>
      </g>
     </g>
    </g>
    <g id="ytick_3">
     <g id="line2d_17">
      <path d="M 57.6 215.260329 
L 414.72 215.260329 
" clip-path="url(#pce4f6ed73a)" style="fill: none; stroke: #ffffff; stroke-width: 0.8; stroke-linecap: square"/>
     </g>
     <g id="line2d_18">
      <g>
       <use xlink:href="#ma62288fd7e" x="57.6" y="215.260329" style="fill: #555555; stroke: #555555; stroke-width: 0.8"/>
      </g>
     </g>
     <g id="text_10">
      <!-- 0.55 -->
      <g style="fill: #555555" transform="translate(28.334375 219.059548)scale(0.1 -0.1)">
       <use xlink:href="#DejaVuSans-30"/>
       <use xlink:href="#DejaVuSans-2e" x="63.623047"/>
       <use xlink:href="#DejaVuSans-35" x="95.410156"/>
       <use xlink:href="#DejaVuSans-35" x="159.033203"/>
      </g>
     </g>
    </g>
    <g id="ytick_4">
     <g id="line2d_19">
      <path d="M 57.6 181.007337 
L 414.72 181.007337 
" clip-path="url(#pce4f6ed73a)" style="fill: none; stroke: #ffffff; stroke-width: 0.8; stroke-linecap: square"/>
     </g>
     <g id="line2d_20">
      <g>
       <use xlink:href="#ma62288fd7e" x="57.6" y="181.007337" style="fill: #555555; stroke: #555555; stroke-width: 0.8"/>
      </g>
     </g>
     <g id="text_11">
      <!-- 0.60 -->
      <g style="fill: #555555" transform="translate(28.334375 184.806555)scale(0.1 -0.1)">
       <defs>
        <path id="DejaVuSans-36" d="M 2113 2584 
Q 1688 2584 1439 2293 
Q 1191 2003 1191 1497 
Q 1191 994 1439 701 
Q 1688 409 2113 409 
Q 2538 409 2786 701 
Q 3034 994 3034 1497 
Q 3034 2003 2786 2293 
Q 2538 2584 2113 2584 
z
M 3366 4563 
L 3366 3988 
Q 3128 4100 2886 4159 
Q 2644 4219 2406 4219 
Q 1781 4219 1451 3797 
Q 1122 3375 1075 2522 
Q 1259 2794 1537 2939 
Q 1816 3084 2150 3084 
Q 2853 3084 3261 2657 
Q 3669 2231 3669 1497 
Q 3669 778 3244 343 
Q 2819 -91 2113 -91 
Q 1303 -91 875 529 
Q 447 1150 447 2328 
Q 447 3434 972 4092 
Q 1497 4750 2381 4750 
Q 2619 4750 2861 4703 
Q 3103 4656 3366 4563 
z
" transform="scale(0.015625)"/>
       </defs>
       <use xlink:href="#DejaVuSans-30"/>
       <use xlink:href="#DejaVuSans-2e" x="63.623047"/>
       <use xlink:href="#DejaVuSans-36" x="95.410156"/>
       <use xlink:href="#DejaVuSans-30" x="159.033203"/>
      </g>
     </g>
    </g>
    <g id="ytick_5">
     <g id="line2d_21">
      <path d="M 57.6 146.754344 
L 414.72 146.754344 
" clip-path="url(#pce4f6ed73a)" style="fill: none; stroke: #ffffff; stroke-width: 0.8; stroke-linecap: square"/>
     </g>
     <g id="line2d_22">
      <g>
       <use xlink:href="#ma62288fd7e" x="57.6" y="146.754344" style="fill: #555555; stroke: #555555; stroke-width: 0.8"/>
      </g>
     </g>
     <g id="text_12">
      <!-- 0.65 -->
      <g style="fill: #555555" transform="translate(28.334375 150.553563)scale(0.1 -0.1)">
       <use xlink:href="#DejaVuSans-30"/>
       <use xlink:href="#DejaVuSans-2e" x="63.623047"/>
       <use xlink:href="#DejaVuSans-36" x="95.410156"/>
       <use xlink:href="#DejaVuSans-35" x="159.033203"/>
      </g>
     </g>
    </g>
    <g id="ytick_6">
     <g id="line2d_23">
      <path d="M 57.6 112.501351 
L 414.72 112.501351 
" clip-path="url(#pce4f6ed73a)" style="fill: none; stroke: #ffffff; stroke-width: 0.8; stroke-linecap: square"/>
     </g>
     <g id="line2d_24">
      <g>
       <use xlink:href="#ma62288fd7e" x="57.6" y="112.501351" style="fill: #555555; stroke: #555555; stroke-width: 0.8"/>
      </g>
     </g>
     <g id="text_13">
      <!-- 0.70 -->
      <g style="fill: #555555" transform="translate(28.334375 116.30057)scale(0.1 -0.1)">
       <defs>
        <path id="DejaVuSans-37" d="M 525 4666 
L 3525 4666 
L 3525 4397 
L 1831 0 
L 1172 0 
L 2766 4134 
L 525 4134 
L 525 4666 
z
" transform="scale(0.015625)"/>
       </defs>
       <use xlink:href="#DejaVuSans-30"/>
       <use xlink:href="#DejaVuSans-2e" x="63.623047"/>
       <use xlink:href="#DejaVuSans-37" x="95.410156"/>
       <use xlink:href="#DejaVuSans-30" x="159.033203"/>
      </g>
     </g>
    </g>
    <g id="ytick_7">
     <g id="line2d_25">
      <path d="M 57.6 78.248359 
L 414.72 78.248359 
" clip-path="url(#pce4f6ed73a)" style="fill: none; stroke: #ffffff; stroke-width: 0.8; stroke-linecap: square"/>
     </g>
     <g id="line2d_26">
      <g>
       <use xlink:href="#ma62288fd7e" x="57.6" y="78.248359" style="fill: #555555; stroke: #555555; stroke-width: 0.8"/>
      </g>
     </g>
     <g id="text_14">
      <!-- 0.75 -->
      <g style="fill: #555555" transform="translate(28.334375 82.047578)scale(0.1 -0.1)">
       <use xlink:href="#DejaVuSans-30"/>
       <use xlink:href="#DejaVuSans-2e" x="63.623047"/>
       <use xlink:href="#DejaVuSans-37" x="95.410156"/>
       <use xlink:href="#DejaVuSans-35" x="159.033203"/>
      </g>
     </g>
    </g>
    <g id="ytick_8">
     <g id="line2d_27">
      <path d="M 57.6 43.995366 
L 414.72 43.995366 
" clip-path="url(#pce4f6ed73a)" style="fill: none; stroke: #ffffff; stroke-width: 0.8; stroke-linecap: square"/>
     </g>
     <g id="line2d_28">
      <g>
       <use xlink:href="#ma62288fd7e" x="57.6" y="43.995366" style="fill: #555555; stroke: #555555; stroke-width: 0.8"/>
      </g>
     </g>
     <g id="text_15">
      <!-- 0.80 -->
      <g style="fill: #555555" transform="translate(28.334375 47.794585)scale(0.1 -0.1)">
       <defs>
        <path id="DejaVuSans-38" d="M 2034 2216 
Q 1584 2216 1326 1975 
Q 1069 1734 1069 1313 
Q 1069 891 1326 650 
Q 1584 409 2034 409 
Q 2484 409 2743 651 
Q 3003 894 3003 1313 
Q 3003 1734 2745 1975 
Q 2488 2216 2034 2216 
z
M 1403 2484 
Q 997 2584 770 2862 
Q 544 3141 544 3541 
Q 544 4100 942 4425 
Q 1341 4750 2034 4750 
Q 2731 4750 3128 4425 
Q 3525 4100 3525 3541 
Q 3525 3141 3298 2862 
Q 3072 2584 2669 2484 
Q 3125 2378 3379 2068 
Q 3634 1759 3634 1313 
Q 3634 634 3220 271 
Q 2806 -91 2034 -91 
Q 1263 -91 848 271 
Q 434 634 434 1313 
Q 434 1759 690 2068 
Q 947 2378 1403 2484 
z
M 1172 3481 
Q 1172 3119 1398 2916 
Q 1625 2713 2034 2713 
Q 2441 2713 2670 2916 
Q 2900 3119 2900 3481 
Q 2900 3844 2670 4047 
Q 2441 4250 2034 4250 
Q 1625 4250 1398 4047 
Q 1172 3844 1172 3481 
z
" transform="scale(0.015625)"/>
       </defs>
       <use xlink:href="#DejaVuSans-30"/>
       <use xlink:href="#DejaVuSans-2e" x="63.623047"/>
       <use xlink:href="#DejaVuSans-38" x="95.410156"/>
       <use xlink:href="#DejaVuSans-30" x="159.033203"/>
      </g>
     </g>
    </g>
    <g id="text_16">
     <!-- Accuracy -->
     <g style="fill: #555555" transform="translate(20.175 220.18425)rotate(-90)scale(0.2 -0.2)">
      <defs>
       <path id="DejaVuSans-41" d="M 2188 4044 
L 1331 1722 
L 3047 1722 
L 2188 4044 
z
M 1831 4666 
L 2547 4666 
L 4325 0 
L 3669 0 
L 3244 1197 
L 1141 1197 
L 716 0 
L 50 0 
L 1831 4666 
z
" transform="scale(0.015625)"/>
       <path id="DejaVuSans-75" d="M 544 1381 
L 544 3500 
L 1119 3500 
L 1119 1403 
Q 1119 906 1312 657 
Q 1506 409 1894 409 
Q 2359 409 2629 706 
Q 2900 1003 2900 1516 
L 2900 3500 
L 3475 3500 
L 3475 0 
L 2900 0 
L 2900 538 
Q 2691 219 2414 64 
Q 2138 -91 1772 -91 
Q 1169 -91 856 284 
Q 544 659 544 1381 
z
M 1991 3584 
L 1991 3584 
z
" transform="scale(0.015625)"/>
       <path id="DejaVuSans-72" d="M 2631 2963 
Q 2534 3019 2420 3045 
Q 2306 3072 2169 3072 
Q 1681 3072 1420 2755 
Q 1159 2438 1159 1844 
L 1159 0 
L 581 0 
L 581 3500 
L 1159 3500 
L 1159 2956 
Q 1341 3275 1631 3429 
Q 1922 3584 2338 3584 
Q 2397 3584 2469 3576 
Q 2541 3569 2628 3553 
L 2631 2963 
z
" transform="scale(0.015625)"/>
       <path id="DejaVuSans-61" d="M 2194 1759 
Q 1497 1759 1228 1600 
Q 959 1441 959 1056 
Q 959 750 1161 570 
Q 1363 391 1709 391 
Q 2188 391 2477 730 
Q 2766 1069 2766 1631 
L 2766 1759 
L 2194 1759 
z
M 3341 1997 
L 3341 0 
L 2766 0 
L 2766 531 
Q 2569 213 2275 61 
Q 1981 -91 1556 -91 
Q 1019 -91 701 211 
Q 384 513 384 1019 
Q 384 1609 779 1909 
Q 1175 2209 1959 2209 
L 2766 2209 
L 2766 2266 
Q 2766 2663 2505 2880 
Q 2244 3097 1772 3097 
Q 1472 3097 1187 3025 
Q 903 2953 641 2809 
L 641 3341 
Q 956 3463 1253 3523 
Q 1550 3584 1831 3584 
Q 2591 3584 2966 3190 
Q 3341 2797 3341 1997 
z
" transform="scale(0.015625)"/>
       <path id="DejaVuSans-79" d="M 2059 -325 
Q 1816 -950 1584 -1140 
Q 1353 -1331 966 -1331 
L 506 -1331 
L 506 -850 
L 844 -850 
Q 1081 -850 1212 -737 
Q 1344 -625 1503 -206 
L 1606 56 
L 191 3500 
L 800 3500 
L 1894 763 
L 2988 3500 
L 3597 3500 
L 2059 -325 
z
" transform="scale(0.015625)"/>
      </defs>
      <use xlink:href="#DejaVuSans-41"/>
      <use xlink:href="#DejaVuSans-63" x="66.658203"/>
      <use xlink:href="#DejaVuSans-63" x="121.638672"/>
      <use xlink:href="#DejaVuSans-75" x="176.619141"/>
      <use xlink:href="#DejaVuSans-72" x="239.998047"/>
      <use xlink:href="#DejaVuSans-61" x="281.111328"/>
      <use xlink:href="#DejaVuSans-63" x="342.390625"/>
      <use xlink:href="#DejaVuSans-79" x="397.371094"/>
     </g>
    </g>
   </g>
   <g id="line2d_29">
    <path d="M 73.832727 295.488 
L 74.483338 232.747142 
L 75.133948 198.34295 
L 75.784558 176.971419 
L 76.435169 160.374148 
L 77.736389 137.291097 
L 78.386999 128.641794 
L 79.68822 114.984987 
L 80.33883 110.932998 
L 80.989441 105.269198 
L 82.290661 97.790937 
L 82.941272 95.059577 
L 83.591882 92.960394 
L 84.242492 89.873532 
L 86.194323 83.513223 
L 86.844934 81.455853 
L 87.495544 80.592057 
L 88.796764 77.662834 
L 89.447375 75.724507 
L 90.097985 75.58617 
L 90.748595 73.987237 
L 92.049816 72.547564 
L 93.351037 70.223184 
L 94.001647 69.325595 
L 95.302868 68.283237 
L 95.953478 67.219968 
L 96.604088 66.624798 
L 98.555919 65.297722 
L 99.206529 64.702552 
L 99.85714 64.292366 
L 100.50775 63.496124 
L 101.15836 63.787265 
L 101.808971 62.585672 
L 102.459581 62.920255 
L 103.110191 62.226952 
L 103.760802 62.48593 
L 104.411412 61.134729 
L 105.062022 61.330983 
L 105.712633 61.001226 
L 106.363243 60.486476 
L 107.013853 60.272533 
L 107.664463 60.343309 
L 108.315074 60.26128 
L 108.965684 59.249485 
L 109.616294 58.858605 
L 110.266905 59.135268 
L 112.218736 58.530453 
L 112.869346 58.047875 
L 113.519956 58.269854 
L 115.471787 57.835545 
L 116.122398 57.275765 
L 116.773008 57.158338 
L 117.423618 56.498828 
L 118.074228 56.447342 
L 118.724839 56.637157 
L 119.375449 56.415178 
L 120.026059 56.352442 
L 120.67667 56.807666 
L 121.32728 56.0452 
L 121.97789 55.598012 
L 122.628501 55.549756 
L 123.279111 56.095065 
L 123.929721 56.003375 
L 124.580332 55.561026 
L 125.230942 55.256998 
L 125.881552 55.766913 
L 126.532163 55.670405 
L 127.182773 55.092928 
L 127.833383 54.927245 
L 128.483993 55.163707 
L 129.134604 55.228043 
L 129.785214 55.626979 
L 130.435824 54.864505 
L 131.086435 55.686489 
L 131.737045 55.067183 
L 132.387655 54.648953 
L 133.038266 54.793726 
L 133.688876 54.447889 
L 134.339486 54.674698 
L 134.990097 55.374433 
L 135.640707 54.64574 
L 136.291317 55.051107 
L 136.941927 54.644135 
L 137.592538 54.375496 
L 138.893758 54.542788 
L 139.544369 54.048965 
L 140.194979 53.761025 
L 140.845589 54.647357 
L 141.4962 54.369065 
L 142.14681 54.713297 
L 142.79742 54.694 
L 143.448031 53.678987 
L 144.098641 54.222684 
L 145.399862 54.028046 
L 146.050472 53.568 
L 146.701082 54.40285 
L 147.351692 54.248425 
L 148.002303 53.78677 
L 148.652913 54.322418 
L 149.303523 54.375504 
L 149.954134 54.058614 
L 150.604744 54.336893 
L 151.255354 54.074698 
L 151.905965 54.648953 
L 152.556575 53.904188 
L 153.207185 54.037699 
L 153.857796 53.981399 
L 155.159016 54.343332 
L 155.809627 53.804454 
L 157.110847 54.237163 
L 157.761457 53.909015 
L 158.412068 53.799632 
L 159.062678 54.278984 
L 159.713288 54.352985 
L 160.363899 53.962097 
L 161.014509 54.460755 
L 161.665119 53.809281 
L 163.61695 54.224293 
L 164.267561 54.578182 
L 165.568781 53.722429 
L 166.219392 54.40606 
L 166.870002 53.627514 
L 167.520612 54.324022 
L 168.171222 54.304721 
L 168.821833 54.592661 
L 169.472443 54.085955 
L 170.123053 54.954582 
L 170.773664 53.900971 
L 171.424274 54.108487 
L 172.074884 54.993198 
L 172.725495 54.240389 
L 173.376105 54.35459 
L 174.026715 53.849497 
L 175.978546 54.658606 
L 176.629156 54.053787 
L 177.279767 54.719737 
L 177.930377 54.917588 
L 178.580987 53.95888 
L 179.231598 54.8629 
L 179.882208 55.158872 
L 180.532818 55.049494 
L 181.183429 54.663428 
L 181.834039 54.824289 
L 182.484649 54.336893 
L 183.13526 54.468799 
L 183.78587 54.809814 
L 184.43648 54.676303 
L 185.087091 54.365847 
L 185.737701 53.786766 
L 186.388311 54.833938 
L 187.038921 54.521886 
L 188.340142 54.85003 
L 188.990752 54.726172 
L 190.291973 55.057538 
L 190.942583 54.841994 
L 191.593194 54.996411 
L 192.243804 54.542788 
L 193.545025 55.355123 
L 194.846245 54.509011 
L 196.147466 55.335821 
L 196.798076 54.851631 
L 197.448686 54.811423 
L 198.099297 55.554583 
L 198.749907 55.036619 
L 199.400517 54.690778 
L 200.051128 54.957804 
L 200.701738 54.924023 
L 201.352348 54.68596 
L 202.002959 55.213568 
L 202.653569 55.361558 
L 203.304179 54.827507 
L 203.95479 55.46611 
L 204.6054 55.166917 
L 205.25601 55.160481 
L 205.906621 54.53797 
L 206.557231 54.620003 
L 207.207841 55.28113 
L 207.858451 54.708475 
L 208.509062 55.102576 
L 209.159672 55.236087 
L 209.810282 55.04628 
L 211.111503 55.347083 
L 211.762113 54.845199 
L 212.412724 54.891851 
L 213.063334 55.149232 
L 213.713944 54.721345 
L 214.364555 55.506327 
L 215.015165 55.396948 
L 215.665775 54.639308 
L 216.316385 54.660223 
L 216.966996 55.478973 
L 217.617606 54.919201 
L 218.268216 54.555667 
L 218.918827 55.112229 
L 219.569437 55.308471 
L 220.870658 55.385686 
L 221.521268 54.787294 
L 222.171878 54.759953 
L 222.822489 55.129922 
L 223.473099 55.134744 
L 224.123709 55.477372 
L 224.77432 55.334208 
L 225.42493 54.774424 
L 226.07554 55.55297 
L 226.72615 54.682738 
L 227.376761 55.02537 
L 228.027371 55.557804 
L 228.677981 55.734745 
L 229.328592 55.268259 
L 229.979202 55.694529 
L 230.629812 55.084884 
L 231.280423 54.999621 
L 231.931033 56.226976 
L 232.581643 55.438769 
L 234.533474 55.094532 
L 235.834695 55.490234 
L 236.485305 55.884344 
L 237.135915 55.38569 
L 237.786526 55.873082 
L 238.437136 54.896677 
L 239.087746 55.609274 
L 241.039577 54.769602 
L 241.690188 55.268251 
L 242.340798 55.578711 
L 242.991408 56.061284 
L 243.642019 55.723483 
L 244.292629 55.675231 
L 244.943239 56.194799 
L 245.59385 55.966385 
L 246.24446 55.969599 
L 246.89507 55.207133 
L 247.54568 55.631797 
L 248.846901 55.963159 
L 249.497511 55.689698 
L 250.148122 56.075764 
L 251.449342 55.654313 
L 252.099953 56.13689 
L 252.750563 55.902037 
L 253.401173 55.837684 
L 254.051784 56.210879 
L 254.702394 55.709 
L 255.353004 55.84895 
L 256.003615 56.317053 
L 256.654225 55.088101 
L 257.304835 55.818391 
L 257.955445 55.654313 
L 258.606056 55.860212 
L 259.907276 55.700964 
L 260.557887 55.95351 
L 261.208497 55.800698 
L 261.859107 55.836088 
L 262.509718 56.519726 
L 263.160328 56.331528 
L 264.461549 56.415178 
L 265.112159 55.932596 
L 265.762769 56.180316 
L 266.413379 55.672009 
L 267.06399 55.967994 
L 267.7146 57.016783 
L 268.36521 56.431262 
L 269.015821 56.471474 
L 269.666431 56.022681 
L 270.317041 55.939039 
L 270.967652 56.54064 
L 272.268872 56.090243 
L 272.919483 55.607669 
L 274.220703 57.024827 
L 274.871314 56.415174 
L 275.521924 57.406054 
L 276.172534 57.386752 
L 276.823144 56.109536 
L 277.473755 56.831794 
L 278.124365 56.83019 
L 278.774975 57.230726 
L 279.425586 56.640379 
L 280.076196 57.283805 
L 280.726806 57.304715 
L 281.377417 56.71115 
L 282.028027 56.992647 
L 282.678637 56.786756 
L 283.329248 56.410339 
L 283.979858 56.493989 
L 284.630468 57.386752 
L 285.281079 57.623215 
L 285.931689 56.974954 
L 287.88352 57.081119 
L 288.53413 57.269329 
L 289.18474 56.178711 
L 289.835351 57.486486 
L 290.485961 57.361019 
L 291.136571 57.385139 
L 291.787182 56.957261 
L 292.437792 57.090772 
L 293.088402 57.613554 
L 293.739013 56.786752 
L 294.389623 57.426972 
L 295.040233 57.317577 
L 295.690844 57.026428 
L 296.341454 57.092381 
L 296.992064 56.764232 
L 297.642674 57.491304 
L 298.293285 57.288631 
L 299.594505 57.714896 
L 300.895726 57.835549 
L 302.196947 57.813026 
L 302.847557 57.378704 
L 304.148778 57.755109 
L 304.799388 57.280591 
L 305.449998 58.483797 
L 307.401829 57.869318 
L 308.052439 58.191035 
L 310.00427 57.533129 
L 311.305491 58.129912 
L 311.956101 57.97389 
L 312.606712 58.067173 
L 313.257322 58.441973 
L 313.907932 57.726162 
L 314.558543 58.092918 
L 315.209153 58.31651 
L 316.510373 57.961008 
L 317.160984 57.980313 
L 317.811594 58.260206 
L 318.462204 57.747073 
L 319.112815 58.454851 
L 319.763425 57.611953 
L 320.414035 58.182999 
L 321.064646 57.993188 
L 322.365866 58.18943 
L 323.016477 58.081656 
L 323.667087 58.877899 
L 324.317697 58.322941 
L 324.968308 58.74761 
L 325.618918 58.157258 
L 326.269528 58.318119 
L 326.920138 58.782999 
L 328.221359 58.406591 
L 328.871969 58.956718 
L 330.8238 58.81678 
L 331.474411 58.163693 
L 332.125021 58.752432 
L 332.775631 58.477366 
L 333.426242 59.164218 
L 334.076852 58.503107 
L 334.727462 59.294524 
L 335.378073 59.270395 
L 336.028683 59.082193 
L 336.679293 59.476291 
L 337.329903 59.135272 
L 338.631124 59.082189 
L 339.281734 58.540102 
L 340.582955 58.689701 
L 341.233565 58.218389 
L 341.884176 59.677367 
L 342.534786 59.603366 
L 343.185396 58.971198 
L 343.836007 59.070932 
L 344.486617 58.421066 
L 345.137227 59.448937 
L 345.787837 58.885939 
L 346.438448 59.424817 
L 347.089058 59.095064 
L 347.739668 59.662884 
L 348.390279 59.439296 
L 349.040889 58.673604 
L 349.691499 59.717579 
L 350.34211 59.050021 
L 350.99272 60.12133 
L 351.64333 59.547074 
L 352.293941 60.050554 
L 352.944551 59.904169 
L 353.595161 60.48165 
L 354.245772 59.812479 
L 354.896382 59.399084 
L 356.848213 60.061816 
L 357.498823 59.220526 
L 358.149433 59.238223 
L 358.800044 59.90256 
L 359.450654 59.920257 
L 360.101264 59.013023 
L 360.751875 59.497205 
L 361.402485 59.141707 
L 362.053095 59.337949 
L 362.703706 59.804447 
L 363.354316 59.579242 
L 364.004926 60.706847 
L 364.655537 60.227491 
L 365.306147 59.526155 
L 365.956757 60.25484 
L 366.607367 59.222131 
L 367.257978 60.422132 
L 368.559198 60.607125 
L 369.209809 60.013552 
L 369.860419 60.09077 
L 370.511029 60.512213 
L 371.16164 60.216233 
L 371.81225 60.066634 
L 372.46286 61.094513 
L 373.113471 61.100952 
L 373.764081 60.306314 
L 374.414691 60.166364 
L 375.065302 60.927221 
L 375.715912 60.102024 
L 376.366522 60.317576 
L 377.017132 61.210331 
L 377.667743 60.845188 
L 378.318353 60.324007 
L 378.968963 61.474139 
L 379.619574 60.251619 
L 380.270184 60.906315 
L 380.920794 61.33258 
L 381.571405 61.187812 
L 382.222015 61.948673 
L 382.872625 61.433927 
L 383.523236 61.142781 
L 384.173846 60.455913 
L 384.824456 60.898275 
L 385.475066 60.747067 
L 386.125677 61.879502 
L 386.776287 60.72937 
L 387.426897 61.538487 
L 388.077508 61.356712 
L 388.728118 60.951353 
L 389.378728 61.187812 
L 390.029339 61.834463 
L 390.679949 60.946535 
L 391.330559 61.551354 
L 392.63178 61.313282 
L 393.28239 61.631782 
L 393.933001 61.69934 
L 394.583611 61.956713 
L 395.234221 61.906844 
L 395.884831 62.326682 
L 396.535442 62.04679 
L 397.186052 62.202828 
L 397.836662 62.603356 
L 398.487273 61.921327 
L 398.487273 61.921327 
" clip-path="url(#pce4f6ed73a)" style="fill: none; stroke: #e24a33; stroke-width: 3; stroke-linecap: square"/>
   </g>
   <g id="patch_3">
    <path d="M 57.6 307.584 
L 57.6 41.472 
" style="fill: none; stroke: #ffffff; stroke-linejoin: miter; stroke-linecap: square"/>
   </g>
   <g id="patch_4">
    <path d="M 414.72 307.584 
L 414.72 41.472 
" style="fill: none; stroke: #ffffff; stroke-linejoin: miter; stroke-linecap: square"/>
   </g>
   <g id="patch_5">
    <path d="M 57.6 307.584 
L 414.72 307.584 
" style="fill: none; stroke: #ffffff; stroke-linejoin: miter; stroke-linecap: square"/>
   </g>
   <g id="patch_6">
    <path d="M 57.6 41.472 
L 414.72 41.472 
" style="fill: none; stroke: #ffffff; stroke-linejoin: miter; stroke-linecap: square"/>
   </g>
   <g id="text_17">
    <!-- Max train accuracy value: 0.79, index: 111 -->
    <g style="fill: #008000" transform="translate(106.363243 161.263049)scale(0.14 -0.14)">
     <defs>
      <path id="DejaVuSans-4d" d="M 628 4666 
L 1569 4666 
L 2759 1491 
L 3956 4666 
L 4897 4666 
L 4897 0 
L 4281 0 
L 4281 4097 
L 3078 897 
L 2444 897 
L 1241 4097 
L 1241 0 
L 628 0 
L 628 4666 
z
" transform="scale(0.015625)"/>
      <path id="DejaVuSans-78" d="M 3513 3500 
L 2247 1797 
L 3578 0 
L 2900 0 
L 1881 1375 
L 863 0 
L 184 0 
L 1544 1831 
L 300 3500 
L 978 3500 
L 1906 2253 
L 2834 3500 
L 3513 3500 
z
" transform="scale(0.015625)"/>
      <path id="DejaVuSans-20" transform="scale(0.015625)"/>
      <path id="DejaVuSans-74" d="M 1172 4494 
L 1172 3500 
L 2356 3500 
L 2356 3053 
L 1172 3053 
L 1172 1153 
Q 1172 725 1289 603 
Q 1406 481 1766 481 
L 2356 481 
L 2356 0 
L 1766 0 
Q 1100 0 847 248 
Q 594 497 594 1153 
L 594 3053 
L 172 3053 
L 172 3500 
L 594 3500 
L 594 4494 
L 1172 4494 
z
" transform="scale(0.015625)"/>
      <path id="DejaVuSans-69" d="M 603 3500 
L 1178 3500 
L 1178 0 
L 603 0 
L 603 3500 
z
M 603 4863 
L 1178 4863 
L 1178 4134 
L 603 4134 
L 603 4863 
z
" transform="scale(0.015625)"/>
      <path id="DejaVuSans-6e" d="M 3513 2113 
L 3513 0 
L 2938 0 
L 2938 2094 
Q 2938 2591 2744 2837 
Q 2550 3084 2163 3084 
Q 1697 3084 1428 2787 
Q 1159 2491 1159 1978 
L 1159 0 
L 581 0 
L 581 3500 
L 1159 3500 
L 1159 2956 
Q 1366 3272 1645 3428 
Q 1925 3584 2291 3584 
Q 2894 3584 3203 3211 
Q 3513 2838 3513 2113 
z
" transform="scale(0.015625)"/>
      <path id="DejaVuSans-76" d="M 191 3500 
L 800 3500 
L 1894 563 
L 2988 3500 
L 3597 3500 
L 2284 0 
L 1503 0 
L 191 3500 
z
" transform="scale(0.015625)"/>
      <path id="DejaVuSans-6c" d="M 603 4863 
L 1178 4863 
L 1178 0 
L 603 0 
L 603 4863 
z
" transform="scale(0.015625)"/>
      <path id="DejaVuSans-65" d="M 3597 1894 
L 3597 1613 
L 953 1613 
Q 991 1019 1311 708 
Q 1631 397 2203 397 
Q 2534 397 2845 478 
Q 3156 559 3463 722 
L 3463 178 
Q 3153 47 2828 -22 
Q 2503 -91 2169 -91 
Q 1331 -91 842 396 
Q 353 884 353 1716 
Q 353 2575 817 3079 
Q 1281 3584 2069 3584 
Q 2775 3584 3186 3129 
Q 3597 2675 3597 1894 
z
M 3022 2063 
Q 3016 2534 2758 2815 
Q 2500 3097 2075 3097 
Q 1594 3097 1305 2825 
Q 1016 2553 972 2059 
L 3022 2063 
z
" transform="scale(0.015625)"/>
      <path id="DejaVuSans-3a" d="M 750 794 
L 1409 794 
L 1409 0 
L 750 0 
L 750 794 
z
M 750 3309 
L 1409 3309 
L 1409 2516 
L 750 2516 
L 750 3309 
z
" transform="scale(0.015625)"/>
      <path id="DejaVuSans-39" d="M 703 97 
L 703 672 
Q 941 559 1184 500 
Q 1428 441 1663 441 
Q 2288 441 2617 861 
Q 2947 1281 2994 2138 
Q 2813 1869 2534 1725 
Q 2256 1581 1919 1581 
Q 1219 1581 811 2004 
Q 403 2428 403 3163 
Q 403 3881 828 4315 
Q 1253 4750 1959 4750 
Q 2769 4750 3195 4129 
Q 3622 3509 3622 2328 
Q 3622 1225 3098 567 
Q 2575 -91 1691 -91 
Q 1453 -91 1209 -44 
Q 966 3 703 97 
z
M 1959 2075 
Q 2384 2075 2632 2365 
Q 2881 2656 2881 3163 
Q 2881 3666 2632 3958 
Q 2384 4250 1959 4250 
Q 1534 4250 1286 3958 
Q 1038 3666 1038 3163 
Q 1038 2656 1286 2365 
Q 1534 2075 1959 2075 
z
" transform="scale(0.015625)"/>
      <path id="DejaVuSans-2c" d="M 750 794 
L 1409 794 
L 1409 256 
L 897 -744 
L 494 -744 
L 750 256 
L 750 794 
z
" transform="scale(0.015625)"/>
      <path id="DejaVuSans-64" d="M 2906 2969 
L 2906 4863 
L 3481 4863 
L 3481 0 
L 2906 0 
L 2906 525 
Q 2725 213 2448 61 
Q 2172 -91 1784 -91 
Q 1150 -91 751 415 
Q 353 922 353 1747 
Q 353 2572 751 3078 
Q 1150 3584 1784 3584 
Q 2172 3584 2448 3432 
Q 2725 3281 2906 2969 
z
M 947 1747 
Q 947 1113 1208 752 
Q 1469 391 1925 391 
Q 2381 391 2643 752 
Q 2906 1113 2906 1747 
Q 2906 2381 2643 2742 
Q 2381 3103 1925 3103 
Q 1469 3103 1208 2742 
Q 947 2381 947 1747 
z
" transform="scale(0.015625)"/>
     </defs>
     <use xlink:href="#DejaVuSans-4d"/>
     <use xlink:href="#DejaVuSans-61" x="86.279297"/>
     <use xlink:href="#DejaVuSans-78" x="147.558594"/>
     <use xlink:href="#DejaVuSans-20" x="206.738281"/>
     <use xlink:href="#DejaVuSans-74" x="238.525391"/>
     <use xlink:href="#DejaVuSans-72" x="277.734375"/>
     <use xlink:href="#DejaVuSans-61" x="318.847656"/>
     <use xlink:href="#DejaVuSans-69" x="380.126953"/>
     <use xlink:href="#DejaVuSans-6e" x="407.910156"/>
     <use xlink:href="#DejaVuSans-20" x="471.289062"/>
     <use xlink:href="#DejaVuSans-61" x="503.076172"/>
     <use xlink:href="#DejaVuSans-63" x="564.355469"/>
     <use xlink:href="#DejaVuSans-63" x="619.335938"/>
     <use xlink:href="#DejaVuSans-75" x="674.316406"/>
     <use xlink:href="#DejaVuSans-72" x="737.695312"/>
     <use xlink:href="#DejaVuSans-61" x="778.808594"/>
     <use xlink:href="#DejaVuSans-63" x="840.087891"/>
     <use xlink:href="#DejaVuSans-79" x="895.068359"/>
     <use xlink:href="#DejaVuSans-20" x="954.248047"/>
     <use xlink:href="#DejaVuSans-76" x="986.035156"/>
     <use xlink:href="#DejaVuSans-61" x="1045.214844"/>
     <use xlink:href="#DejaVuSans-6c" x="1106.494141"/>
     <use xlink:href="#DejaVuSans-75" x="1134.277344"/>
     <use xlink:href="#DejaVuSans-65" x="1197.65625"/>
     <use xlink:href="#DejaVuSans-3a" x="1259.179688"/>
     <use xlink:href="#DejaVuSans-20" x="1292.871094"/>
     <use xlink:href="#DejaVuSans-30" x="1324.658203"/>
     <use xlink:href="#DejaVuSans-2e" x="1388.28125"/>
     <use xlink:href="#DejaVuSans-37" x="1420.068359"/>
     <use xlink:href="#DejaVuSans-39" x="1483.691406"/>
     <use xlink:href="#DejaVuSans-2c" x="1547.314453"/>
     <use xlink:href="#DejaVuSans-20" x="1579.101562"/>
     <use xlink:href="#DejaVuSans-69" x="1610.888672"/>
     <use xlink:href="#DejaVuSans-6e" x="1638.671875"/>
     <use xlink:href="#DejaVuSans-64" x="1702.050781"/>
     <use xlink:href="#DejaVuSans-65" x="1765.527344"/>
     <use xlink:href="#DejaVuSans-78" x="1825.300781"/>
     <use xlink:href="#DejaVuSans-3a" x="1884.480469"/>
     <use xlink:href="#DejaVuSans-20" x="1918.171875"/>
     <use xlink:href="#DejaVuSans-31" x="1949.958984"/>
     <use xlink:href="#DejaVuSans-31" x="2013.582031"/>
     <use xlink:href="#DejaVuSans-31" x="2077.205078"/>
    </g>
   </g>
   <g id="text_18">
    <!-- Train accuracy -->
    <g transform="translate(163.875625 35.472)scale(0.2 -0.2)">
     <defs>
      <path id="DejaVuSans-54" d="M -19 4666 
L 3928 4666 
L 3928 4134 
L 2272 4134 
L 2272 0 
L 1638 0 
L 1638 4134 
L -19 4134 
L -19 4666 
z
" transform="scale(0.015625)"/>
     </defs>
     <use xlink:href="#DejaVuSans-54"/>
     <use xlink:href="#DejaVuSans-72" x="46.333984"/>
     <use xlink:href="#DejaVuSans-61" x="87.447266"/>
     <use xlink:href="#DejaVuSans-69" x="148.726562"/>
     <use xlink:href="#DejaVuSans-6e" x="176.509766"/>
     <use xlink:href="#DejaVuSans-20" x="239.888672"/>
     <use xlink:href="#DejaVuSans-61" x="271.675781"/>
     <use xlink:href="#DejaVuSans-63" x="332.955078"/>
     <use xlink:href="#DejaVuSans-63" x="387.935547"/>
     <use xlink:href="#DejaVuSans-75" x="442.916016"/>
     <use xlink:href="#DejaVuSans-72" x="506.294922"/>
     <use xlink:href="#DejaVuSans-61" x="547.408203"/>
     <use xlink:href="#DejaVuSans-63" x="608.6875"/>
     <use xlink:href="#DejaVuSans-79" x="663.667969"/>
    </g>
   </g>
  </g>
 </g>
 <defs>
  <clipPath id="pce4f6ed73a">
   <rect x="57.6" y="41.472" width="357.12" height="266.112"/>
  </clipPath>
 </defs>
</svg>
