<?xml version="1.0" encoding="utf-8" standalone="no"?>
<!DOCTYPE svg PUBLIC "-//W3C//DTD SVG 1.1//EN"
  "http://www.w3.org/Graphics/SVG/1.1/DTD/svg11.dtd">
<svg xmlns:xlink="http://www.w3.org/1999/xlink" width="460.8pt" height="345.6pt" viewBox="0 0 460.8 345.6" xmlns="http://www.w3.org/2000/svg" version="1.1">
 <metadata>
  <rdf:RDF xmlns:dc="http://purl.org/dc/elements/1.1/" xmlns:cc="http://creativecommons.org/ns#" xmlns:rdf="http://www.w3.org/1999/02/22-rdf-syntax-ns#">
   <cc:Work>
    <dc:type rdf:resource="http://purl.org/dc/dcmitype/StillImage"/>
    <dc:date>2022-02-19T17:22:47.228076</dc:date>
    <dc:format>image/svg+xml</dc:format>
    <dc:creator>
     <cc:Agent>
      <dc:title>Matplotlib v3.5.1, https://matplotlib.org/</dc:title>
     </cc:Agent>
    </dc:creator>
   </cc:Work>
  </rdf:RDF>
 </metadata>
 <defs>
  <style type="text/css">*{stroke-linejoin: round; stroke-linecap: butt}</style>
 </defs>
 <g id="figure_1">
  <g id="patch_1">
   <path d="M 0 345.6 
L 460.8 345.6 
L 460.8 0 
L 0 0 
z
" style="fill: #ffffff"/>
  </g>
  <g id="axes_1">
   <g id="patch_2">
    <path d="M 57.6 307.584 
L 414.72 307.584 
L 414.72 41.472 
L 57.6 41.472 
z
" style="fill: #e5e5e5"/>
   </g>
   <g id="matplotlib.axis_1">
    <g id="xtick_1">
     <g id="line2d_1">
      <path d="M 73.832727 307.584 
L 73.832727 41.472 
" clip-path="url(#p850696ac9d)" style="fill: none; stroke: #ffffff; stroke-width: 0.8; stroke-linecap: square"/>
     </g>
     <g id="line2d_2">
      <defs>
       <path id="me52e34e7f9" d="M 0 0 
L 0 3.5 
" style="stroke: #555555; stroke-width: 0.8"/>
      </defs>
      <g>
       <use xlink:href="#me52e34e7f9" x="73.832727" y="307.584" style="fill: #555555; stroke: #555555; stroke-width: 0.8"/>
      </g>
     </g>
     <g id="text_1">
      <!-- 0 -->
      <g style="fill: #555555" transform="translate(70.651477 322.182437)scale(0.1 -0.1)">
       <defs>
        <path id="DejaVuSans-30" d="M 2034 4250 
Q 1547 4250 1301 3770 
Q 1056 3291 1056 2328 
Q 1056 1369 1301 889 
Q 1547 409 2034 409 
Q 2525 409 2770 889 
Q 3016 1369 3016 2328 
Q 3016 3291 2770 3770 
Q 2525 4250 2034 4250 
z
M 2034 4750 
Q 2819 4750 3233 4129 
Q 3647 3509 3647 2328 
Q 3647 1150 3233 529 
Q 2819 -91 2034 -91 
Q 1250 -91 836 529 
Q 422 1150 422 2328 
Q 422 3509 836 4129 
Q 1250 4750 2034 4750 
z
" transform="scale(0.015625)"/>
       </defs>
       <use xlink:href="#DejaVuSans-30"/>
      </g>
     </g>
    </g>
    <g id="xtick_2">
     <g id="line2d_3">
      <path d="M 138.893758 307.584 
L 138.893758 41.472 
" clip-path="url(#p850696ac9d)" style="fill: none; stroke: #ffffff; stroke-width: 0.8; stroke-linecap: square"/>
     </g>
     <g id="line2d_4">
      <g>
       <use xlink:href="#me52e34e7f9" x="138.893758" y="307.584" style="fill: #555555; stroke: #555555; stroke-width: 0.8"/>
      </g>
     </g>
     <g id="text_2">
      <!-- 100 -->
      <g style="fill: #555555" transform="translate(129.350008 322.182437)scale(0.1 -0.1)">
       <defs>
        <path id="DejaVuSans-31" d="M 794 531 
L 1825 531 
L 1825 4091 
L 703 3866 
L 703 4441 
L 1819 4666 
L 2450 4666 
L 2450 531 
L 3481 531 
L 3481 0 
L 794 0 
L 794 531 
z
" transform="scale(0.015625)"/>
       </defs>
       <use xlink:href="#DejaVuSans-31"/>
       <use xlink:href="#DejaVuSans-30" x="63.623047"/>
       <use xlink:href="#DejaVuSans-30" x="127.246094"/>
      </g>
     </g>
    </g>
    <g id="xtick_3">
     <g id="line2d_5">
      <path d="M 203.95479 307.584 
L 203.95479 41.472 
" clip-path="url(#p850696ac9d)" style="fill: none; stroke: #ffffff; stroke-width: 0.8; stroke-linecap: square"/>
     </g>
     <g id="line2d_6">
      <g>
       <use xlink:href="#me52e34e7f9" x="203.95479" y="307.584" style="fill: #555555; stroke: #555555; stroke-width: 0.8"/>
      </g>
     </g>
     <g id="text_3">
      <!-- 200 -->
      <g style="fill: #555555" transform="translate(194.41104 322.182437)scale(0.1 -0.1)">
       <defs>
        <path id="DejaVuSans-32" d="M 1228 531 
L 3431 531 
L 3431 0 
L 469 0 
L 469 531 
Q 828 903 1448 1529 
Q 2069 2156 2228 2338 
Q 2531 2678 2651 2914 
Q 2772 3150 2772 3378 
Q 2772 3750 2511 3984 
Q 2250 4219 1831 4219 
Q 1534 4219 1204 4116 
Q 875 4013 500 3803 
L 500 4441 
Q 881 4594 1212 4672 
Q 1544 4750 1819 4750 
Q 2544 4750 2975 4387 
Q 3406 4025 3406 3419 
Q 3406 3131 3298 2873 
Q 3191 2616 2906 2266 
Q 2828 2175 2409 1742 
Q 1991 1309 1228 531 
z
" transform="scale(0.015625)"/>
       </defs>
       <use xlink:href="#DejaVuSans-32"/>
       <use xlink:href="#DejaVuSans-30" x="63.623047"/>
       <use xlink:href="#DejaVuSans-30" x="127.246094"/>
      </g>
     </g>
    </g>
    <g id="xtick_4">
     <g id="line2d_7">
      <path d="M 269.015821 307.584 
L 269.015821 41.472 
" clip-path="url(#p850696ac9d)" style="fill: none; stroke: #ffffff; stroke-width: 0.8; stroke-linecap: square"/>
     </g>
     <g id="line2d_8">
      <g>
       <use xlink:href="#me52e34e7f9" x="269.015821" y="307.584" style="fill: #555555; stroke: #555555; stroke-width: 0.8"/>
      </g>
     </g>
     <g id="text_4">
      <!-- 300 -->
      <g style="fill: #555555" transform="translate(259.472071 322.182437)scale(0.1 -0.1)">
       <defs>
        <path id="DejaVuSans-33" d="M 2597 2516 
Q 3050 2419 3304 2112 
Q 3559 1806 3559 1356 
Q 3559 666 3084 287 
Q 2609 -91 1734 -91 
Q 1441 -91 1130 -33 
Q 819 25 488 141 
L 488 750 
Q 750 597 1062 519 
Q 1375 441 1716 441 
Q 2309 441 2620 675 
Q 2931 909 2931 1356 
Q 2931 1769 2642 2001 
Q 2353 2234 1838 2234 
L 1294 2234 
L 1294 2753 
L 1863 2753 
Q 2328 2753 2575 2939 
Q 2822 3125 2822 3475 
Q 2822 3834 2567 4026 
Q 2313 4219 1838 4219 
Q 1578 4219 1281 4162 
Q 984 4106 628 3988 
L 628 4550 
Q 988 4650 1302 4700 
Q 1616 4750 1894 4750 
Q 2613 4750 3031 4423 
Q 3450 4097 3450 3541 
Q 3450 3153 3228 2886 
Q 3006 2619 2597 2516 
z
" transform="scale(0.015625)"/>
       </defs>
       <use xlink:href="#DejaVuSans-33"/>
       <use xlink:href="#DejaVuSans-30" x="63.623047"/>
       <use xlink:href="#DejaVuSans-30" x="127.246094"/>
      </g>
     </g>
    </g>
    <g id="xtick_5">
     <g id="line2d_9">
      <path d="M 334.076852 307.584 
L 334.076852 41.472 
" clip-path="url(#p850696ac9d)" style="fill: none; stroke: #ffffff; stroke-width: 0.8; stroke-linecap: square"/>
     </g>
     <g id="line2d_10">
      <g>
       <use xlink:href="#me52e34e7f9" x="334.076852" y="307.584" style="fill: #555555; stroke: #555555; stroke-width: 0.8"/>
      </g>
     </g>
     <g id="text_5">
      <!-- 400 -->
      <g style="fill: #555555" transform="translate(324.533102 322.182437)scale(0.1 -0.1)">
       <defs>
        <path id="DejaVuSans-34" d="M 2419 4116 
L 825 1625 
L 2419 1625 
L 2419 4116 
z
M 2253 4666 
L 3047 4666 
L 3047 1625 
L 3713 1625 
L 3713 1100 
L 3047 1100 
L 3047 0 
L 2419 0 
L 2419 1100 
L 313 1100 
L 313 1709 
L 2253 4666 
z
" transform="scale(0.015625)"/>
       </defs>
       <use xlink:href="#DejaVuSans-34"/>
       <use xlink:href="#DejaVuSans-30" x="63.623047"/>
       <use xlink:href="#DejaVuSans-30" x="127.246094"/>
      </g>
     </g>
    </g>
    <g id="xtick_6">
     <g id="line2d_11">
      <path d="M 399.137883 307.584 
L 399.137883 41.472 
" clip-path="url(#p850696ac9d)" style="fill: none; stroke: #ffffff; stroke-width: 0.8; stroke-linecap: square"/>
     </g>
     <g id="line2d_12">
      <g>
       <use xlink:href="#me52e34e7f9" x="399.137883" y="307.584" style="fill: #555555; stroke: #555555; stroke-width: 0.8"/>
      </g>
     </g>
     <g id="text_6">
      <!-- 500 -->
      <g style="fill: #555555" transform="translate(389.594133 322.182437)scale(0.1 -0.1)">
       <defs>
        <path id="DejaVuSans-35" d="M 691 4666 
L 3169 4666 
L 3169 4134 
L 1269 4134 
L 1269 2991 
Q 1406 3038 1543 3061 
Q 1681 3084 1819 3084 
Q 2600 3084 3056 2656 
Q 3513 2228 3513 1497 
Q 3513 744 3044 326 
Q 2575 -91 1722 -91 
Q 1428 -91 1123 -41 
Q 819 9 494 109 
L 494 744 
Q 775 591 1075 516 
Q 1375 441 1709 441 
Q 2250 441 2565 725 
Q 2881 1009 2881 1497 
Q 2881 1984 2565 2268 
Q 2250 2553 1709 2553 
Q 1456 2553 1204 2497 
Q 953 2441 691 2322 
L 691 4666 
z
" transform="scale(0.015625)"/>
       </defs>
       <use xlink:href="#DejaVuSans-35"/>
       <use xlink:href="#DejaVuSans-30" x="63.623047"/>
       <use xlink:href="#DejaVuSans-30" x="127.246094"/>
      </g>
     </g>
    </g>
    <g id="text_7">
     <!-- Epoch -->
     <g style="fill: #555555" transform="translate(205.538125 343.459)scale(0.2 -0.2)">
      <defs>
       <path id="DejaVuSans-45" d="M 628 4666 
L 3578 4666 
L 3578 4134 
L 1259 4134 
L 1259 2753 
L 3481 2753 
L 3481 2222 
L 1259 2222 
L 1259 531 
L 3634 531 
L 3634 0 
L 628 0 
L 628 4666 
z
" transform="scale(0.015625)"/>
       <path id="DejaVuSans-70" d="M 1159 525 
L 1159 -1331 
L 581 -1331 
L 581 3500 
L 1159 3500 
L 1159 2969 
Q 1341 3281 1617 3432 
Q 1894 3584 2278 3584 
Q 2916 3584 3314 3078 
Q 3713 2572 3713 1747 
Q 3713 922 3314 415 
Q 2916 -91 2278 -91 
Q 1894 -91 1617 61 
Q 1341 213 1159 525 
z
M 3116 1747 
Q 3116 2381 2855 2742 
Q 2594 3103 2138 3103 
Q 1681 3103 1420 2742 
Q 1159 2381 1159 1747 
Q 1159 1113 1420 752 
Q 1681 391 2138 391 
Q 2594 391 2855 752 
Q 3116 1113 3116 1747 
z
" transform="scale(0.015625)"/>
       <path id="DejaVuSans-6f" d="M 1959 3097 
Q 1497 3097 1228 2736 
Q 959 2375 959 1747 
Q 959 1119 1226 758 
Q 1494 397 1959 397 
Q 2419 397 2687 759 
Q 2956 1122 2956 1747 
Q 2956 2369 2687 2733 
Q 2419 3097 1959 3097 
z
M 1959 3584 
Q 2709 3584 3137 3096 
Q 3566 2609 3566 1747 
Q 3566 888 3137 398 
Q 2709 -91 1959 -91 
Q 1206 -91 779 398 
Q 353 888 353 1747 
Q 353 2609 779 3096 
Q 1206 3584 1959 3584 
z
" transform="scale(0.015625)"/>
       <path id="DejaVuSans-63" d="M 3122 3366 
L 3122 2828 
Q 2878 2963 2633 3030 
Q 2388 3097 2138 3097 
Q 1578 3097 1268 2742 
Q 959 2388 959 1747 
Q 959 1106 1268 751 
Q 1578 397 2138 397 
Q 2388 397 2633 464 
Q 2878 531 3122 666 
L 3122 134 
Q 2881 22 2623 -34 
Q 2366 -91 2075 -91 
Q 1284 -91 818 406 
Q 353 903 353 1747 
Q 353 2603 823 3093 
Q 1294 3584 2113 3584 
Q 2378 3584 2631 3529 
Q 2884 3475 3122 3366 
z
" transform="scale(0.015625)"/>
       <path id="DejaVuSans-68" d="M 3513 2113 
L 3513 0 
L 2938 0 
L 2938 2094 
Q 2938 2591 2744 2837 
Q 2550 3084 2163 3084 
Q 1697 3084 1428 2787 
Q 1159 2491 1159 1978 
L 1159 0 
L 581 0 
L 581 4863 
L 1159 4863 
L 1159 2956 
Q 1366 3272 1645 3428 
Q 1925 3584 2291 3584 
Q 2894 3584 3203 3211 
Q 3513 2838 3513 2113 
z
" transform="scale(0.015625)"/>
      </defs>
      <use xlink:href="#DejaVuSans-45"/>
      <use xlink:href="#DejaVuSans-70" x="63.183594"/>
      <use xlink:href="#DejaVuSans-6f" x="126.660156"/>
      <use xlink:href="#DejaVuSans-63" x="187.841797"/>
      <use xlink:href="#DejaVuSans-68" x="242.822266"/>
     </g>
    </g>
   </g>
   <g id="matplotlib.axis_2">
    <g id="ytick_1">
     <g id="line2d_13">
      <path d="M 57.6 306.575185 
L 414.72 306.575185 
" clip-path="url(#p850696ac9d)" style="fill: none; stroke: #ffffff; stroke-width: 0.8; stroke-linecap: square"/>
     </g>
     <g id="line2d_14">
      <defs>
       <path id="m49d72fb702" d="M 0 0 
L -3.5 0 
" style="stroke: #555555; stroke-width: 0.8"/>
      </defs>
      <g>
       <use xlink:href="#m49d72fb702" x="57.6" y="306.575185" style="fill: #555555; stroke: #555555; stroke-width: 0.8"/>
      </g>
     </g>
     <g id="text_8">
      <!-- 0.8 -->
      <g style="fill: #555555" transform="translate(34.696875 310.374404)scale(0.1 -0.1)">
       <defs>
        <path id="DejaVuSans-2e" d="M 684 794 
L 1344 794 
L 1344 0 
L 684 0 
L 684 794 
z
" transform="scale(0.015625)"/>
        <path id="DejaVuSans-38" d="M 2034 2216 
Q 1584 2216 1326 1975 
Q 1069 1734 1069 1313 
Q 1069 891 1326 650 
Q 1584 409 2034 409 
Q 2484 409 2743 651 
Q 3003 894 3003 1313 
Q 3003 1734 2745 1975 
Q 2488 2216 2034 2216 
z
M 1403 2484 
Q 997 2584 770 2862 
Q 544 3141 544 3541 
Q 544 4100 942 4425 
Q 1341 4750 2034 4750 
Q 2731 4750 3128 4425 
Q 3525 4100 3525 3541 
Q 3525 3141 3298 2862 
Q 3072 2584 2669 2484 
Q 3125 2378 3379 2068 
Q 3634 1759 3634 1313 
Q 3634 634 3220 271 
Q 2806 -91 2034 -91 
Q 1263 -91 848 271 
Q 434 634 434 1313 
Q 434 1759 690 2068 
Q 947 2378 1403 2484 
z
M 1172 3481 
Q 1172 3119 1398 2916 
Q 1625 2713 2034 2713 
Q 2441 2713 2670 2916 
Q 2900 3119 2900 3481 
Q 2900 3844 2670 4047 
Q 2441 4250 2034 4250 
Q 1625 4250 1398 4047 
Q 1172 3844 1172 3481 
z
" transform="scale(0.015625)"/>
       </defs>
       <use xlink:href="#DejaVuSans-30"/>
       <use xlink:href="#DejaVuSans-2e" x="63.623047"/>
       <use xlink:href="#DejaVuSans-38" x="95.410156"/>
      </g>
     </g>
    </g>
    <g id="ytick_2">
     <g id="line2d_15">
      <path d="M 57.6 275.048202 
L 414.72 275.048202 
" clip-path="url(#p850696ac9d)" style="fill: none; stroke: #ffffff; stroke-width: 0.8; stroke-linecap: square"/>
     </g>
     <g id="line2d_16">
      <g>
       <use xlink:href="#m49d72fb702" x="57.6" y="275.048202" style="fill: #555555; stroke: #555555; stroke-width: 0.8"/>
      </g>
     </g>
     <g id="text_9">
      <!-- 0.9 -->
      <g style="fill: #555555" transform="translate(34.696875 278.847421)scale(0.1 -0.1)">
       <defs>
        <path id="DejaVuSans-39" d="M 703 97 
L 703 672 
Q 941 559 1184 500 
Q 1428 441 1663 441 
Q 2288 441 2617 861 
Q 2947 1281 2994 2138 
Q 2813 1869 2534 1725 
Q 2256 1581 1919 1581 
Q 1219 1581 811 2004 
Q 403 2428 403 3163 
Q 403 3881 828 4315 
Q 1253 4750 1959 4750 
Q 2769 4750 3195 4129 
Q 3622 3509 3622 2328 
Q 3622 1225 3098 567 
Q 2575 -91 1691 -91 
Q 1453 -91 1209 -44 
Q 966 3 703 97 
z
M 1959 2075 
Q 2384 2075 2632 2365 
Q 2881 2656 2881 3163 
Q 2881 3666 2632 3958 
Q 2384 4250 1959 4250 
Q 1534 4250 1286 3958 
Q 1038 3666 1038 3163 
Q 1038 2656 1286 2365 
Q 1534 2075 1959 2075 
z
" transform="scale(0.015625)"/>
       </defs>
       <use xlink:href="#DejaVuSans-30"/>
       <use xlink:href="#DejaVuSans-2e" x="63.623047"/>
       <use xlink:href="#DejaVuSans-39" x="95.410156"/>
      </g>
     </g>
    </g>
    <g id="ytick_3">
     <g id="line2d_17">
      <path d="M 57.6 243.52122 
L 414.72 243.52122 
" clip-path="url(#p850696ac9d)" style="fill: none; stroke: #ffffff; stroke-width: 0.8; stroke-linecap: square"/>
     </g>
     <g id="line2d_18">
      <g>
       <use xlink:href="#m49d72fb702" x="57.6" y="243.52122" style="fill: #555555; stroke: #555555; stroke-width: 0.8"/>
      </g>
     </g>
     <g id="text_10">
      <!-- 1.0 -->
      <g style="fill: #555555" transform="translate(34.696875 247.320438)scale(0.1 -0.1)">
       <use xlink:href="#DejaVuSans-31"/>
       <use xlink:href="#DejaVuSans-2e" x="63.623047"/>
       <use xlink:href="#DejaVuSans-30" x="95.410156"/>
      </g>
     </g>
    </g>
    <g id="ytick_4">
     <g id="line2d_19">
      <path d="M 57.6 211.994237 
L 414.72 211.994237 
" clip-path="url(#p850696ac9d)" style="fill: none; stroke: #ffffff; stroke-width: 0.8; stroke-linecap: square"/>
     </g>
     <g id="line2d_20">
      <g>
       <use xlink:href="#m49d72fb702" x="57.6" y="211.994237" style="fill: #555555; stroke: #555555; stroke-width: 0.8"/>
      </g>
     </g>
     <g id="text_11">
      <!-- 1.1 -->
      <g style="fill: #555555" transform="translate(34.696875 215.793456)scale(0.1 -0.1)">
       <use xlink:href="#DejaVuSans-31"/>
       <use xlink:href="#DejaVuSans-2e" x="63.623047"/>
       <use xlink:href="#DejaVuSans-31" x="95.410156"/>
      </g>
     </g>
    </g>
    <g id="ytick_5">
     <g id="line2d_21">
      <path d="M 57.6 180.467254 
L 414.72 180.467254 
" clip-path="url(#p850696ac9d)" style="fill: none; stroke: #ffffff; stroke-width: 0.8; stroke-linecap: square"/>
     </g>
     <g id="line2d_22">
      <g>
       <use xlink:href="#m49d72fb702" x="57.6" y="180.467254" style="fill: #555555; stroke: #555555; stroke-width: 0.8"/>
      </g>
     </g>
     <g id="text_12">
      <!-- 1.2 -->
      <g style="fill: #555555" transform="translate(34.696875 184.266473)scale(0.1 -0.1)">
       <use xlink:href="#DejaVuSans-31"/>
       <use xlink:href="#DejaVuSans-2e" x="63.623047"/>
       <use xlink:href="#DejaVuSans-32" x="95.410156"/>
      </g>
     </g>
    </g>
    <g id="ytick_6">
     <g id="line2d_23">
      <path d="M 57.6 148.940271 
L 414.72 148.940271 
" clip-path="url(#p850696ac9d)" style="fill: none; stroke: #ffffff; stroke-width: 0.8; stroke-linecap: square"/>
     </g>
     <g id="line2d_24">
      <g>
       <use xlink:href="#m49d72fb702" x="57.6" y="148.940271" style="fill: #555555; stroke: #555555; stroke-width: 0.8"/>
      </g>
     </g>
     <g id="text_13">
      <!-- 1.3 -->
      <g style="fill: #555555" transform="translate(34.696875 152.73949)scale(0.1 -0.1)">
       <use xlink:href="#DejaVuSans-31"/>
       <use xlink:href="#DejaVuSans-2e" x="63.623047"/>
       <use xlink:href="#DejaVuSans-33" x="95.410156"/>
      </g>
     </g>
    </g>
    <g id="ytick_7">
     <g id="line2d_25">
      <path d="M 57.6 117.413289 
L 414.72 117.413289 
" clip-path="url(#p850696ac9d)" style="fill: none; stroke: #ffffff; stroke-width: 0.8; stroke-linecap: square"/>
     </g>
     <g id="line2d_26">
      <g>
       <use xlink:href="#m49d72fb702" x="57.6" y="117.413289" style="fill: #555555; stroke: #555555; stroke-width: 0.8"/>
      </g>
     </g>
     <g id="text_14">
      <!-- 1.4 -->
      <g style="fill: #555555" transform="translate(34.696875 121.212507)scale(0.1 -0.1)">
       <use xlink:href="#DejaVuSans-31"/>
       <use xlink:href="#DejaVuSans-2e" x="63.623047"/>
       <use xlink:href="#DejaVuSans-34" x="95.410156"/>
      </g>
     </g>
    </g>
    <g id="ytick_8">
     <g id="line2d_27">
      <path d="M 57.6 85.886306 
L 414.72 85.886306 
" clip-path="url(#p850696ac9d)" style="fill: none; stroke: #ffffff; stroke-width: 0.8; stroke-linecap: square"/>
     </g>
     <g id="line2d_28">
      <g>
       <use xlink:href="#m49d72fb702" x="57.6" y="85.886306" style="fill: #555555; stroke: #555555; stroke-width: 0.8"/>
      </g>
     </g>
     <g id="text_15">
      <!-- 1.5 -->
      <g style="fill: #555555" transform="translate(34.696875 89.685525)scale(0.1 -0.1)">
       <use xlink:href="#DejaVuSans-31"/>
       <use xlink:href="#DejaVuSans-2e" x="63.623047"/>
       <use xlink:href="#DejaVuSans-35" x="95.410156"/>
      </g>
     </g>
    </g>
    <g id="ytick_9">
     <g id="line2d_29">
      <path d="M 57.6 54.359323 
L 414.72 54.359323 
" clip-path="url(#p850696ac9d)" style="fill: none; stroke: #ffffff; stroke-width: 0.8; stroke-linecap: square"/>
     </g>
     <g id="line2d_30">
      <g>
       <use xlink:href="#m49d72fb702" x="57.6" y="54.359323" style="fill: #555555; stroke: #555555; stroke-width: 0.8"/>
      </g>
     </g>
     <g id="text_16">
      <!-- 1.6 -->
      <g style="fill: #555555" transform="translate(34.696875 58.158542)scale(0.1 -0.1)">
       <defs>
        <path id="DejaVuSans-36" d="M 2113 2584 
Q 1688 2584 1439 2293 
Q 1191 2003 1191 1497 
Q 1191 994 1439 701 
Q 1688 409 2113 409 
Q 2538 409 2786 701 
Q 3034 994 3034 1497 
Q 3034 2003 2786 2293 
Q 2538 2584 2113 2584 
z
M 3366 4563 
L 3366 3988 
Q 3128 4100 2886 4159 
Q 2644 4219 2406 4219 
Q 1781 4219 1451 3797 
Q 1122 3375 1075 2522 
Q 1259 2794 1537 2939 
Q 1816 3084 2150 3084 
Q 2853 3084 3261 2657 
Q 3669 2231 3669 1497 
Q 3669 778 3244 343 
Q 2819 -91 2113 -91 
Q 1303 -91 875 529 
Q 447 1150 447 2328 
Q 447 3434 972 4092 
Q 1497 4750 2381 4750 
Q 2619 4750 2861 4703 
Q 3103 4656 3366 4563 
z
" transform="scale(0.015625)"/>
       </defs>
       <use xlink:href="#DejaVuSans-31"/>
       <use xlink:href="#DejaVuSans-2e" x="63.623047"/>
       <use xlink:href="#DejaVuSans-36" x="95.410156"/>
      </g>
     </g>
    </g>
    <g id="text_17">
     <!-- Loss -->
     <g style="fill: #555555" transform="translate(26.5375 196.462375)rotate(-90)scale(0.2 -0.2)">
      <defs>
       <path id="DejaVuSans-4c" d="M 628 4666 
L 1259 4666 
L 1259 531 
L 3531 531 
L 3531 0 
L 628 0 
L 628 4666 
z
" transform="scale(0.015625)"/>
       <path id="DejaVuSans-73" d="M 2834 3397 
L 2834 2853 
Q 2591 2978 2328 3040 
Q 2066 3103 1784 3103 
Q 1356 3103 1142 2972 
Q 928 2841 928 2578 
Q 928 2378 1081 2264 
Q 1234 2150 1697 2047 
L 1894 2003 
Q 2506 1872 2764 1633 
Q 3022 1394 3022 966 
Q 3022 478 2636 193 
Q 2250 -91 1575 -91 
Q 1294 -91 989 -36 
Q 684 19 347 128 
L 347 722 
Q 666 556 975 473 
Q 1284 391 1588 391 
Q 1994 391 2212 530 
Q 2431 669 2431 922 
Q 2431 1156 2273 1281 
Q 2116 1406 1581 1522 
L 1381 1569 
Q 847 1681 609 1914 
Q 372 2147 372 2553 
Q 372 3047 722 3315 
Q 1072 3584 1716 3584 
Q 2034 3584 2315 3537 
Q 2597 3491 2834 3397 
z
" transform="scale(0.015625)"/>
      </defs>
      <use xlink:href="#DejaVuSans-4c"/>
      <use xlink:href="#DejaVuSans-6f" x="53.962891"/>
      <use xlink:href="#DejaVuSans-73" x="115.144531"/>
      <use xlink:href="#DejaVuSans-73" x="167.244141"/>
     </g>
    </g>
   </g>
   <g id="line2d_31">
    <path d="M 73.832727 53.568 
L 74.483338 111.72652 
L 75.133948 136.541647 
L 75.784558 152.141663 
L 76.435169 163.944133 
L 77.736389 179.281733 
L 78.386999 185.310986 
L 79.68822 195.419135 
L 82.941272 213.059657 
L 83.591882 215.104313 
L 85.543713 222.834633 
L 86.194323 224.463578 
L 88.146154 231.009579 
L 90.748595 237.953796 
L 91.399206 239.258038 
L 92.700426 242.427337 
L 93.351037 243.855696 
L 94.652257 246.167066 
L 95.302868 248.000269 
L 95.953478 249.066034 
L 96.604088 249.537388 
L 97.254698 251.463247 
L 97.905309 252.452603 
L 98.555919 253.089672 
L 99.206529 254.047479 
L 100.50775 256.644814 
L 101.808971 257.542419 
L 102.459581 259.344848 
L 103.110191 260.466119 
L 103.760802 260.372525 
L 104.411412 261.981548 
L 105.062022 261.779811 
L 105.712633 263.136955 
L 107.013853 264.689663 
L 107.664463 264.977852 
L 108.315074 266.311896 
L 108.965684 267.050079 
L 109.616294 267.519527 
L 110.266905 268.412821 
L 110.917515 268.212879 
L 111.568125 269.311132 
L 112.869346 270.167741 
L 113.519956 271.006314 
L 114.170567 270.768336 
L 114.821177 271.804327 
L 115.471787 271.624777 
L 116.122398 272.658897 
L 116.773008 273.285871 
L 118.724839 273.962008 
L 119.375449 275.384605 
L 120.026059 276.031089 
L 121.32728 276.024023 
L 121.97789 276.895471 
L 122.628501 277.383255 
L 123.279111 277.372339 
L 123.929721 277.208262 
L 124.580332 278.537845 
L 125.230942 279.16693 
L 125.881552 278.139784 
L 126.532163 279.156792 
L 127.182773 279.060336 
L 128.483993 280.796258 
L 129.134604 281.142047 
L 129.785214 280.939371 
L 130.435824 281.119683 
L 131.086435 281.457858 
L 131.737045 281.360215 
L 132.387655 281.892065 
L 133.038266 282.079373 
L 134.339486 282.943046 
L 135.640707 283.478851 
L 136.291317 282.835733 
L 137.592538 284.635933 
L 138.243148 284.188831 
L 139.544369 284.099303 
L 140.194979 284.510986 
L 140.845589 285.0995 
L 142.14681 285.554539 
L 142.79742 286.326118 
L 143.448031 285.698884 
L 144.098641 286.607805 
L 144.749251 286.173495 
L 145.399862 286.656578 
L 146.050472 286.066943 
L 146.701082 287.097851 
L 147.351692 286.684095 
L 148.002303 286.848303 
L 148.652913 286.663811 
L 149.303523 288.248576 
L 149.954134 287.518237 
L 150.604744 288.409747 
L 151.255354 288.739591 
L 151.905965 288.522831 
L 152.556575 287.37003 
L 153.207185 288.569701 
L 153.857796 288.207443 
L 154.508406 288.704957 
L 155.159016 288.072954 
L 155.809627 289.406317 
L 156.460237 289.213709 
L 157.110847 289.179584 
L 157.761457 288.939655 
L 158.412068 289.853039 
L 159.062678 289.619312 
L 159.713288 288.564488 
L 160.363899 290.411359 
L 161.014509 289.4421 
L 161.665119 289.729158 
L 162.96634 290.929504 
L 163.61695 290.130643 
L 164.267561 290.815685 
L 164.918171 290.294547 
L 165.568781 290.329508 
L 166.219392 291.024602 
L 166.870002 290.857853 
L 167.520612 290.107477 
L 168.171222 290.381153 
L 168.821833 291.653448 
L 169.472443 291.518662 
L 170.123053 291.777047 
L 170.773664 290.764254 
L 171.424274 291.853525 
L 172.074884 291.811693 
L 172.725495 291.891146 
L 173.376105 291.618227 
L 174.026715 292.316197 
L 174.677326 291.078143 
L 175.327936 292.248941 
L 175.978546 292.381846 
L 177.279767 291.900765 
L 177.930377 292.463271 
L 178.580987 292.265327 
L 179.231598 292.861855 
L 179.882208 292.330708 
L 181.183429 293.582943 
L 181.834039 292.257327 
L 182.484649 293.507803 
L 183.13526 291.90507 
L 183.78587 292.875543 
L 184.43648 293.154654 
L 185.087091 293.00736 
L 185.737701 293.198861 
L 186.388311 292.671018 
L 187.038921 293.250327 
L 187.689532 293.652026 
L 188.340142 292.369857 
L 188.990752 293.451243 
L 190.942583 293.507202 
L 191.593194 293.343041 
L 192.243804 292.347083 
L 192.894414 294.009075 
L 193.545025 294.482293 
L 194.195635 292.911982 
L 194.846245 292.322436 
L 195.496856 294.192567 
L 196.147466 293.030667 
L 196.798076 292.786499 
L 197.448686 293.222937 
L 198.099297 293.443925 
L 198.749907 292.871756 
L 199.400517 294.300628 
L 200.051128 293.499715 
L 200.701738 293.014305 
L 201.352348 293.909489 
L 202.002959 293.52971 
L 202.653569 293.627246 
L 203.304179 293.431365 
L 203.95479 294.012661 
L 204.6054 293.465703 
L 205.25601 293.844516 
L 205.906621 293.733011 
L 206.557231 292.624529 
L 207.207841 291.902353 
L 207.858451 293.710904 
L 208.509062 293.303913 
L 209.159672 293.312989 
L 209.810282 293.690209 
L 210.460893 293.638763 
L 211.111503 293.008987 
L 211.762113 292.2223 
L 212.412724 293.516376 
L 213.063334 293.070588 
L 213.713944 294.300228 
L 214.364555 294.783246 
L 215.015165 292.844253 
L 215.665775 291.680934 
L 216.316385 293.963184 
L 216.966996 293.334857 
L 217.617606 293.245872 
L 218.268216 292.683134 
L 218.918827 292.947182 
L 219.569437 294.749953 
L 220.220047 295.488 
L 220.870658 293.605632 
L 221.521268 293.733961 
L 222.171878 293.353436 
L 222.822489 292.622853 
L 223.473099 293.310599 
L 224.123709 293.191233 
L 224.77432 293.73448 
L 225.42493 293.559922 
L 226.07554 293.139278 
L 226.72615 293.549524 
L 227.376761 294.770155 
L 228.677981 293.688926 
L 229.328592 292.784693 
L 229.979202 292.27361 
L 230.629812 293.962606 
L 231.280423 293.77538 
L 231.931033 294.215965 
L 232.581643 292.625439 
L 233.232254 293.424388 
L 233.882864 292.124123 
L 234.533474 293.553903 
L 235.184085 293.108893 
L 235.834695 293.219734 
L 237.786526 292.539499 
L 238.437136 292.456869 
L 239.087746 293.799655 
L 239.738357 293.009096 
L 240.388967 293.246067 
L 241.039577 293.297077 
L 241.690188 292.95564 
L 242.340798 291.604238 
L 242.991408 292.76674 
L 243.642019 292.127072 
L 244.292629 293.889741 
L 244.943239 292.964752 
L 245.59385 292.442063 
L 246.24446 292.102034 
L 246.89507 292.328688 
L 247.54568 293.430587 
L 248.196291 291.795224 
L 248.846901 292.67207 
L 249.497511 292.667336 
L 250.148122 292.341775 
L 250.798732 293.353312 
L 251.449342 292.431694 
L 252.099953 292.507866 
L 252.750563 292.87702 
L 253.401173 292.76994 
L 254.051784 293.152012 
L 254.702394 292.114737 
L 256.003615 291.841328 
L 256.654225 292.439523 
L 257.304835 292.477483 
L 257.955445 291.615953 
L 258.606056 293.197653 
L 259.256666 291.62909 
L 259.907276 291.489281 
L 260.557887 292.593572 
L 261.208497 291.50491 
L 261.859107 291.023518 
L 262.509718 292.009756 
L 263.160328 291.04155 
L 263.810938 291.157208 
L 264.461549 292.798142 
L 265.112159 292.926876 
L 265.762769 292.187748 
L 266.413379 292.781777 
L 267.06399 291.539411 
L 267.7146 293.04757 
L 268.36521 291.969597 
L 269.015821 291.613149 
L 269.666431 292.401992 
L 270.317041 292.503681 
L 270.967652 291.693318 
L 271.618262 291.139525 
L 272.268872 291.929815 
L 272.919483 292.329395 
L 273.570093 291.877791 
L 274.220703 290.512393 
L 274.871314 291.902195 
L 275.521924 291.142019 
L 276.823144 291.678516 
L 278.124365 291.586571 
L 278.774975 291.944858 
L 279.425586 292.007246 
L 280.076196 291.313441 
L 280.726806 291.512662 
L 281.377417 291.17168 
L 282.028027 291.686534 
L 282.678637 291.728642 
L 283.329248 290.633469 
L 283.979858 288.859951 
L 284.630468 291.233859 
L 285.281079 290.538083 
L 287.232909 290.766722 
L 287.88352 291.672995 
L 288.53413 289.621349 
L 289.18474 289.838324 
L 289.835351 290.84266 
L 290.485961 289.882707 
L 291.136571 291.087933 
L 291.787182 290.725394 
L 292.437792 290.207534 
L 293.088402 289.973521 
L 293.739013 289.327628 
L 294.389623 290.594817 
L 295.040233 290.852543 
L 296.341454 290.584908 
L 296.992064 290.053778 
L 297.642674 290.183791 
L 298.293285 290.118643 
L 298.943895 290.597216 
L 299.594505 289.652468 
L 300.245116 289.433163 
L 300.895726 290.511843 
L 301.546336 290.444501 
L 302.847557 289.163978 
L 303.498167 287.009867 
L 304.148778 289.490043 
L 304.799388 288.629572 
L 305.449998 290.195478 
L 306.100608 289.613199 
L 306.751219 289.287887 
L 307.401829 288.639585 
L 308.052439 287.775339 
L 308.70305 289.248639 
L 309.35366 289.601039 
L 310.00427 289.198998 
L 310.654881 289.670173 
L 311.305491 289.350476 
L 311.956101 289.521244 
L 313.257322 289.155418 
L 313.907932 288.454817 
L 314.558543 288.153237 
L 315.209153 289.540015 
L 315.859763 288.595329 
L 316.510373 289.21442 
L 317.160984 287.751737 
L 317.811594 288.117745 
L 318.462204 289.573308 
L 319.112815 287.195527 
L 319.763425 288.816943 
L 321.064646 288.634657 
L 321.715256 288.972704 
L 322.365866 287.570906 
L 323.016477 287.339807 
L 323.667087 288.057633 
L 324.317697 287.63552 
L 324.968308 287.879654 
L 325.618918 287.899996 
L 326.269528 287.468108 
L 326.920138 287.214766 
L 327.570749 288.019328 
L 328.221359 286.941173 
L 328.871969 286.95428 
L 329.52258 287.696108 
L 330.17319 287.896313 
L 331.474411 288.905575 
L 332.125021 286.83414 
L 332.775631 287.919244 
L 333.426242 287.417245 
L 334.727462 287.786661 
L 335.378073 287.12196 
L 336.028683 287.872365 
L 336.679293 287.239116 
L 337.980514 286.354283 
L 338.631124 287.419414 
L 339.932345 286.344759 
L 340.582955 287.2627 
L 341.233565 286.545094 
L 341.884176 286.211518 
L 342.534786 286.987343 
L 343.185396 287.293176 
L 343.836007 287.039383 
L 344.486617 286.648444 
L 345.137227 287.444329 
L 346.438448 287.05034 
L 347.739668 285.727765 
L 348.390279 285.864921 
L 349.040889 286.753291 
L 349.691499 286.556295 
L 350.34211 285.976244 
L 350.99272 287.624042 
L 351.64333 285.934019 
L 352.293941 286.518117 
L 352.944551 286.73257 
L 353.595161 285.871054 
L 354.245772 287.022764 
L 354.896382 286.619957 
L 355.546992 285.145684 
L 356.197602 284.604917 
L 356.848213 285.90144 
L 357.498823 285.628313 
L 358.149433 284.347212 
L 358.800044 285.995528 
L 359.450654 285.854168 
L 360.101264 284.798031 
L 360.751875 286.48553 
L 361.402485 284.422512 
L 362.053095 285.647504 
L 362.703706 285.832334 
L 364.004926 285.240515 
L 364.655537 285.259515 
L 365.306147 286.025478 
L 365.956757 285.354943 
L 366.607367 285.591226 
L 367.257978 286.186215 
L 367.908588 285.759229 
L 368.559198 285.76609 
L 369.209809 284.502128 
L 369.860419 283.969085 
L 370.511029 284.536584 
L 371.16164 283.459529 
L 371.81225 285.546361 
L 373.113471 285.192159 
L 373.764081 285.34668 
L 374.414691 283.187821 
L 375.065302 286.07993 
L 375.715912 285.197764 
L 376.366522 285.086624 
L 377.017132 284.33984 
L 377.667743 285.079385 
L 378.318353 283.420526 
L 378.968963 284.507944 
L 379.619574 284.070657 
L 380.270184 283.96052 
L 380.920794 284.027378 
L 381.571405 285.061163 
L 382.222015 284.063843 
L 382.872625 284.566406 
L 384.173846 283.934493 
L 385.475066 283.917357 
L 386.125677 283.87181 
L 386.776287 283.550099 
L 387.426897 283.831416 
L 388.077508 283.870816 
L 388.728118 283.391023 
L 389.378728 282.342015 
L 390.029339 284.063708 
L 390.679949 282.999599 
L 391.330559 283.109082 
L 391.98117 282.321884 
L 392.63178 283.191632 
L 393.28239 283.220911 
L 393.933001 281.38639 
L 394.583611 284.851735 
L 395.234221 283.126934 
L 395.884831 283.526057 
L 396.535442 282.209132 
L 397.186052 281.763681 
L 397.836662 282.655056 
L 398.487273 283.082889 
L 398.487273 283.082889 
" clip-path="url(#p850696ac9d)" style="fill: none; stroke: #e24a33; stroke-width: 3; stroke-linecap: square"/>
   </g>
   <g id="patch_3">
    <path d="M 57.6 307.584 
L 57.6 41.472 
" style="fill: none; stroke: #ffffff; stroke-linejoin: miter; stroke-linecap: square"/>
   </g>
   <g id="patch_4">
    <path d="M 414.72 307.584 
L 414.72 41.472 
" style="fill: none; stroke: #ffffff; stroke-linejoin: miter; stroke-linecap: square"/>
   </g>
   <g id="patch_5">
    <path d="M 57.6 307.584 
L 414.72 307.584 
" style="fill: none; stroke: #ffffff; stroke-linejoin: miter; stroke-linecap: square"/>
   </g>
   <g id="patch_6">
    <path d="M 57.6 41.472 
L 414.72 41.472 
" style="fill: none; stroke: #ffffff; stroke-linejoin: miter; stroke-linecap: square"/>
   </g>
   <g id="text_18">
    <!-- Min train loss: 0.84, index: 225 -->
    <g style="fill: #008000" transform="translate(106.363243 154.612609)scale(0.14 -0.14)">
     <defs>
      <path id="DejaVuSans-4d" d="M 628 4666 
L 1569 4666 
L 2759 1491 
L 3956 4666 
L 4897 4666 
L 4897 0 
L 4281 0 
L 4281 4097 
L 3078 897 
L 2444 897 
L 1241 4097 
L 1241 0 
L 628 0 
L 628 4666 
z
" transform="scale(0.015625)"/>
      <path id="DejaVuSans-69" d="M 603 3500 
L 1178 3500 
L 1178 0 
L 603 0 
L 603 3500 
z
M 603 4863 
L 1178 4863 
L 1178 4134 
L 603 4134 
L 603 4863 
z
" transform="scale(0.015625)"/>
      <path id="DejaVuSans-6e" d="M 3513 2113 
L 3513 0 
L 2938 0 
L 2938 2094 
Q 2938 2591 2744 2837 
Q 2550 3084 2163 3084 
Q 1697 3084 1428 2787 
Q 1159 2491 1159 1978 
L 1159 0 
L 581 0 
L 581 3500 
L 1159 3500 
L 1159 2956 
Q 1366 3272 1645 3428 
Q 1925 3584 2291 3584 
Q 2894 3584 3203 3211 
Q 3513 2838 3513 2113 
z
" transform="scale(0.015625)"/>
      <path id="DejaVuSans-20" transform="scale(0.015625)"/>
      <path id="DejaVuSans-74" d="M 1172 4494 
L 1172 3500 
L 2356 3500 
L 2356 3053 
L 1172 3053 
L 1172 1153 
Q 1172 725 1289 603 
Q 1406 481 1766 481 
L 2356 481 
L 2356 0 
L 1766 0 
Q 1100 0 847 248 
Q 594 497 594 1153 
L 594 3053 
L 172 3053 
L 172 3500 
L 594 3500 
L 594 4494 
L 1172 4494 
z
" transform="scale(0.015625)"/>
      <path id="DejaVuSans-72" d="M 2631 2963 
Q 2534 3019 2420 3045 
Q 2306 3072 2169 3072 
Q 1681 3072 1420 2755 
Q 1159 2438 1159 1844 
L 1159 0 
L 581 0 
L 581 3500 
L 1159 3500 
L 1159 2956 
Q 1341 3275 1631 3429 
Q 1922 3584 2338 3584 
Q 2397 3584 2469 3576 
Q 2541 3569 2628 3553 
L 2631 2963 
z
" transform="scale(0.015625)"/>
      <path id="DejaVuSans-61" d="M 2194 1759 
Q 1497 1759 1228 1600 
Q 959 1441 959 1056 
Q 959 750 1161 570 
Q 1363 391 1709 391 
Q 2188 391 2477 730 
Q 2766 1069 2766 1631 
L 2766 1759 
L 2194 1759 
z
M 3341 1997 
L 3341 0 
L 2766 0 
L 2766 531 
Q 2569 213 2275 61 
Q 1981 -91 1556 -91 
Q 1019 -91 701 211 
Q 384 513 384 1019 
Q 384 1609 779 1909 
Q 1175 2209 1959 2209 
L 2766 2209 
L 2766 2266 
Q 2766 2663 2505 2880 
Q 2244 3097 1772 3097 
Q 1472 3097 1187 3025 
Q 903 2953 641 2809 
L 641 3341 
Q 956 3463 1253 3523 
Q 1550 3584 1831 3584 
Q 2591 3584 2966 3190 
Q 3341 2797 3341 1997 
z
" transform="scale(0.015625)"/>
      <path id="DejaVuSans-6c" d="M 603 4863 
L 1178 4863 
L 1178 0 
L 603 0 
L 603 4863 
z
" transform="scale(0.015625)"/>
      <path id="DejaVuSans-3a" d="M 750 794 
L 1409 794 
L 1409 0 
L 750 0 
L 750 794 
z
M 750 3309 
L 1409 3309 
L 1409 2516 
L 750 2516 
L 750 3309 
z
" transform="scale(0.015625)"/>
      <path id="DejaVuSans-2c" d="M 750 794 
L 1409 794 
L 1409 256 
L 897 -744 
L 494 -744 
L 750 256 
L 750 794 
z
" transform="scale(0.015625)"/>
      <path id="DejaVuSans-64" d="M 2906 2969 
L 2906 4863 
L 3481 4863 
L 3481 0 
L 2906 0 
L 2906 525 
Q 2725 213 2448 61 
Q 2172 -91 1784 -91 
Q 1150 -91 751 415 
Q 353 922 353 1747 
Q 353 2572 751 3078 
Q 1150 3584 1784 3584 
Q 2172 3584 2448 3432 
Q 2725 3281 2906 2969 
z
M 947 1747 
Q 947 1113 1208 752 
Q 1469 391 1925 391 
Q 2381 391 2643 752 
Q 2906 1113 2906 1747 
Q 2906 2381 2643 2742 
Q 2381 3103 1925 3103 
Q 1469 3103 1208 2742 
Q 947 2381 947 1747 
z
" transform="scale(0.015625)"/>
      <path id="DejaVuSans-65" d="M 3597 1894 
L 3597 1613 
L 953 1613 
Q 991 1019 1311 708 
Q 1631 397 2203 397 
Q 2534 397 2845 478 
Q 3156 559 3463 722 
L 3463 178 
Q 3153 47 2828 -22 
Q 2503 -91 2169 -91 
Q 1331 -91 842 396 
Q 353 884 353 1716 
Q 353 2575 817 3079 
Q 1281 3584 2069 3584 
Q 2775 3584 3186 3129 
Q 3597 2675 3597 1894 
z
M 3022 2063 
Q 3016 2534 2758 2815 
Q 2500 3097 2075 3097 
Q 1594 3097 1305 2825 
Q 1016 2553 972 2059 
L 3022 2063 
z
" transform="scale(0.015625)"/>
      <path id="DejaVuSans-78" d="M 3513 3500 
L 2247 1797 
L 3578 0 
L 2900 0 
L 1881 1375 
L 863 0 
L 184 0 
L 1544 1831 
L 300 3500 
L 978 3500 
L 1906 2253 
L 2834 3500 
L 3513 3500 
z
" transform="scale(0.015625)"/>
     </defs>
     <use xlink:href="#DejaVuSans-4d"/>
     <use xlink:href="#DejaVuSans-69" x="86.279297"/>
     <use xlink:href="#DejaVuSans-6e" x="114.0625"/>
     <use xlink:href="#DejaVuSans-20" x="177.441406"/>
     <use xlink:href="#DejaVuSans-74" x="209.228516"/>
     <use xlink:href="#DejaVuSans-72" x="248.4375"/>
     <use xlink:href="#DejaVuSans-61" x="289.550781"/>
     <use xlink:href="#DejaVuSans-69" x="350.830078"/>
     <use xlink:href="#DejaVuSans-6e" x="378.613281"/>
     <use xlink:href="#DejaVuSans-20" x="441.992188"/>
     <use xlink:href="#DejaVuSans-6c" x="473.779297"/>
     <use xlink:href="#DejaVuSans-6f" x="501.5625"/>
     <use xlink:href="#DejaVuSans-73" x="562.744141"/>
     <use xlink:href="#DejaVuSans-73" x="614.84375"/>
     <use xlink:href="#DejaVuSans-3a" x="666.943359"/>
     <use xlink:href="#DejaVuSans-20" x="700.634766"/>
     <use xlink:href="#DejaVuSans-30" x="732.421875"/>
     <use xlink:href="#DejaVuSans-2e" x="796.044922"/>
     <use xlink:href="#DejaVuSans-38" x="827.832031"/>
     <use xlink:href="#DejaVuSans-34" x="891.455078"/>
     <use xlink:href="#DejaVuSans-2c" x="955.078125"/>
     <use xlink:href="#DejaVuSans-20" x="986.865234"/>
     <use xlink:href="#DejaVuSans-69" x="1018.652344"/>
     <use xlink:href="#DejaVuSans-6e" x="1046.435547"/>
     <use xlink:href="#DejaVuSans-64" x="1109.814453"/>
     <use xlink:href="#DejaVuSans-65" x="1173.291016"/>
     <use xlink:href="#DejaVuSans-78" x="1233.064453"/>
     <use xlink:href="#DejaVuSans-3a" x="1292.244141"/>
     <use xlink:href="#DejaVuSans-20" x="1325.935547"/>
     <use xlink:href="#DejaVuSans-32" x="1357.722656"/>
     <use xlink:href="#DejaVuSans-32" x="1421.345703"/>
     <use xlink:href="#DejaVuSans-35" x="1484.96875"/>
    </g>
   </g>
   <g id="text_19">
    <!-- Train loss -->
    <g transform="translate(189.67875 35.472)scale(0.2 -0.2)">
     <defs>
      <path id="DejaVuSans-54" d="M -19 4666 
L 3928 4666 
L 3928 4134 
L 2272 4134 
L 2272 0 
L 1638 0 
L 1638 4134 
L -19 4134 
L -19 4666 
z
" transform="scale(0.015625)"/>
     </defs>
     <use xlink:href="#DejaVuSans-54"/>
     <use xlink:href="#DejaVuSans-72" x="46.333984"/>
     <use xlink:href="#DejaVuSans-61" x="87.447266"/>
     <use xlink:href="#DejaVuSans-69" x="148.726562"/>
     <use xlink:href="#DejaVuSans-6e" x="176.509766"/>
     <use xlink:href="#DejaVuSans-20" x="239.888672"/>
     <use xlink:href="#DejaVuSans-6c" x="271.675781"/>
     <use xlink:href="#DejaVuSans-6f" x="299.458984"/>
     <use xlink:href="#DejaVuSans-73" x="360.640625"/>
     <use xlink:href="#DejaVuSans-73" x="412.740234"/>
    </g>
   </g>
  </g>
 </g>
 <defs>
  <clipPath id="p850696ac9d">
   <rect x="57.6" y="41.472" width="357.12" height="266.112"/>
  </clipPath>
 </defs>
</svg>
