<?xml version="1.0" encoding="utf-8" standalone="no"?>
<!DOCTYPE svg PUBLIC "-//W3C//DTD SVG 1.1//EN"
  "http://www.w3.org/Graphics/SVG/1.1/DTD/svg11.dtd">
<svg xmlns:xlink="http://www.w3.org/1999/xlink" width="460.8pt" height="345.6pt" viewBox="0 0 460.8 345.6" xmlns="http://www.w3.org/2000/svg" version="1.1">
 <metadata>
  <rdf:RDF xmlns:dc="http://purl.org/dc/elements/1.1/" xmlns:cc="http://creativecommons.org/ns#" xmlns:rdf="http://www.w3.org/1999/02/22-rdf-syntax-ns#">
   <cc:Work>
    <dc:type rdf:resource="http://purl.org/dc/dcmitype/StillImage"/>
    <dc:date>2022-02-19T21:11:44.777776</dc:date>
    <dc:format>image/svg+xml</dc:format>
    <dc:creator>
     <cc:Agent>
      <dc:title>Matplotlib v3.5.1, https://matplotlib.org/</dc:title>
     </cc:Agent>
    </dc:creator>
   </cc:Work>
  </rdf:RDF>
 </metadata>
 <defs>
  <style type="text/css">*{stroke-linejoin: round; stroke-linecap: butt}</style>
 </defs>
 <g id="figure_1">
  <g id="patch_1">
   <path d="M 0 345.6 
L 460.8 345.6 
L 460.8 0 
L 0 0 
z
" style="fill: #ffffff"/>
  </g>
  <g id="axes_1">
   <g id="patch_2">
    <path d="M 57.6 307.584 
L 414.72 307.584 
L 414.72 41.472 
L 57.6 41.472 
z
" style="fill: #e5e5e5"/>
   </g>
   <g id="matplotlib.axis_1">
    <g id="xtick_1">
     <g id="line2d_1">
      <path d="M 73.832727 307.584 
L 73.832727 41.472 
" clip-path="url(#p7f45d4238b)" style="fill: none; stroke: #ffffff; stroke-width: 0.8; stroke-linecap: square"/>
     </g>
     <g id="line2d_2">
      <defs>
       <path id="maa8399c8c3" d="M 0 0 
L 0 3.5 
" style="stroke: #555555; stroke-width: 0.8"/>
      </defs>
      <g>
       <use xlink:href="#maa8399c8c3" x="73.832727" y="307.584" style="fill: #555555; stroke: #555555; stroke-width: 0.8"/>
      </g>
     </g>
     <g id="text_1">
      <!-- 0 -->
      <g style="fill: #555555" transform="translate(70.651477 322.182437)scale(0.1 -0.1)">
       <defs>
        <path id="DejaVuSans-30" d="M 2034 4250 
Q 1547 4250 1301 3770 
Q 1056 3291 1056 2328 
Q 1056 1369 1301 889 
Q 1547 409 2034 409 
Q 2525 409 2770 889 
Q 3016 1369 3016 2328 
Q 3016 3291 2770 3770 
Q 2525 4250 2034 4250 
z
M 2034 4750 
Q 2819 4750 3233 4129 
Q 3647 3509 3647 2328 
Q 3647 1150 3233 529 
Q 2819 -91 2034 -91 
Q 1250 -91 836 529 
Q 422 1150 422 2328 
Q 422 3509 836 4129 
Q 1250 4750 2034 4750 
z
" transform="scale(0.015625)"/>
       </defs>
       <use xlink:href="#DejaVuSans-30"/>
      </g>
     </g>
    </g>
    <g id="xtick_2">
     <g id="line2d_3">
      <path d="M 138.893758 307.584 
L 138.893758 41.472 
" clip-path="url(#p7f45d4238b)" style="fill: none; stroke: #ffffff; stroke-width: 0.8; stroke-linecap: square"/>
     </g>
     <g id="line2d_4">
      <g>
       <use xlink:href="#maa8399c8c3" x="138.893758" y="307.584" style="fill: #555555; stroke: #555555; stroke-width: 0.8"/>
      </g>
     </g>
     <g id="text_2">
      <!-- 100 -->
      <g style="fill: #555555" transform="translate(129.350008 322.182437)scale(0.1 -0.1)">
       <defs>
        <path id="DejaVuSans-31" d="M 794 531 
L 1825 531 
L 1825 4091 
L 703 3866 
L 703 4441 
L 1819 4666 
L 2450 4666 
L 2450 531 
L 3481 531 
L 3481 0 
L 794 0 
L 794 531 
z
" transform="scale(0.015625)"/>
       </defs>
       <use xlink:href="#DejaVuSans-31"/>
       <use xlink:href="#DejaVuSans-30" x="63.623047"/>
       <use xlink:href="#DejaVuSans-30" x="127.246094"/>
      </g>
     </g>
    </g>
    <g id="xtick_3">
     <g id="line2d_5">
      <path d="M 203.95479 307.584 
L 203.95479 41.472 
" clip-path="url(#p7f45d4238b)" style="fill: none; stroke: #ffffff; stroke-width: 0.8; stroke-linecap: square"/>
     </g>
     <g id="line2d_6">
      <g>
       <use xlink:href="#maa8399c8c3" x="203.95479" y="307.584" style="fill: #555555; stroke: #555555; stroke-width: 0.8"/>
      </g>
     </g>
     <g id="text_3">
      <!-- 200 -->
      <g style="fill: #555555" transform="translate(194.41104 322.182437)scale(0.1 -0.1)">
       <defs>
        <path id="DejaVuSans-32" d="M 1228 531 
L 3431 531 
L 3431 0 
L 469 0 
L 469 531 
Q 828 903 1448 1529 
Q 2069 2156 2228 2338 
Q 2531 2678 2651 2914 
Q 2772 3150 2772 3378 
Q 2772 3750 2511 3984 
Q 2250 4219 1831 4219 
Q 1534 4219 1204 4116 
Q 875 4013 500 3803 
L 500 4441 
Q 881 4594 1212 4672 
Q 1544 4750 1819 4750 
Q 2544 4750 2975 4387 
Q 3406 4025 3406 3419 
Q 3406 3131 3298 2873 
Q 3191 2616 2906 2266 
Q 2828 2175 2409 1742 
Q 1991 1309 1228 531 
z
" transform="scale(0.015625)"/>
       </defs>
       <use xlink:href="#DejaVuSans-32"/>
       <use xlink:href="#DejaVuSans-30" x="63.623047"/>
       <use xlink:href="#DejaVuSans-30" x="127.246094"/>
      </g>
     </g>
    </g>
    <g id="xtick_4">
     <g id="line2d_7">
      <path d="M 269.015821 307.584 
L 269.015821 41.472 
" clip-path="url(#p7f45d4238b)" style="fill: none; stroke: #ffffff; stroke-width: 0.8; stroke-linecap: square"/>
     </g>
     <g id="line2d_8">
      <g>
       <use xlink:href="#maa8399c8c3" x="269.015821" y="307.584" style="fill: #555555; stroke: #555555; stroke-width: 0.8"/>
      </g>
     </g>
     <g id="text_4">
      <!-- 300 -->
      <g style="fill: #555555" transform="translate(259.472071 322.182437)scale(0.1 -0.1)">
       <defs>
        <path id="DejaVuSans-33" d="M 2597 2516 
Q 3050 2419 3304 2112 
Q 3559 1806 3559 1356 
Q 3559 666 3084 287 
Q 2609 -91 1734 -91 
Q 1441 -91 1130 -33 
Q 819 25 488 141 
L 488 750 
Q 750 597 1062 519 
Q 1375 441 1716 441 
Q 2309 441 2620 675 
Q 2931 909 2931 1356 
Q 2931 1769 2642 2001 
Q 2353 2234 1838 2234 
L 1294 2234 
L 1294 2753 
L 1863 2753 
Q 2328 2753 2575 2939 
Q 2822 3125 2822 3475 
Q 2822 3834 2567 4026 
Q 2313 4219 1838 4219 
Q 1578 4219 1281 4162 
Q 984 4106 628 3988 
L 628 4550 
Q 988 4650 1302 4700 
Q 1616 4750 1894 4750 
Q 2613 4750 3031 4423 
Q 3450 4097 3450 3541 
Q 3450 3153 3228 2886 
Q 3006 2619 2597 2516 
z
" transform="scale(0.015625)"/>
       </defs>
       <use xlink:href="#DejaVuSans-33"/>
       <use xlink:href="#DejaVuSans-30" x="63.623047"/>
       <use xlink:href="#DejaVuSans-30" x="127.246094"/>
      </g>
     </g>
    </g>
    <g id="xtick_5">
     <g id="line2d_9">
      <path d="M 334.076852 307.584 
L 334.076852 41.472 
" clip-path="url(#p7f45d4238b)" style="fill: none; stroke: #ffffff; stroke-width: 0.8; stroke-linecap: square"/>
     </g>
     <g id="line2d_10">
      <g>
       <use xlink:href="#maa8399c8c3" x="334.076852" y="307.584" style="fill: #555555; stroke: #555555; stroke-width: 0.8"/>
      </g>
     </g>
     <g id="text_5">
      <!-- 400 -->
      <g style="fill: #555555" transform="translate(324.533102 322.182437)scale(0.1 -0.1)">
       <defs>
        <path id="DejaVuSans-34" d="M 2419 4116 
L 825 1625 
L 2419 1625 
L 2419 4116 
z
M 2253 4666 
L 3047 4666 
L 3047 1625 
L 3713 1625 
L 3713 1100 
L 3047 1100 
L 3047 0 
L 2419 0 
L 2419 1100 
L 313 1100 
L 313 1709 
L 2253 4666 
z
" transform="scale(0.015625)"/>
       </defs>
       <use xlink:href="#DejaVuSans-34"/>
       <use xlink:href="#DejaVuSans-30" x="63.623047"/>
       <use xlink:href="#DejaVuSans-30" x="127.246094"/>
      </g>
     </g>
    </g>
    <g id="xtick_6">
     <g id="line2d_11">
      <path d="M 399.137883 307.584 
L 399.137883 41.472 
" clip-path="url(#p7f45d4238b)" style="fill: none; stroke: #ffffff; stroke-width: 0.8; stroke-linecap: square"/>
     </g>
     <g id="line2d_12">
      <g>
       <use xlink:href="#maa8399c8c3" x="399.137883" y="307.584" style="fill: #555555; stroke: #555555; stroke-width: 0.8"/>
      </g>
     </g>
     <g id="text_6">
      <!-- 500 -->
      <g style="fill: #555555" transform="translate(389.594133 322.182437)scale(0.1 -0.1)">
       <defs>
        <path id="DejaVuSans-35" d="M 691 4666 
L 3169 4666 
L 3169 4134 
L 1269 4134 
L 1269 2991 
Q 1406 3038 1543 3061 
Q 1681 3084 1819 3084 
Q 2600 3084 3056 2656 
Q 3513 2228 3513 1497 
Q 3513 744 3044 326 
Q 2575 -91 1722 -91 
Q 1428 -91 1123 -41 
Q 819 9 494 109 
L 494 744 
Q 775 591 1075 516 
Q 1375 441 1709 441 
Q 2250 441 2565 725 
Q 2881 1009 2881 1497 
Q 2881 1984 2565 2268 
Q 2250 2553 1709 2553 
Q 1456 2553 1204 2497 
Q 953 2441 691 2322 
L 691 4666 
z
" transform="scale(0.015625)"/>
       </defs>
       <use xlink:href="#DejaVuSans-35"/>
       <use xlink:href="#DejaVuSans-30" x="63.623047"/>
       <use xlink:href="#DejaVuSans-30" x="127.246094"/>
      </g>
     </g>
    </g>
    <g id="text_7">
     <!-- Epoch -->
     <g style="fill: #555555" transform="translate(205.538125 343.459)scale(0.2 -0.2)">
      <defs>
       <path id="DejaVuSans-45" d="M 628 4666 
L 3578 4666 
L 3578 4134 
L 1259 4134 
L 1259 2753 
L 3481 2753 
L 3481 2222 
L 1259 2222 
L 1259 531 
L 3634 531 
L 3634 0 
L 628 0 
L 628 4666 
z
" transform="scale(0.015625)"/>
       <path id="DejaVuSans-70" d="M 1159 525 
L 1159 -1331 
L 581 -1331 
L 581 3500 
L 1159 3500 
L 1159 2969 
Q 1341 3281 1617 3432 
Q 1894 3584 2278 3584 
Q 2916 3584 3314 3078 
Q 3713 2572 3713 1747 
Q 3713 922 3314 415 
Q 2916 -91 2278 -91 
Q 1894 -91 1617 61 
Q 1341 213 1159 525 
z
M 3116 1747 
Q 3116 2381 2855 2742 
Q 2594 3103 2138 3103 
Q 1681 3103 1420 2742 
Q 1159 2381 1159 1747 
Q 1159 1113 1420 752 
Q 1681 391 2138 391 
Q 2594 391 2855 752 
Q 3116 1113 3116 1747 
z
" transform="scale(0.015625)"/>
       <path id="DejaVuSans-6f" d="M 1959 3097 
Q 1497 3097 1228 2736 
Q 959 2375 959 1747 
Q 959 1119 1226 758 
Q 1494 397 1959 397 
Q 2419 397 2687 759 
Q 2956 1122 2956 1747 
Q 2956 2369 2687 2733 
Q 2419 3097 1959 3097 
z
M 1959 3584 
Q 2709 3584 3137 3096 
Q 3566 2609 3566 1747 
Q 3566 888 3137 398 
Q 2709 -91 1959 -91 
Q 1206 -91 779 398 
Q 353 888 353 1747 
Q 353 2609 779 3096 
Q 1206 3584 1959 3584 
z
" transform="scale(0.015625)"/>
       <path id="DejaVuSans-63" d="M 3122 3366 
L 3122 2828 
Q 2878 2963 2633 3030 
Q 2388 3097 2138 3097 
Q 1578 3097 1268 2742 
Q 959 2388 959 1747 
Q 959 1106 1268 751 
Q 1578 397 2138 397 
Q 2388 397 2633 464 
Q 2878 531 3122 666 
L 3122 134 
Q 2881 22 2623 -34 
Q 2366 -91 2075 -91 
Q 1284 -91 818 406 
Q 353 903 353 1747 
Q 353 2603 823 3093 
Q 1294 3584 2113 3584 
Q 2378 3584 2631 3529 
Q 2884 3475 3122 3366 
z
" transform="scale(0.015625)"/>
       <path id="DejaVuSans-68" d="M 3513 2113 
L 3513 0 
L 2938 0 
L 2938 2094 
Q 2938 2591 2744 2837 
Q 2550 3084 2163 3084 
Q 1697 3084 1428 2787 
Q 1159 2491 1159 1978 
L 1159 0 
L 581 0 
L 581 4863 
L 1159 4863 
L 1159 2956 
Q 1366 3272 1645 3428 
Q 1925 3584 2291 3584 
Q 2894 3584 3203 3211 
Q 3513 2838 3513 2113 
z
" transform="scale(0.015625)"/>
      </defs>
      <use xlink:href="#DejaVuSans-45"/>
      <use xlink:href="#DejaVuSans-70" x="63.183594"/>
      <use xlink:href="#DejaVuSans-6f" x="126.660156"/>
      <use xlink:href="#DejaVuSans-63" x="187.841797"/>
      <use xlink:href="#DejaVuSans-68" x="242.822266"/>
     </g>
    </g>
   </g>
   <g id="matplotlib.axis_2">
    <g id="ytick_1">
     <g id="line2d_13">
      <path d="M 57.6 274.102789 
L 414.72 274.102789 
" clip-path="url(#p7f45d4238b)" style="fill: none; stroke: #ffffff; stroke-width: 0.8; stroke-linecap: square"/>
     </g>
     <g id="line2d_14">
      <defs>
       <path id="m02a28ca4e5" d="M 0 0 
L -3.5 0 
" style="stroke: #555555; stroke-width: 0.8"/>
      </defs>
      <g>
       <use xlink:href="#m02a28ca4e5" x="57.6" y="274.102789" style="fill: #555555; stroke: #555555; stroke-width: 0.8"/>
      </g>
     </g>
     <g id="text_8">
      <!-- 0.40 -->
      <g style="fill: #555555" transform="translate(28.334375 277.902007)scale(0.1 -0.1)">
       <defs>
        <path id="DejaVuSans-2e" d="M 684 794 
L 1344 794 
L 1344 0 
L 684 0 
L 684 794 
z
" transform="scale(0.015625)"/>
       </defs>
       <use xlink:href="#DejaVuSans-30"/>
       <use xlink:href="#DejaVuSans-2e" x="63.623047"/>
       <use xlink:href="#DejaVuSans-34" x="95.410156"/>
       <use xlink:href="#DejaVuSans-30" x="159.033203"/>
      </g>
     </g>
    </g>
    <g id="ytick_2">
     <g id="line2d_15">
      <path d="M 57.6 239.090228 
L 414.72 239.090228 
" clip-path="url(#p7f45d4238b)" style="fill: none; stroke: #ffffff; stroke-width: 0.8; stroke-linecap: square"/>
     </g>
     <g id="line2d_16">
      <g>
       <use xlink:href="#m02a28ca4e5" x="57.6" y="239.090228" style="fill: #555555; stroke: #555555; stroke-width: 0.8"/>
      </g>
     </g>
     <g id="text_9">
      <!-- 0.45 -->
      <g style="fill: #555555" transform="translate(28.334375 242.889447)scale(0.1 -0.1)">
       <use xlink:href="#DejaVuSans-30"/>
       <use xlink:href="#DejaVuSans-2e" x="63.623047"/>
       <use xlink:href="#DejaVuSans-34" x="95.410156"/>
       <use xlink:href="#DejaVuSans-35" x="159.033203"/>
      </g>
     </g>
    </g>
    <g id="ytick_3">
     <g id="line2d_17">
      <path d="M 57.6 204.077668 
L 414.72 204.077668 
" clip-path="url(#p7f45d4238b)" style="fill: none; stroke: #ffffff; stroke-width: 0.8; stroke-linecap: square"/>
     </g>
     <g id="line2d_18">
      <g>
       <use xlink:href="#m02a28ca4e5" x="57.6" y="204.077668" style="fill: #555555; stroke: #555555; stroke-width: 0.8"/>
      </g>
     </g>
     <g id="text_10">
      <!-- 0.50 -->
      <g style="fill: #555555" transform="translate(28.334375 207.876887)scale(0.1 -0.1)">
       <use xlink:href="#DejaVuSans-30"/>
       <use xlink:href="#DejaVuSans-2e" x="63.623047"/>
       <use xlink:href="#DejaVuSans-35" x="95.410156"/>
       <use xlink:href="#DejaVuSans-30" x="159.033203"/>
      </g>
     </g>
    </g>
    <g id="ytick_4">
     <g id="line2d_19">
      <path d="M 57.6 169.065108 
L 414.72 169.065108 
" clip-path="url(#p7f45d4238b)" style="fill: none; stroke: #ffffff; stroke-width: 0.8; stroke-linecap: square"/>
     </g>
     <g id="line2d_20">
      <g>
       <use xlink:href="#m02a28ca4e5" x="57.6" y="169.065108" style="fill: #555555; stroke: #555555; stroke-width: 0.8"/>
      </g>
     </g>
     <g id="text_11">
      <!-- 0.55 -->
      <g style="fill: #555555" transform="translate(28.334375 172.864327)scale(0.1 -0.1)">
       <use xlink:href="#DejaVuSans-30"/>
       <use xlink:href="#DejaVuSans-2e" x="63.623047"/>
       <use xlink:href="#DejaVuSans-35" x="95.410156"/>
       <use xlink:href="#DejaVuSans-35" x="159.033203"/>
      </g>
     </g>
    </g>
    <g id="ytick_5">
     <g id="line2d_21">
      <path d="M 57.6 134.052548 
L 414.72 134.052548 
" clip-path="url(#p7f45d4238b)" style="fill: none; stroke: #ffffff; stroke-width: 0.8; stroke-linecap: square"/>
     </g>
     <g id="line2d_22">
      <g>
       <use xlink:href="#m02a28ca4e5" x="57.6" y="134.052548" style="fill: #555555; stroke: #555555; stroke-width: 0.8"/>
      </g>
     </g>
     <g id="text_12">
      <!-- 0.60 -->
      <g style="fill: #555555" transform="translate(28.334375 137.851767)scale(0.1 -0.1)">
       <defs>
        <path id="DejaVuSans-36" d="M 2113 2584 
Q 1688 2584 1439 2293 
Q 1191 2003 1191 1497 
Q 1191 994 1439 701 
Q 1688 409 2113 409 
Q 2538 409 2786 701 
Q 3034 994 3034 1497 
Q 3034 2003 2786 2293 
Q 2538 2584 2113 2584 
z
M 3366 4563 
L 3366 3988 
Q 3128 4100 2886 4159 
Q 2644 4219 2406 4219 
Q 1781 4219 1451 3797 
Q 1122 3375 1075 2522 
Q 1259 2794 1537 2939 
Q 1816 3084 2150 3084 
Q 2853 3084 3261 2657 
Q 3669 2231 3669 1497 
Q 3669 778 3244 343 
Q 2819 -91 2113 -91 
Q 1303 -91 875 529 
Q 447 1150 447 2328 
Q 447 3434 972 4092 
Q 1497 4750 2381 4750 
Q 2619 4750 2861 4703 
Q 3103 4656 3366 4563 
z
" transform="scale(0.015625)"/>
       </defs>
       <use xlink:href="#DejaVuSans-30"/>
       <use xlink:href="#DejaVuSans-2e" x="63.623047"/>
       <use xlink:href="#DejaVuSans-36" x="95.410156"/>
       <use xlink:href="#DejaVuSans-30" x="159.033203"/>
      </g>
     </g>
    </g>
    <g id="ytick_6">
     <g id="line2d_23">
      <path d="M 57.6 99.039988 
L 414.72 99.039988 
" clip-path="url(#p7f45d4238b)" style="fill: none; stroke: #ffffff; stroke-width: 0.8; stroke-linecap: square"/>
     </g>
     <g id="line2d_24">
      <g>
       <use xlink:href="#m02a28ca4e5" x="57.6" y="99.039988" style="fill: #555555; stroke: #555555; stroke-width: 0.8"/>
      </g>
     </g>
     <g id="text_13">
      <!-- 0.65 -->
      <g style="fill: #555555" transform="translate(28.334375 102.839207)scale(0.1 -0.1)">
       <use xlink:href="#DejaVuSans-30"/>
       <use xlink:href="#DejaVuSans-2e" x="63.623047"/>
       <use xlink:href="#DejaVuSans-36" x="95.410156"/>
       <use xlink:href="#DejaVuSans-35" x="159.033203"/>
      </g>
     </g>
    </g>
    <g id="ytick_7">
     <g id="line2d_25">
      <path d="M 57.6 64.027428 
L 414.72 64.027428 
" clip-path="url(#p7f45d4238b)" style="fill: none; stroke: #ffffff; stroke-width: 0.8; stroke-linecap: square"/>
     </g>
     <g id="line2d_26">
      <g>
       <use xlink:href="#m02a28ca4e5" x="57.6" y="64.027428" style="fill: #555555; stroke: #555555; stroke-width: 0.8"/>
      </g>
     </g>
     <g id="text_14">
      <!-- 0.70 -->
      <g style="fill: #555555" transform="translate(28.334375 67.826647)scale(0.1 -0.1)">
       <defs>
        <path id="DejaVuSans-37" d="M 525 4666 
L 3525 4666 
L 3525 4397 
L 1831 0 
L 1172 0 
L 2766 4134 
L 525 4134 
L 525 4666 
z
" transform="scale(0.015625)"/>
       </defs>
       <use xlink:href="#DejaVuSans-30"/>
       <use xlink:href="#DejaVuSans-2e" x="63.623047"/>
       <use xlink:href="#DejaVuSans-37" x="95.410156"/>
       <use xlink:href="#DejaVuSans-30" x="159.033203"/>
      </g>
     </g>
    </g>
    <g id="text_15">
     <!-- Accuracy -->
     <g style="fill: #555555" transform="translate(20.175 220.18425)rotate(-90)scale(0.2 -0.2)">
      <defs>
       <path id="DejaVuSans-41" d="M 2188 4044 
L 1331 1722 
L 3047 1722 
L 2188 4044 
z
M 1831 4666 
L 2547 4666 
L 4325 0 
L 3669 0 
L 3244 1197 
L 1141 1197 
L 716 0 
L 50 0 
L 1831 4666 
z
" transform="scale(0.015625)"/>
       <path id="DejaVuSans-75" d="M 544 1381 
L 544 3500 
L 1119 3500 
L 1119 1403 
Q 1119 906 1312 657 
Q 1506 409 1894 409 
Q 2359 409 2629 706 
Q 2900 1003 2900 1516 
L 2900 3500 
L 3475 3500 
L 3475 0 
L 2900 0 
L 2900 538 
Q 2691 219 2414 64 
Q 2138 -91 1772 -91 
Q 1169 -91 856 284 
Q 544 659 544 1381 
z
M 1991 3584 
L 1991 3584 
z
" transform="scale(0.015625)"/>
       <path id="DejaVuSans-72" d="M 2631 2963 
Q 2534 3019 2420 3045 
Q 2306 3072 2169 3072 
Q 1681 3072 1420 2755 
Q 1159 2438 1159 1844 
L 1159 0 
L 581 0 
L 581 3500 
L 1159 3500 
L 1159 2956 
Q 1341 3275 1631 3429 
Q 1922 3584 2338 3584 
Q 2397 3584 2469 3576 
Q 2541 3569 2628 3553 
L 2631 2963 
z
" transform="scale(0.015625)"/>
       <path id="DejaVuSans-61" d="M 2194 1759 
Q 1497 1759 1228 1600 
Q 959 1441 959 1056 
Q 959 750 1161 570 
Q 1363 391 1709 391 
Q 2188 391 2477 730 
Q 2766 1069 2766 1631 
L 2766 1759 
L 2194 1759 
z
M 3341 1997 
L 3341 0 
L 2766 0 
L 2766 531 
Q 2569 213 2275 61 
Q 1981 -91 1556 -91 
Q 1019 -91 701 211 
Q 384 513 384 1019 
Q 384 1609 779 1909 
Q 1175 2209 1959 2209 
L 2766 2209 
L 2766 2266 
Q 2766 2663 2505 2880 
Q 2244 3097 1772 3097 
Q 1472 3097 1187 3025 
Q 903 2953 641 2809 
L 641 3341 
Q 956 3463 1253 3523 
Q 1550 3584 1831 3584 
Q 2591 3584 2966 3190 
Q 3341 2797 3341 1997 
z
" transform="scale(0.015625)"/>
       <path id="DejaVuSans-79" d="M 2059 -325 
Q 1816 -950 1584 -1140 
Q 1353 -1331 966 -1331 
L 506 -1331 
L 506 -850 
L 844 -850 
Q 1081 -850 1212 -737 
Q 1344 -625 1503 -206 
L 1606 56 
L 191 3500 
L 800 3500 
L 1894 763 
L 2988 3500 
L 3597 3500 
L 2059 -325 
z
" transform="scale(0.015625)"/>
      </defs>
      <use xlink:href="#DejaVuSans-41"/>
      <use xlink:href="#DejaVuSans-63" x="66.658203"/>
      <use xlink:href="#DejaVuSans-63" x="121.638672"/>
      <use xlink:href="#DejaVuSans-75" x="176.619141"/>
      <use xlink:href="#DejaVuSans-72" x="239.998047"/>
      <use xlink:href="#DejaVuSans-61" x="281.111328"/>
      <use xlink:href="#DejaVuSans-63" x="342.390625"/>
      <use xlink:href="#DejaVuSans-79" x="397.371094"/>
     </g>
    </g>
   </g>
   <g id="line2d_27">
    <path d="M 73.832727 295.488 
L 74.483338 239.908682 
L 75.133948 214.767583 
L 75.784558 199.286106 
L 76.435169 188.293582 
L 77.085779 179.794482 
L 78.386999 166.54217 
L 79.03761 162.612433 
L 79.68822 156.782939 
L 80.33883 153.734149 
L 81.640051 146.17342 
L 82.290661 143.534442 
L 82.941272 139.976254 
L 83.591882 137.900278 
L 84.893103 132.752548 
L 85.543713 130.879625 
L 87.495544 123.801498 
L 88.146154 122.414975 
L 88.796764 120.473117 
L 89.447375 119.044464 
L 90.097985 118.071591 
L 90.748595 115.869278 
L 91.399206 114.291244 
L 92.049816 113.073247 
L 92.700426 111.288391 
L 93.351037 110.357687 
L 95.953478 104.888223 
L 96.604088 104.24093 
L 97.254698 102.670541 
L 97.905309 102.245421 
L 99.206529 99.411116 
L 99.85714 98.920834 
L 100.50775 97.151304 
L 101.15836 97.737321 
L 101.808971 96.638083 
L 102.459581 95.224755 
L 103.110191 93.413087 
L 103.760802 94.152321 
L 104.411412 91.846551 
L 105.062022 92.325322 
L 105.712633 90.781767 
L 106.363243 90.486849 
L 107.013853 89.912306 
L 107.664463 88.644566 
L 108.315074 87.981938 
L 108.965684 87.541454 
L 109.616294 86.530303 
L 110.266905 84.837389 
L 110.917515 85.469389 
L 111.568125 84.592252 
L 112.218736 84.527165 
L 112.869346 83.569611 
L 113.519956 84.561616 
L 114.170567 83.420242 
L 114.821177 81.987761 
L 115.471787 82.114157 
L 116.122398 80.432691 
L 116.773008 81.842187 
L 117.423618 80.440358 
L 118.724839 80.302464 
L 119.375449 79.027035 
L 120.026059 78.437162 
L 120.67667 78.329957 
L 121.97789 77.475834 
L 122.628501 77.134937 
L 123.279111 75.878667 
L 123.929721 76.874482 
L 124.580332 75.595235 
L 125.230942 75.468831 
L 125.881552 75.821202 
L 126.532163 74.8675 
L 127.182773 74.810035 
L 128.483993 73.147756 
L 129.785214 73.04432 
L 130.435824 72.63453 
L 131.086435 72.06381 
L 131.737045 72.550215 
L 132.387655 72.519646 
L 133.038266 70.738588 
L 133.688876 71.060339 
L 134.339486 70.271308 
L 134.990097 70.474318 
L 135.640707 70.018491 
L 136.291317 69.980221 
L 136.941927 70.566217 
L 137.592538 68.900119 
L 138.243148 68.624338 
L 138.893758 69.581884 
L 139.544369 68.746877 
L 140.194979 68.509449 
L 141.4962 68.371551 
L 142.14681 67.517428 
L 143.448031 66.969751 
L 144.098641 67.24931 
L 144.749251 67.126779 
L 145.399862 66.862476 
L 146.050472 66.230509 
L 146.701082 66.399023 
L 147.351692 66.180699 
L 148.002303 66.674771 
L 148.652913 65.10826 
L 149.303523 65.165725 
L 149.954134 65.525722 
L 150.604744 64.476277 
L 151.255354 64.924407 
L 151.905965 64.219666 
L 152.556575 65.092938 
L 153.207185 64.154562 
L 153.857796 64.503081 
L 155.159016 63.737084 
L 155.809627 63.721762 
L 156.460237 64.238832 
L 157.110847 64.108575 
L 157.761457 63.786857 
L 159.062678 62.794856 
L 159.713288 62.695256 
L 160.363899 62.166742 
L 161.014509 63.334886 
L 161.665119 62.741214 
L 162.31573 62.810158 
L 162.96634 62.327551 
L 164.267561 61.883264 
L 164.918171 62.159012 
L 165.568781 62.768019 
L 166.219392 61.220662 
L 166.870002 61.270464 
L 167.520612 60.109912 
L 168.171222 61.048325 
L 169.472443 59.776694 
L 170.773664 60.477588 
L 171.424274 59.336218 
L 172.074884 59.715406 
L 172.725495 59.493254 
L 174.026715 60.063962 
L 174.677326 59.654118 
L 175.327936 59.83413 
L 175.978546 59.190677 
L 176.629156 59.098765 
L 177.279767 59.619638 
L 177.930377 58.708083 
L 178.580987 59.025978 
L 179.882208 59.014488 
L 180.532818 58.478256 
L 181.183429 58.631464 
L 181.834039 59.144703 
L 182.484649 58.761675 
L 183.13526 58.765515 
L 183.78587 57.635632 
L 184.43648 57.612659 
L 185.087091 57.719881 
L 185.737701 58.110584 
L 186.388311 58.202471 
L 187.038921 57.696895 
L 187.689532 57.417324 
L 188.340142 58.152693 
L 188.990752 57.267922 
L 189.641363 57.620306 
L 190.291973 57.447944 
L 190.942583 57.739055 
L 191.593194 57.708407 
L 192.243804 58.639132 
L 192.894414 57.394331 
L 193.545025 56.425307 
L 194.195635 57.547544 
L 194.846245 59.033637 
L 195.496856 55.996288 
L 196.147466 57.371312 
L 196.798076 56.712579 
L 198.099297 57.467114 
L 198.749907 57.459459 
L 199.400517 56.034625 
L 200.051128 57.195185 
L 200.701738 57.390508 
L 201.352348 56.249092 
L 202.002959 56.739375 
L 202.653569 56.32569 
L 203.304179 56.314262 
L 203.95479 56.141871 
L 204.6054 56.972996 
L 205.25601 55.816292 
L 205.906621 56.088225 
L 206.557231 56.819779 
L 207.858451 56.222309 
L 208.509062 56.398473 
L 209.159672 56.15337 
L 209.810282 55.406489 
L 210.460893 56.812124 
L 211.111503 56.180203 
L 211.762113 56.226128 
L 212.412724 55.571184 
L 213.063334 55.123041 
L 213.713944 55.218784 
L 214.364555 54.483419 
L 215.015165 56.421463 
L 215.665775 57.244971 
L 216.316385 55.249429 
L 216.966996 56.145698 
L 217.617606 55.513719 
L 218.268216 55.544355 
L 218.918827 55.45625 
L 219.569437 55.245601 
L 220.220047 54.288059 
L 220.870658 55.479227 
L 221.521268 55.935021 
L 222.171878 56.176338 
L 222.822489 55.869896 
L 223.473099 55.421791 
L 224.123709 55.946557 
L 224.77432 54.908548 
L 225.42493 54.72086 
L 226.07554 55.640128 
L 226.72615 55.574995 
L 227.376761 54.828119 
L 228.027371 55.195812 
L 228.677981 54.53702 
L 229.328592 55.29921 
L 229.979202 54.973664 
L 230.629812 54.368514 
L 231.280423 55.498372 
L 231.931033 54.065899 
L 232.581643 55.2111 
L 233.232254 54.330194 
L 233.882864 56.00782 
L 234.533474 55.253248 
L 235.184085 54.847268 
L 235.834695 54.222931 
L 237.135915 55.440944 
L 237.786526 54.655761 
L 239.087746 55.054089 
L 239.738357 55.678401 
L 240.388967 54.219129 
L 241.039577 54.406813 
L 241.690188 55.417934 
L 242.340798 55.755016 
L 243.642019 54.701702 
L 244.292629 54.330186 
L 245.59385 54.529336 
L 246.24446 55.004308 
L 246.89507 54.674898 
L 247.54568 54.479563 
L 248.196291 56.302713 
L 248.846901 55.299201 
L 249.497511 54.743862 
L 250.148122 55.483046 
L 250.798732 54.544666 
L 252.099953 55.01961 
L 252.750563 54.736182 
L 253.401173 54.671049 
L 254.051784 54.330219 
L 254.702394 55.383488 
L 255.353004 54.820431 
L 256.003615 54.774489 
L 256.654225 53.912703 
L 257.304835 53.916564 
L 257.955445 54.67875 
L 258.606056 54.395335 
L 259.256666 55.023458 
L 259.907276 54.728535 
L 260.557887 54.67875 
L 261.208497 55.080919 
L 261.859107 54.088893 
L 262.509718 53.924169 
L 263.160328 55.437104 
L 263.810938 54.521693 
L 265.112159 54.862582 
L 265.762769 54.559997 
L 266.413379 55.283917 
L 267.06399 54.069739 
L 267.7146 54.073554 
L 268.36521 54.602115 
L 269.015821 55.314532 
L 269.666431 54.192291 
L 270.967652 54.303386 
L 271.618262 55.115344 
L 272.268872 54.644237 
L 273.570093 54.571491 
L 274.220703 55.042574 
L 274.871314 54.268897 
L 275.521924 54.303361 
L 276.172534 56.138014 
L 276.823144 54.54851 
L 277.473755 54.433605 
L 278.124365 55.069407 
L 278.774975 53.916527 
L 279.425586 54.18848 
L 280.076196 54.94686 
L 280.726806 55.004325 
L 281.377417 54.939172 
L 282.028027 54.065895 
L 282.678637 54.157811 
L 283.329248 54.778308 
L 283.979858 54.71702 
L 284.630468 54.360805 
L 285.281079 53.568 
L 285.931689 54.866376 
L 286.582299 54.671041 
L 287.232909 54.077398 
L 287.88352 53.859087 
L 288.53413 55.069412 
L 289.835351 54.012287 
L 290.485961 55.203462 
L 291.136571 55.475408 
L 291.787182 55.226439 
L 292.437792 54.628919 
L 293.088402 55.854608 
L 293.739013 55.372005 
L 294.389623 55.046422 
L 295.040233 53.86291 
L 295.690844 55.697572 
L 296.341454 54.893214 
L 296.992064 55.119197 
L 297.642674 55.188132 
L 298.293285 54.908519 
L 298.943895 53.78632 
L 299.594505 54.985171 
L 300.245116 55.245576 
L 300.895726 54.314868 
L 301.546336 55.693703 
L 302.196947 54.724716 
L 302.847557 55.291597 
L 303.498167 56.069084 
L 304.148778 55.919703 
L 304.799388 55.433294 
L 305.449998 55.517538 
L 306.100608 55.352843 
L 306.751219 55.655387 
L 307.401829 56.71636 
L 308.052439 55.674574 
L 309.35366 55.448591 
L 310.00427 54.93918 
L 311.305491 54.912372 
L 311.956101 55.057913 
L 312.606712 54.828102 
L 313.257322 54.291874 
L 313.907932 55.927383 
L 315.209153 55.00046 
L 315.859763 55.375841 
L 316.510373 55.195803 
L 317.160984 55.728195 
L 317.811594 55.728187 
L 318.462204 55.09238 
L 319.112815 56.402284 
L 319.763425 54.969837 
L 320.414035 55.935012 
L 321.064646 55.21494 
L 323.016477 56.275893 
L 323.667087 55.850747 
L 324.317697 56.13033 
L 324.968308 55.743496 
L 325.618918 56.26825 
L 326.269528 55.896705 
L 326.920138 56.084393 
L 327.570749 55.379656 
L 328.221359 55.712844 
L 328.871969 56.241413 
L 329.52258 55.479218 
L 330.17319 55.804797 
L 330.8238 55.529045 
L 331.474411 56.25292 
L 332.125021 55.843092 
L 332.775631 55.004292 
L 333.426242 55.896713 
L 334.076852 56.137981 
L 334.727462 56.593783 
L 335.378073 56.578486 
L 336.028683 55.486873 
L 336.679293 55.467749 
L 337.329903 56.82738 
L 337.980514 56.425269 
L 338.631124 56.172482 
L 339.281734 55.433273 
L 339.932345 56.153345 
L 340.582955 56.60143 
L 341.233565 56.122688 
L 341.884176 56.678049 
L 342.534786 56.069055 
L 343.185396 56.662752 
L 344.486617 57.080226 
L 345.137227 56.157189 
L 345.787837 56.026928 
L 346.438448 56.455905 
L 347.739668 56.072894 
L 348.390279 57.130024 
L 349.040889 54.659555 
L 349.691499 56.792979 
L 350.34211 56.589952 
L 350.99272 55.486865 
L 352.293941 57.482419 
L 352.944551 55.862258 
L 353.595161 57.153 
L 354.245772 56.325674 
L 354.896382 57.221914 
L 355.546992 56.517202 
L 356.197602 57.02279 
L 356.848213 55.988633 
L 357.498823 56.394629 
L 358.149433 57.608778 
L 358.800044 57.267902 
L 359.450654 57.122373 
L 360.101264 57.643253 
L 360.751875 56.463581 
L 361.402485 57.417283 
L 362.053095 56.494204 
L 362.703706 55.222603 
L 363.354316 57.647098 
L 364.004926 56.88871 
L 364.655537 57.229594 
L 365.306147 57.118541 
L 365.956757 57.995641 
L 366.607367 57.229603 
L 367.257978 56.222309 
L 367.908588 57.241068 
L 368.559198 56.727842 
L 369.209809 57.616449 
L 369.860419 57.478588 
L 370.511029 56.934672 
L 371.16164 57.670074 
L 371.81225 56.980642 
L 372.46286 56.524832 
L 373.113471 57.325367 
L 373.764081 56.612929 
L 374.414691 57.432592 
L 375.065302 56.14185 
L 375.715912 57.543662 
L 376.366522 58.21778 
L 377.017132 58.244597 
L 377.667743 57.114714 
L 378.318353 57.643249 
L 378.968963 57.290887 
L 379.619574 57.244908 
L 380.270184 57.421093 
L 380.920794 57.907515 
L 381.571405 57.455582 
L 382.222015 57.903712 
L 382.872625 58.07991 
L 383.523236 57.509207 
L 384.173846 57.348331 
L 384.824456 57.470895 
L 385.475066 57.145337 
L 386.125677 58.152677 
L 386.776287 57.501548 
L 387.426897 58.393974 
L 388.077508 57.27938 
L 388.728118 57.91522 
L 389.378728 57.551346 
L 390.029339 58.470589 
L 390.679949 58.037701 
L 391.330559 58.439932 
L 391.98117 58.363325 
L 392.63178 57.677725 
L 393.28239 58.026281 
L 393.933001 58.983823 
L 394.583611 58.447578 
L 395.234221 57.597308 
L 395.884831 58.547157 
L 396.535442 58.826728 
L 397.186052 58.432277 
L 397.836662 58.608458 
L 398.487273 58.087578 
L 398.487273 58.087578 
" clip-path="url(#p7f45d4238b)" style="fill: none; stroke: #e24a33; stroke-width: 3; stroke-linecap: square"/>
   </g>
   <g id="patch_3">
    <path d="M 57.6 307.584 
L 57.6 41.472 
" style="fill: none; stroke: #ffffff; stroke-linejoin: miter; stroke-linecap: square"/>
   </g>
   <g id="patch_4">
    <path d="M 414.72 307.584 
L 414.72 41.472 
" style="fill: none; stroke: #ffffff; stroke-linejoin: miter; stroke-linecap: square"/>
   </g>
   <g id="patch_5">
    <path d="M 57.6 307.584 
L 414.72 307.584 
" style="fill: none; stroke: #ffffff; stroke-linejoin: miter; stroke-linecap: square"/>
   </g>
   <g id="patch_6">
    <path d="M 57.6 41.472 
L 414.72 41.472 
" style="fill: none; stroke: #ffffff; stroke-linejoin: miter; stroke-linecap: square"/>
   </g>
   <g id="text_16">
    <!-- Max train accuracy value: 0.71, index: 325 -->
    <g style="fill: #008000" transform="translate(106.363243 153.695054)scale(0.14 -0.14)">
     <defs>
      <path id="DejaVuSans-4d" d="M 628 4666 
L 1569 4666 
L 2759 1491 
L 3956 4666 
L 4897 4666 
L 4897 0 
L 4281 0 
L 4281 4097 
L 3078 897 
L 2444 897 
L 1241 4097 
L 1241 0 
L 628 0 
L 628 4666 
z
" transform="scale(0.015625)"/>
      <path id="DejaVuSans-78" d="M 3513 3500 
L 2247 1797 
L 3578 0 
L 2900 0 
L 1881 1375 
L 863 0 
L 184 0 
L 1544 1831 
L 300 3500 
L 978 3500 
L 1906 2253 
L 2834 3500 
L 3513 3500 
z
" transform="scale(0.015625)"/>
      <path id="DejaVuSans-20" transform="scale(0.015625)"/>
      <path id="DejaVuSans-74" d="M 1172 4494 
L 1172 3500 
L 2356 3500 
L 2356 3053 
L 1172 3053 
L 1172 1153 
Q 1172 725 1289 603 
Q 1406 481 1766 481 
L 2356 481 
L 2356 0 
L 1766 0 
Q 1100 0 847 248 
Q 594 497 594 1153 
L 594 3053 
L 172 3053 
L 172 3500 
L 594 3500 
L 594 4494 
L 1172 4494 
z
" transform="scale(0.015625)"/>
      <path id="DejaVuSans-69" d="M 603 3500 
L 1178 3500 
L 1178 0 
L 603 0 
L 603 3500 
z
M 603 4863 
L 1178 4863 
L 1178 4134 
L 603 4134 
L 603 4863 
z
" transform="scale(0.015625)"/>
      <path id="DejaVuSans-6e" d="M 3513 2113 
L 3513 0 
L 2938 0 
L 2938 2094 
Q 2938 2591 2744 2837 
Q 2550 3084 2163 3084 
Q 1697 3084 1428 2787 
Q 1159 2491 1159 1978 
L 1159 0 
L 581 0 
L 581 3500 
L 1159 3500 
L 1159 2956 
Q 1366 3272 1645 3428 
Q 1925 3584 2291 3584 
Q 2894 3584 3203 3211 
Q 3513 2838 3513 2113 
z
" transform="scale(0.015625)"/>
      <path id="DejaVuSans-76" d="M 191 3500 
L 800 3500 
L 1894 563 
L 2988 3500 
L 3597 3500 
L 2284 0 
L 1503 0 
L 191 3500 
z
" transform="scale(0.015625)"/>
      <path id="DejaVuSans-6c" d="M 603 4863 
L 1178 4863 
L 1178 0 
L 603 0 
L 603 4863 
z
" transform="scale(0.015625)"/>
      <path id="DejaVuSans-65" d="M 3597 1894 
L 3597 1613 
L 953 1613 
Q 991 1019 1311 708 
Q 1631 397 2203 397 
Q 2534 397 2845 478 
Q 3156 559 3463 722 
L 3463 178 
Q 3153 47 2828 -22 
Q 2503 -91 2169 -91 
Q 1331 -91 842 396 
Q 353 884 353 1716 
Q 353 2575 817 3079 
Q 1281 3584 2069 3584 
Q 2775 3584 3186 3129 
Q 3597 2675 3597 1894 
z
M 3022 2063 
Q 3016 2534 2758 2815 
Q 2500 3097 2075 3097 
Q 1594 3097 1305 2825 
Q 1016 2553 972 2059 
L 3022 2063 
z
" transform="scale(0.015625)"/>
      <path id="DejaVuSans-3a" d="M 750 794 
L 1409 794 
L 1409 0 
L 750 0 
L 750 794 
z
M 750 3309 
L 1409 3309 
L 1409 2516 
L 750 2516 
L 750 3309 
z
" transform="scale(0.015625)"/>
      <path id="DejaVuSans-2c" d="M 750 794 
L 1409 794 
L 1409 256 
L 897 -744 
L 494 -744 
L 750 256 
L 750 794 
z
" transform="scale(0.015625)"/>
      <path id="DejaVuSans-64" d="M 2906 2969 
L 2906 4863 
L 3481 4863 
L 3481 0 
L 2906 0 
L 2906 525 
Q 2725 213 2448 61 
Q 2172 -91 1784 -91 
Q 1150 -91 751 415 
Q 353 922 353 1747 
Q 353 2572 751 3078 
Q 1150 3584 1784 3584 
Q 2172 3584 2448 3432 
Q 2725 3281 2906 2969 
z
M 947 1747 
Q 947 1113 1208 752 
Q 1469 391 1925 391 
Q 2381 391 2643 752 
Q 2906 1113 2906 1747 
Q 2906 2381 2643 2742 
Q 2381 3103 1925 3103 
Q 1469 3103 1208 2742 
Q 947 2381 947 1747 
z
" transform="scale(0.015625)"/>
     </defs>
     <use xlink:href="#DejaVuSans-4d"/>
     <use xlink:href="#DejaVuSans-61" x="86.279297"/>
     <use xlink:href="#DejaVuSans-78" x="147.558594"/>
     <use xlink:href="#DejaVuSans-20" x="206.738281"/>
     <use xlink:href="#DejaVuSans-74" x="238.525391"/>
     <use xlink:href="#DejaVuSans-72" x="277.734375"/>
     <use xlink:href="#DejaVuSans-61" x="318.847656"/>
     <use xlink:href="#DejaVuSans-69" x="380.126953"/>
     <use xlink:href="#DejaVuSans-6e" x="407.910156"/>
     <use xlink:href="#DejaVuSans-20" x="471.289062"/>
     <use xlink:href="#DejaVuSans-61" x="503.076172"/>
     <use xlink:href="#DejaVuSans-63" x="564.355469"/>
     <use xlink:href="#DejaVuSans-63" x="619.335938"/>
     <use xlink:href="#DejaVuSans-75" x="674.316406"/>
     <use xlink:href="#DejaVuSans-72" x="737.695312"/>
     <use xlink:href="#DejaVuSans-61" x="778.808594"/>
     <use xlink:href="#DejaVuSans-63" x="840.087891"/>
     <use xlink:href="#DejaVuSans-79" x="895.068359"/>
     <use xlink:href="#DejaVuSans-20" x="954.248047"/>
     <use xlink:href="#DejaVuSans-76" x="986.035156"/>
     <use xlink:href="#DejaVuSans-61" x="1045.214844"/>
     <use xlink:href="#DejaVuSans-6c" x="1106.494141"/>
     <use xlink:href="#DejaVuSans-75" x="1134.277344"/>
     <use xlink:href="#DejaVuSans-65" x="1197.65625"/>
     <use xlink:href="#DejaVuSans-3a" x="1259.179688"/>
     <use xlink:href="#DejaVuSans-20" x="1292.871094"/>
     <use xlink:href="#DejaVuSans-30" x="1324.658203"/>
     <use xlink:href="#DejaVuSans-2e" x="1388.28125"/>
     <use xlink:href="#DejaVuSans-37" x="1420.068359"/>
     <use xlink:href="#DejaVuSans-31" x="1483.691406"/>
     <use xlink:href="#DejaVuSans-2c" x="1547.314453"/>
     <use xlink:href="#DejaVuSans-20" x="1579.101562"/>
     <use xlink:href="#DejaVuSans-69" x="1610.888672"/>
     <use xlink:href="#DejaVuSans-6e" x="1638.671875"/>
     <use xlink:href="#DejaVuSans-64" x="1702.050781"/>
     <use xlink:href="#DejaVuSans-65" x="1765.527344"/>
     <use xlink:href="#DejaVuSans-78" x="1825.300781"/>
     <use xlink:href="#DejaVuSans-3a" x="1884.480469"/>
     <use xlink:href="#DejaVuSans-20" x="1918.171875"/>
     <use xlink:href="#DejaVuSans-33" x="1949.958984"/>
     <use xlink:href="#DejaVuSans-32" x="2013.582031"/>
     <use xlink:href="#DejaVuSans-35" x="2077.205078"/>
    </g>
   </g>
   <g id="text_17">
    <!-- Train accuracy -->
    <g transform="translate(163.875625 35.472)scale(0.2 -0.2)">
     <defs>
      <path id="DejaVuSans-54" d="M -19 4666 
L 3928 4666 
L 3928 4134 
L 2272 4134 
L 2272 0 
L 1638 0 
L 1638 4134 
L -19 4134 
L -19 4666 
z
" transform="scale(0.015625)"/>
     </defs>
     <use xlink:href="#DejaVuSans-54"/>
     <use xlink:href="#DejaVuSans-72" x="46.333984"/>
     <use xlink:href="#DejaVuSans-61" x="87.447266"/>
     <use xlink:href="#DejaVuSans-69" x="148.726562"/>
     <use xlink:href="#DejaVuSans-6e" x="176.509766"/>
     <use xlink:href="#DejaVuSans-20" x="239.888672"/>
     <use xlink:href="#DejaVuSans-61" x="271.675781"/>
     <use xlink:href="#DejaVuSans-63" x="332.955078"/>
     <use xlink:href="#DejaVuSans-63" x="387.935547"/>
     <use xlink:href="#DejaVuSans-75" x="442.916016"/>
     <use xlink:href="#DejaVuSans-72" x="506.294922"/>
     <use xlink:href="#DejaVuSans-61" x="547.408203"/>
     <use xlink:href="#DejaVuSans-63" x="608.6875"/>
     <use xlink:href="#DejaVuSans-79" x="663.667969"/>
    </g>
   </g>
  </g>
 </g>
 <defs>
  <clipPath id="p7f45d4238b">
   <rect x="57.6" y="41.472" width="357.12" height="266.112"/>
  </clipPath>
 </defs>
</svg>
